<!DOCTYPE svg PUBLIC "-//W3C//DTD SVG 20010904//EN" "http://www.w3.org/TR/2001/REC-SVG-20010904/DTD/svg10.dtd"><svg version="1" xmlns="http://www.w3.org/2000/svg" width="900" height="650" viewBox="0 0 9000 6500"><g fill="#332d15"><path d="M4126 5111c-10-11-13-22-8-25s17 3 26 13c10 11 13 22 8 25s-17-3-26-13zM3826 5102c-3-6 1-15 8-21 8-7 17-8 20-3 3 6-1 15-8 21-8 7-17 8-20 3zM4065 5072c-17-10-35-17-42-15-15 5-26-14-13-22 6-4 17-1 25 5 8 7 15 10 15 6s14 1 30 9c17 9 28 20 25 25-8 12-5 13-40-8zM3866 5071c-4-5-2-12 4-16 5-3 10-3 10 1 0 3 7 1 15-6s15-9 15-5 7 2 15-5c8-6 19-9 25-5 14 9 1 28-15 21-7-2-18 1-24 7s-11 7-11 3c0-5-6-3-14 3-9 8-16 8-20 2zM3815 5050c-4-6-3-16 3-22s12-6 17 2c4 6 3 16-3 22s-12 6-17-2zM3416 4833c-13-26-33-56-45-67-11-10-18-23-15-28 9-14 52 30 75 75 17 33 22 36 40 27 10-6 24-8 29-5s11 1 14-4c8-12 98-11 114 2 6 5 12 6 12 2s7-2 15 5 15 9 15 6c0-4 9-2 20 4s18 15 15 21c-4 5-15 4-28-3-12-7-25-13-29-14-5-1-10-2-13-4-3-1-31-2-62-2-50-1-95 9-124 28-5 2-19-17-33-43zM5886 3762c-3-6 1-15 8-21 8-7 17-8 20-3 3 6-1 15-8 21-8 7-17 8-20 3z"/></g><g fill="#ca975a"><path d="M5755 5121c-7-12 12-24 25-16 11 7 4 25-10 25-5 0-11-4-15-9zM5694 5097c-36-31-18-42 20-12 16 13 24 25 18 29-6 3-23-4-38-17zM5615 4990c-4-6-1-18 7-27 7-9 12-18 11-20-2-1-1-3 2-3h12c4 0 2 5-4 11s-9 17-7 24c7 16-12 29-21 15zM5865 4990c-4-6-3-16 3-22s12-6 17 2c4 6 3 16-3 22s-12 6-17-2zM5676 4941c-6-10 25-41 46-45 7-2 21-6 31-11 9-4 25-4 35 1 9 4 20 8 25 8 4 1 7 4 7 9 0 7-3 8-17 6-41-5-63-1-90 19-17 12-34 18-37 13zM5646 4922c-3-5 3-17 13-26 11-10 22-13 25-8s-3 17-13 26c-11 10-22 13-25 8zM5696 4882c-9-15 21-49 34-36 7 7 5 15-9 28-10 9-22 13-25 8zM5745 4830c-4-6-10-8-15-5-11 7-71-45-64-56 3-5 20 3 39 18 32 26 78 35 102 20 7-4 14-3 18 3 6 10 5 11-14 14-5 0-13 4-17 9-11 10-42 9-49-3zM3066 4782c-3-6 1-15 8-21 8-7 17-8 20-3 3 6-1 15-8 21-8 7-17 8-20 3zM5895 4770c-4-6-3-16 3-22s12-6 17 2c4 6 3 16-3 22s-12 6-17-2zM5615 4750c-4-6-3-16 3-22s12-6 17 2c4 6 3 16-3 22s-12 6-17-2zM5865 4750c-4-6-3-16 3-22s12-6 17 2c4 6 3 16-3 22s-12 6-17-2zM3075 4720c-4-6-3-16 3-22s12-6 17 2c4 6 3 16-3 22s-12 6-17-2zM3300 4715c-7-9-10-18-7-22 4-3 2-12-4-19-7-8-7-14 1-19 5-3 11-4 11-1 1 3 2 9 3 14 1 4 7 17 14 29 14 26 0 40-18 18zM5615 4700c-4-6-3-16 3-22s12-6 17 2c4 6 3 16-3 22s-12 6-17-2zM5676 4651c-5-8 15-30 41-45 26-14 20 12-7 32-16 12-31 18-34 13zM3261 4636c-8-10-9-16-1-21 6-3 8-10 5-15s-1-11 4-14c5-4 12-2 15 3 4 5 2 13-4 16-8 5-8 11 0 20 7 8 7 16 2 19-6 3-15-1-21-8zM5646 4632c-3-5 3-17 13-26 11-10 22-13 25-8s-3 17-13 26c-11 10-22 13-25 8zM3135 4620c-7-12 32-33 45-25 6 4 8 10 5 14-7 13-44 20-50 11zM3205 4611c-7-12 12-24 25-16 11 7 4 25-10 25-5 0-11-4-15-9zM5755 4611c-7-12 12-24 25-16 11 7 4 25-10 25-5 0-11-4-15-9zM5735 4540c-4-6-10-8-15-5s-11 1-14-4c-4-5-2-12 3-15 5-4 12-2 16 4s10 8 15 5 11-1 14 4c4 5 2 12-3 15-5 4-12 2-16-4zM3135 4526c-11-8-14-16-8-19 6-4 18 0 28 7 11 8 14 16 8 19-6 4-18 0-28-7zM5826 4522c-3-5 3-17 13-26 11-10 22-13 25-8s-3 17-13 26c-11 10-22 13-25 8zM3090 4481c-6-12-6-22-1-26 6-3 15 3 21 14 6 12 6 22 1 26-6 3-15-3-21-14zM5629 4496c-1-3-2-9-3-13-1-5-5-14-9-20-5-7-5-18-2-23 9-14 28-1 21 15-2 7 0 17 6 23s6 12-1 16c-6 4-12 5-12 2zM5660 4481c-6-12-6-22-1-26 6-3 15 3 21 14 6 12 6 22 1 26-6 3-15-3-21-14zM5867 4463c-2-5-3-21-2-38 0-16-3-35-7-42-5-6-5-14 2-18 5-3 11-4 11-1 4 18 7 26 9 29 1 1 3 17 5 35 2 30-8 52-18 35zM3294 4445c-4-8-4-24-1-35s1-23-4-26-7-10-3-15c3-5 10-7 15-3 5 3 7 9 4 14s-1 11 5 15c13 8 13 52 0 60-6 3-13-1-16-10zM5615 4410c-4-6-3-16 3-22s12-6 17 2c4 6 3 16-3 22s-12 6-17-2zM5646 4342c-3-5 3-17 13-26 11-10 22-13 25-8s-3 17-13 26c-11 10-22 13-25 8zM5805 4336c-11-8-14-16-8-19 6-4 18 0 28 7 11 8 14 16 8 19-6 4-18 0-28-7zM3236 4332c-3-5-16-7-30-5-13 3-27 0-30-6-9-15 19-25 42-15 9 4 20 8 24 8 13 2 19 14 9 20-5 4-12 2-15-2zM5841 4316c-7-8-8-17-3-20 6-3 15 1 21 8 7 8 8 17 3 20-6 3-15-1-21-8zM5846 4262c-3-5 3-17 13-26 11-10 22-13 25-8s-3 17-13 26c-11 10-22 13-25 8zM3165 4249c-4-5-10-7-15-4s-11 1-14-4c-4-5-2-12 3-15 5-4 12-3 15 2 6 9 67 9 83-1 6-4 14-3 18 3 3 5 4 11 1 11-18 4-26 7-28 9-9 8-59 7-63-1zM5660 4191c-6-12-6-22-1-26 6-3 15 3 21 14 6 12 6 22 1 26-6 3-15-3-21-14zM3286 4191c-4-5-2-12 2-15 5-3 7-16 5-30-3-13 0-27 6-30 15-9 25 19 15 42-4 9-8 20-8 24-2 13-14 19-20 9zM5615 4170c-4-6-3-16 3-22s12-6 17 2c4 6 3 16-3 22s-12 6-17-2zM5867 4173c-2-5-3-21-2-38 0-16-3-35-7-42-5-6-5-14 2-18 5-3 11-4 11-1 4 18 7 26 9 29 1 1 3 17 5 35 2 30-8 52-18 35zM5615 4120c-4-6-3-16 3-22s12-6 17 2c4 6 3 16-3 22s-12 6-17-2zM3086 4101c-4-7 7-26 28-47s40-32 47-28c8 5 4 12-11 24-13 9-31 27-40 40-12 15-19 19-24 11zM3315 4081c-9-18-11-32-5-36 5-3 16 8 25 24 9 18 11 32 5 36-5 3-16-8-25-24zM5856 4041c-15-16-23-31-18-35 5-3 21 8 36 23 15 16 23 31 18 35-5 3-21-8-36-23zM3235 4046c-11-8-14-16-8-19 6-4 18 0 28 7 11 8 14 16 8 19-6 4-18 0-28-7zM5646 4052c-3-6 1-15 8-21 8-7 17-8 20-3 3 6-1 15-8 21-8 7-17 8-20 3zM3276 3972c-3-5 3-17 13-26 11-10 22-13 25-8s-3 17-13 26c-11 10-22 13-25 8zM5846 3972c-3-5 5-19 18-31 13-13 26-18 30-13 3 5-5 19-18 31-13 13-26 18-30 13zM5715 3957c-10-8-14-16-9-19 14-9 56 11 49 22-8 13-18 13-40-3zM5786 3961c-4-5-2-12 4-16 5-3 10-3 10 1s9-1 19-10c11-10 22-13 25-8s-1 15-9 22-15 9-15 5-6-2-14 4c-9 8-16 8-20 2zM3257 3944c-3-3 4-20 16-36s21-40 19-53 2-26 7-30c15-8 25 21 16 43-5 9-9 23-11 31-4 19-39 53-47 45zM5617 3883c-8-15-2-63 8-63 12 0 16 58 5 65-5 3-10 2-13-2zM5867 3883c-8-15-2-63 8-63 12 0 16 58 5 65-5 3-10 2-13-2zM3075 3860c-4-6-3-16 3-22s12-6 17 2c4 6 3 16-3 22s-12 6-17-2zM3324 3814c-4-10-9-22-11-26s1-9 6-13c15-9 35 35 22 48-7 7-12 5-17-9zM3266 3781c-10-11-13-22-8-25s17 3 26 13c10 11 13 22 8 25s-17-3-26-13zM5861 3756c-13-13-18-26-13-30 5-3 19 5 31 18 13 13 18 26 13 30-5 3-19-5-31-18zM3286 3751c-10-11-13-22-8-25s17 3 26 13c10 11 13 22 8 25s-17-3-26-13zM5705 3761c-3-6 3-15 14-21 12-6 22-6 26-1 3 6-3 15-14 21-12 6-22 6-26 1z"/></g><g fill="#fff"><path d="M3532 2287c-16-19 18-88 64-125 34-28 46-32 98-32 48 0 67 5 97 26 47 32 68 63 71 106l3 33-161 3c-123 2-164-1-172-11zM3106 1932c-9-15 10-76 37-119 35-56 71-79 145-93 60-12 64-12 119 16 78 39 125 101 121 158l-3 41-207 3c-114 1-209-1-212-6z"/></g><g fill="#d7d8d8"><path d="M3532 2297c-7-8-10-16-8-18s79-2 170 1c219 7 225 24 10 28-127 2-164 0-172-11zM3425 2220l-130-5 1-37c1-24 11-50 27-71 73-96 229-86 288 19 16 28 15 30-20 64l-36 35-130-5zM3791 2176c-7-8-8-17-3-20 6-3 15 1 21 8 7 8 8 17 3 20-6 3-15-1-21-8zM3655 2140c-3-5 0-13 9-16 21-8 71-1 71 11 0 14-72 19-80 5zM3514 1926c-8-21 3-49 16-41 5 3 10 15 10 25 0 25-18 36-26 16zM2975 1830l-170-5 3-35c5-53 48-118 100-151 39-25 56-29 113-29 59 0 72 4 114 33 27 17 57 48 69 68l20 37-29 29c-17 16-34 35-40 43-8 13-38 14-180 10zM3245 1740c-3-5-4-11-1-11 13-3 22-6 39-14 11-4 23-3 29 3 8 8 7 13-6 18-9 4-20 4-23 0-3-3-12-1-19 5-8 7-14 7-19-1z"/></g><g fill="#e1b178"><path d="M5681 5129c-51-36-75-87-66-138 9-47 38-94 69-111l25-13-40-36c-72-64-74-155-5-219l41-37-36-33c-24-21-40-47-47-75-16-65-5-101 42-145 38-35 41-40 25-50-9-6-30-27-45-47-22-29-27-46-27-92 0-54 2-58 44-98l44-41-28-23c-44-37-59-67-59-120 0-93 58-151 152-151 50 0 56 3 101 49 46 45 49 51 49 100 0 48-4 56-44 99l-44 47 44 47c39 41 44 52 44 93 0 56-12 80-58 121l-35 30 31 23c42 29 62 70 62 123 0 48-26 98-63 123l-24 15 38 38c44 45 54 75 44 138-5 34-16 54-44 82l-38 37 24 19c118 89 58 276-89 276-34 0-55-7-87-31zm156-51c12-11 25-38 28-59 6-33 3-45-19-73-79-104-221-2-161 114 26 50 106 59 152 18zm6-300c24-28 27-39 22-73-11-71-61-103-131-83-79 21-87 150-12 183 46 21 88 11 121-27zm-24-263c58-29 66-124 14-165-64-50-163-4-163 77 0 82 75 127 149 88zm0-290c35-18 55-64 47-108-9-46-36-68-90-74-40-5-48-2-76 25-84 85 12 213 119 157zm23-305c56-69 22-157-64-167-42-5-50-3-78 25-24 24-30 39-30 72s6 48 30 72c28 28 36 30 78 25 31-3 52-12 64-27zM3050 4766c-22-59 0-130 51-169l28-20-39-43c-44-48-55-79-47-130 7-41 48-100 76-109 17-5 13-11-26-49-40-37-46-49-50-92-5-58 18-108 64-140l30-20-32-21c-45-29-69-84-62-142 4-39 12-52 53-90 47-42 50-43 106-39 50 4 63 9 93 38 71 69 71 153 1 218l-42 39 28 16c43 24 72 94 64 150-6 36-16 53-51 86-38 35-41 41-24 46 26 9 67 65 75 103 11 54-4 100-45 139l-38 36 37 37c39 39 60 94 42 112-15 15-30 2-52-45-42-88-149-90-185-3-7 17-11 42-8 56 3 17-2 31-16 44-20 18-21 18-31-8zm210-261c5-3 17-20 26-37 29-57-4-127-67-143-34-8-94 17-109 45-17 32-15 86 4 115 26 39 99 49 146 20zm6-296c31-29 38-69 20-112-17-43-41-57-96-57-80 0-120 85-74 158 29 45 107 51 150 11zm-16-274c39-20 56-72 38-121-24-67-104-85-159-36-26 24-32 36-32 72 0 38 5 48 34 72 37 31 75 36 119 13zM4000 3983c-27-10-60-46-60-65 0-10 11-30 25-43l24-25h892l25 25c28 28 26 55-7 90-19 19-34 20-452 22-237 1-439-1-447-4z"/></g><g fill="#734713"><path d="M5656 5121c-10-11-13-22-8-25s17 3 26 13c10 11 13 22 8 25s-17-3-26-13zM5661 4836c-7-8-8-17-3-20 6-3 15 1 21 8 7 8 8 17 3 20-6 3-15-1-21-8zM5641 4526c-7-8-8-17-3-20 6-3 15 1 21 8 7 8 8 17 3 20-6 3-15-1-21-8zM5614 4480c-6-6-163-11-409-12-258-2-400-7-400-13s144-11 406-13c357-2 408 0 419 13 15 18 0 41-16 25zM3335 4460c-3-6 0-12 7-15 26-10 763 0 763 10 0 14-761 19-770 5zM5641 4236c-7-8-8-17-3-20 6-3 15 1 21 8 7 8 8 17 3 20-6 3-15-1-21-8zM5217 4190c-259-3-408-9-410-15-1-7 140-11 404-13 341-2 408 0 418 12 7 8 8 16 4 18-4 1-191 1-416-2zM3335 4180c-3-6 0-12 7-15 26-10 763 0 763 10 0 14-761 19-770 5zM3285 4030c-3-6 0-12 7-15 26-10 813 0 813 10 0 14-811 19-820 5zM4805 4030c-3-6 0-12 7-15 26-10 863 0 863 10 0 14-861 19-870 5zM5586 3902c-31-3-52-15-99-58l-60-54H3517l-63 56c-50 43-70 55-91 52-26-3-29-7-34-53-3-27-8-57-10-65-4-13 114-15 1011-18 558-1 1080 1 1160 5l145 8-2 63c0 35-3 64-5 65-1 1-21 1-42-1zM5666 3742c-3-6 1-15 8-21 8-7 17-8 20-3 3 6-1 15-8 21-8 7-17 8-20 3zM3026 3732c-3-5 5-19 18-31 13-13 26-18 30-13 3 5-5 19-18 31-13 13-26 18-30 13zM5866 3701c-15-16-23-31-18-35 5-3 21 8 36 23 15 16 23 31 18 35-5 3-21-8-36-23zM3386 3641c-3-5 37-48 89-96l95-87 608-6c334-2 740-1 903 3l295 7 92 85c51 47 90 89 86 94-3 5-67 9-143 9-121 0-140-2-154-18-10-10-14-22-10-25 3-4-1-7-10-7s-45-27-80-60l-65-60H3847l-66 61c-36 33-77 72-91 85-24 23-31 24-162 24-75 0-139-4-142-9zM3156 3612c-3-5 8-21 23-36 16-15 31-23 35-18 3 5-8 21-23 36-16 15-31 23-35 18zM5731 3576c-13-13-18-26-13-30 5-3 19 5 31 18 13 13 18 26 13 30-5 3-19-5-31-18zM3286 3492c-3-5 8-21 23-36 16-15 31-23 35-18 3 5-8 21-23 36-16 15-31 23-35 18zM5601 3456c-13-13-18-26-13-30 5-3 19 5 31 18 13 13 18 26 13 30-5 3-19-5-31-18zM3426 3362c-3-5 5-19 18-31 13-13 26-18 30-13 3 5-5 19-18 31-13 13-26 18-30 13zM5466 3331c-15-16-23-31-18-35 5-3 21 8 36 23 15 16 23 31 18 35-5 3-21-8-36-23zM3717 3333c-3-5 33-43 79-85l84-78h144c80 0 147 4 150 9 8 12-69 61-96 61-17 0-19 3-10 12s4 20-25 50l-37 38h-142c-79 0-145-3-147-7zM4872 3276c-37-35-77-69-90-75-44-23-10-31 136-31l147 1 82 78c46 43 80 81 76 85-3 3-69 6-146 6h-139l-66-64zM3556 3242c-3-5 8-21 23-36 16-15 31-23 35-18 3 5-8 21-23 36-16 15-31 23-35 18zM5336 3211c-15-16-23-31-18-35 5-3 21 8 36 23 15 16 23 31 18 35-5 3-21-8-36-23zM3686 3122c-3-5 8-21 23-36 16-15 31-23 35-18 3 5-8 21-23 36-16 15-31 23-35 18zM5201 3086c-13-13-18-26-13-30 5-3 19 5 31 18 13 13 18 26 13 30-5 3-19-5-31-18zM4026 3051c-4-5 31-43 76-85l81-76h575l81 76c45 42 78 80 75 85s-67 9-142 9h-138l-49-50c-27-27-45-50-40-50 6 0-9-9-32-21l-43-21-42 21c-24 12-39 21-33 21 5 0-13 23-40 50l-49 50h-138c-75 0-139-4-142-9zM3507 3043c-4-4 8-23 28-43l35-36 2-287c2-183 7-287 13-287s11 104 13 288l2 288-43 42c-24 23-46 39-50 35zM3826 2992c-3-5 5-19 18-31 13-13 26-18 30-13 3 5-5 19-18 31-13 13-26 18-30 13zM5071 2966c-13-13-18-26-13-30 5-3 19 5 31 18 13 13 18 26 13 30-5 3-19-5-31-18zM3656 2902c-3-5 3-17 13-26 11-10 22-13 25-8s-3 17-13 26c-11 10-22 13-25 8zM3956 2872c-3-5 5-19 18-31 13-13 26-18 30-13 3 5-5 19-18 31-13 13-26 18-30 13zM4936 2841c-15-16-23-31-18-35 5-3 21 8 36 23 15 16 23 31 18 35-5 3-21-8-36-23zM3715 2839c-10-26-1-449 10-449 14 0 19 440 6 453-7 7-12 5-16-4zM3796 2772c-3-6 1-15 8-21 8-7 17-8 20-3 3 6-1 15-8 21-8 7-17 8-20 3zM4334 2768c-7-12 123-140 138-135 20 6 147 130 143 138-9 14-272 12-281-3zM4086 2752c-3-5 8-21 23-36 16-15 31-23 35-18 3 5-8 21-23 36-16 15-31 23-35 18zM4806 2721c-15-16-23-31-18-35 5-3 21 8 36 23 15 16 23 31 18 35-5 3-21-8-36-23zM4216 2632c-3-5 8-21 23-36 16-15 31-23 35-18 3 5-8 21-23 36-16 15-31 23-35 18zM4671 2596c-13-13-18-26-13-30 5-3 19 5 31 18 13 13 18 26 13 30-5 3-19-5-31-18zM4346 2512c-3-6 1-15 8-21 8-7 17-8 20-3 3 6-1 15-8 21-8 7-17 8-20 3zM4571 2506c-7-8-8-17-3-20 6-3 15 1 21 8 7 8 8 17 3 20-6 3-15-1-21-8zM4396 2482c-3-6-2-13 4-17 5-3 10-3 10 1 0 3 7 1 15-6 8-6 19-9 25-5 14 9 1 28-15 21-7-2-17 0-23 6s-12 6-16 0zM4485 2471c-7-12 12-24 25-16 11 7 4 25-10 25-5 0-11-4-15-9z"/></g><g fill="#b47938"><path d="M5795 5111c-3-6 3-15 14-21 12-6 22-6 26-1 3 6-3 15-14 21-12 6-22 6-26 1zM5660 5050c-11-21-5-44 9-35 13 7 20 44 11 50-5 3-14-4-20-15zM5864 5016c-4-10-2-22 4-28 8-8 13-7 18 6 4 10 2 22-4 28-8 8-13 7-18-6zM5655 4990c-8-13 13-52 25-45 9 6 2 43-11 50-4 3-10 1-14-5zM5020 4935c-10-12-10-18 0-30 11-13 55-15 289-15 290 0 311 3 290 42-9 17-28 18-288 18-235 0-280-2-291-15zM5805 4916c-11-8-14-16-8-19 6-4 18 0 28 7 11 8 14 16 8 19-6 4-18 0-28-7zM5715 4871c-7-12 12-24 25-16 11 7 4 25-10 25-5 0-11-4-15-9zM5795 4821c-3-6 3-15 14-21 12-6 22-6 26-1 3 6-3 15-14 21-12 6-22 6-26 1zM5660 4760c-11-21-5-44 9-35 13 7 20 44 11 50-5 3-14-4-20-15zM3085 4760c-4-6-3-16 3-22s12-6 17 2c4 6 3 16-3 22s-12 6-17-2zM3327 4734c-3-4-2-16 4-26 13-24 35-9 26 16-7 17-19 21-30 10zM5864 4726c-4-10-2-22 4-28 8-8 13-7 18 6 4 10 2 22-4 28-8 8-13 7-18-6zM5655 4700c-8-13 13-52 25-45 9 6 2 43-11 50-4 3-10 1-14-5zM3087 4683c-4-6 0-18 7-28 8-11 16-14 19-8 4 6 0 18-7 28-8 11-16 14-19 8zM3320 4661c-6-12-6-22-1-26 6-3 15 3 21 14 6 12 6 22 1 26-6 3-15-3-21-14zM3356 4652c-15-18-15-20 2-35 16-15 51-17 284-17 244 0 266 1 282 18 15 18 15 20-2 35-16 15-51 17-284 17-244 0-266-1-282-18zM4840 4645c-10-12-10-18 0-30 19-22 551-22 570 0 7 8 10 22 6 30-8 22-557 23-576 0zM5805 4626c-11-8-14-16-8-19 6-4 18 0 28 7 11 8 14 16 8 19-6 4-18 0-28-7zM3175 4610c-8-12 20-24 35-15 6 3 8 11 5 16-8 12-32 12-40-1zM5676 4603c-8-8 37-53 46-47 5 3 4 13-2 23-10 20-35 33-44 24zM3276 4552c-3-6 1-15 8-21 8-7 17-8 20-3 3 6-1 15-8 21-8 7-17 8-20 3zM5745 4540c-4-6-10-8-15-5-11 7-61-35-54-46 3-5 20 1 37 13 32 23 71 29 94 15 6-4 14-3 18 3 6 10 5 11-14 14-5 0-13 4-17 9-11 10-42 9-49-3zM3215 4530c-3-6 5-14 18-19s33-22 44-37c13-18 22-23 27-15 4 7-7 26-27 46-36 36-51 42-62 25zM3111 4506c-7-8-8-17-3-20 6-3 15 1 21 8 7 8 8 17 3 20-6 3-15-1-21-8zM5659 4468c-6-18-5-70 2-74 5-3 7-9 5-13-5-7 48-65 56-61 1 1 11-2 20-5 23-9 59-2 56 10-2 6-18 10-36 11-48 1-90 45-86 89 1 19-2 37-7 41-5 3-9 4-10 2zM3334 4436c-4-10-2-22 4-28 8-8 13-7 18 6 4 10 2 22-4 28-8 8-13 7-18-6zM5865 4440c-4-6-3-16 3-22s12-6 17 2c4 6 3 16-3 22s-12 6-17-2zM3086 4401c-4-5-2-12 4-16s8-10 5-15c-7-12 54-62 67-54 5 3-6 20-26 36s-34 33-31 38 1 11-4 14c-5 4-12 2-15-3zM3280 4381c-6-12-6-22-1-26 6-3 15 3 21 14 6 12 6 22 1 26-6 3-15-3-21-14zM5842 4370c-23-31-14-51 10-22 23 27 29 40 20 46-5 3-18-8-30-24zM3320 4371c-6-12-6-22-1-26 6-3 15 3 21 14 6 12 6 22 1 26-6 3-15-3-21-14zM3484 4365c-4-8-1-22 6-30 10-13 56-15 285-15s275 2 285 15c7 8 10 22 6 30-5 13-45 15-291 15s-286-2-291-15zM5040 4365c-10-13-9-19 5-35 18-19 29-20 288-18 239 3 271 5 280 20 8 12 7 21-2 32-20 23-552 24-571 1zM3235 4336c-11-8-14-16-8-19 6-4 18 0 28 7 11 8 14 16 8 19-6 4-18 0-28-7zM3255 4306c-11-8-14-16-8-19 6-4 18 0 28 7 11 8 14 16 8 19-6 4-18 0-28-7zM3276 4262c-3-5 5-19 18-31 13-13 26-18 30-13 3 5-5 19-18 31-13 13-26 18-30 13zM5735 4251c-8-13 11-23 38-19 13 1 35-5 50-15 14-9 29-13 32-8 6 11-35 42-46 35-4-2-10 0-14 6-8 13-52 13-60 1zM3126 4229c-35-28-51-58-37-72 7-7 13-3 20 15 5 14 22 34 37 45s23 23 17 26c-6 4-22-3-37-14zM3225 4241c-3-6 3-15 14-21 12-6 22-6 26-1 3 6-3 15-14 21-12 6-22 6-26 1zM5686 4221c-10-11-13-22-8-25s17 3 26 13c10 11 13 22 8 25s-17-3-26-13zM3277 4203c-4-6 0-18 7-28 8-11 16-14 19-8 4 6 0 18-7 28-8 11-16 14-19 8zM3326 4191c-4-5-2-12 2-15 5-3 7-16 5-30-3-13 0-27 6-30 15-9 25 19 15 42-4 9-8 20-8 24-2 13-14 19-20 9zM5659 4178c-6-18-5-70 2-74 5-3 7-9 5-13-5-7 48-65 56-61 1 1 11-2 20-5 23-9 59-2 56 10-2 6-18 10-36 11-48 1-90 45-86 89 1 19-2 37-7 41-5 3-9 4-10 2zM4899 4144c-9-11-10-20-2-32 9-15 40-17 288-17 257 0 279 1 289 18 9 15 7 21-8 33-16 11-70 14-287 14-231 0-268-2-280-16zM5865 4150c-4-6-3-16 3-22s12-6 17 2c4 6 3 16-3 22s-12 6-17-2zM3272 4080c-23-31-14-51 10-22 23 27 29 40 20 46-5 3-18-8-30-24zM5842 4080c-23-31-14-51 10-22 23 27 29 40 20 46-5 3-18-8-30-24zM3320 4081c-6-12-6-22-1-26 6-3 15 3 21 14 6 12 6 22 1 26-6 3-15-3-21-14zM3381 4082c-21-39 0-42 290-42 234 0 278 2 289 15 10 12 10 18 0 30-11 13-56 15-291 15-260 0-279-1-288-18zM3972 3974c-32-22-18-35 18-17 17 8 28 19 25 24-8 13-17 11-43-7zM4855 3981c-7-12 12-24 25-16 11 7 4 25-10 25-5 0-11-4-15-9zM3165 3960c-8-13 20-24 45-17 11 3 23 1 26-4s10-7 15-3c5 3 7 10 3 15-3 5-9 7-14 4s-11-1-15 5c-8 13-52 13-60 0zM5745 3960c-8-13 20-24 40-17 8 4 17 2 20-4 4-5 11-7 16-3 5 3 7 10 3 15-3 5-9 7-14 4s-11-1-15 5c-8 13-42 13-50 0zM4905 3940c-4-6-3-16 3-22s12-6 17 2c4 6 3 16-3 22s-12 6-17-2zM5680 3925c-13-14-20-25-16-25 5 0 4-6-1-12-12-15-11-58 0-75 5-7 5-13 1-13s3-11 16-25c31-33 48-20 18 14-32 35-31 90 0 124 13 14 19 27 14 31-5 3-20-6-32-19zM5837 3934c-3-5 3-20 12-33 11-14 21-19 25-13 3 5-2 20-12 33-11 12-21 18-25 13zM3090 3901c-6-12-6-22-1-26 6-3 15 3 21 14 6 12 6 22 1 26-6 3-15-3-21-14zM3995 3860c-4-6-95-10-244-10-201 0-241-2-251-15s-10-19 5-35c17-19 32-20 285-20 225 0 270 2 280 15 7 8 10 22 6 30-5 13 44 15 397 17 260 2 402 7 402 13 0 14-871 19-880 5zM5865 3860c-4-6-3-16 3-22s12-6 17 2c4 6 3 16-3 22s-12 6-17-2zM3087 3823c-4-6 0-18 7-28 8-11 16-14 19-8 4 6 0 18-7 28-8 11-16 14-19 8zM5616 3821c-4-5-2-12 4-16s8-10 5-15-1-11 4-14c5-4 12-2 15 3 4 5 2 12-4 16s-8 10-5 15 1 11-4 14c-5 4-12 2-15-3zM5844 3793c-14-19-32-28-64-32-51-7-60-25-15-29 34-3 88 27 104 57 17 30-3 34-25 4zM3066 3772c-3-5 5-19 18-31 13-13 26-18 30-13 3 5-5 19-18 31-13 13-26 18-30 13zM3135 3760c-6-10-5-11 14-14 5 0 13-4 17-8 4-5 17-8 29-8s25 3 29 8c4 4 12 7 17 7s9 3 9 8c0 7-3 8-15 6-23-4-74-1-83 4-6 4-13 3-17-3zM3155 3710c-3-5 0-13 9-16 21-8 71-1 71 11 0 14-72 19-80 5zM5735 3710c-3-5 0-13 9-16 21-8 61-1 61 11 0 14-62 19-70 5zM3062 3618c-7-7-12-15-12-19s78-78 173-165c94-87 189-173 209-192 31-30 40-33 53-22 8 7 15 18 15 25 0 13-403 385-417 385-5 0-14-5-21-12zM3692 3618c-19-19-15-27 25-43 30-13 79-15 276-13 211 3 241 5 250 20 8 12 7 21-2 32-12 14-49 16-275 16-190 0-265-3-274-12zM4994 3615c-4-8 0-22 7-31 11-13 32-15 124-12 118 3 157 16 134 44-17 21-257 20-265-1zM4350 3525c-10-12-10-18 0-30 19-23 568-22 576 0 4 8 1 22-6 30-19 22-551 22-570 0zM4071 3256c-9-10-7-17 5-27 13-10 60-15 179-17 137-3 163-1 174 12s11 19 1 31c-17 21-342 22-359 1zM5128 2979c-184-169-207-193-197-211 6-10 16-18 24-16 16 4 425 376 425 387s-23 31-34 30c-6 0-104-86-218-190zM4391 2966c-22-26 29-49 94-44 64 5 85 19 65 43-17 21-142 21-159 1zM3730 2885c-10-12-10-18 0-31 20-24 400-369 411-372 11-4 39 16 39 28 0 11-416 390-428 390-5 0-15-7-22-15zM4920 2662c-231-211-227-207-210-227 7-9 19-14 27-11 7 3 104 88 214 188 148 136 199 188 197 203-2 11-10 21-18 22-8 2-103-77-210-175z"/></g><path d="M4132 5116l-42-45 2-548 3-548h719v590l1 590-320 2-320 3-43-44z" fill="#331d07"/><g fill="#134435"><path d="M3145 5434c-163-103-381-278-450-362l-27-32 26-55c32-64 80-109 154-143 45-20 65-24 123-20 58 3 70 1 74-13 16-50 126-119 190-119 70 0 168 66 195 131 11 26 17 29 39 23 96-25 157-21 230 15 56 29 110 96 128 162l15 55 42-20c89-44 198-18 269 65 94 110 58 269-78 342-39 21-52 22-440 25l-400 2-90-56zM5841 4892l-44-25 29-24c16-12 31-23 34-23 15 0 40-63 40-102 0-55-30-105-75-124-19-8-35-16-35-19 0-2 18-14 40-25 47-24 70-64 70-122 0-55-30-105-75-124-19-8-35-16-35-19 0-2 18-14 40-25 47-24 70-64 70-122 0-55-30-105-75-124-19-8-35-16-35-19 0-2 18-14 40-25s46-33 55-50c17-33 20-102 5-130-8-16-4-28 24-64 18-24 37-61 40-81 9-48 38-59 141-52 190 13 355 120 444 287 33 62 61 156 61 207 0 18 2 33 4 33s27-16 56-35c28-19 75-42 103-50 56-17 173-20 182-6 7 13-56 183-119 316-83 175-180 330-310 497l-61 78-285-1-285-1-44-26z"/></g><g fill="#329179"><path d="M6811 4027c-6-6-11-18-11-27 0-32-68-156-111-202-56-61-145-114-218-129-81-18-82-19-59-92 27-87 21-210-15-289-48-107-142-186-260-218l-60-16 2-86c4-154-43-274-148-379-78-78-161-121-271-141l-75-14-6-90c-10-158-48-270-134-390-195-272-608-352-899-173l-61 38-20-27c-11-15-50-58-87-95-193-195-508-220-742-60-38 26-89 73-114 105l-45 57-31-23c-62-46-125-56-194-32l-41 15-24-42c-35-59-88-87-167-87-101 0-169 52-190 145l-8 35 162 2c135 3 161 5 161 18 0 12-20 17-91 22-154 12-273 67-369 170-104 111-159 279-138 421 5 40 8 75 6 80-2 4-19 7-36 7-95 0-226 60-294 133-118 128-146 260-100 464 1 4-34 8-78 8-44 1-87 3-95 6-13 3-15-8-12-71 4-108 38-329 67-445 54-212 170-506 207-526 11-6 62-13 114-16l94-6v-36c0-114 70-259 175-360 120-116 263-170 423-158 97 7 161 27 236 72 58 35 75 35 76 0 0-22 93-162 138-208 217-225 559-267 817-103 59 38 142 116 191 180l30 38 35-17c55-29 129-45 209-45 142 0 255 45 356 141l61 59 89 4c262 11 464 218 464 476 0 95 10 104 118 113 91 7 165 40 231 102 56 53 107 143 117 210 6 40 10 46 53 67 64 31 147 116 179 185 16 36 28 81 30 120l4 61 45 12c74 18 135 54 191 114 52 55 91 123 92 160 0 14 5 17 23 12 101-29 145-37 199-34l63 3-1 125c-1 135-14 249-46 400-22 107-58 242-67 251-12 12-129 17-140 6z"/><path d="M3831 2216c-7-8-8-17-3-20 6-3 15 1 21 8 7 8 8 17 3 20-6 3-15-1-21-8zM3355 2080c-9-14 44-45 56-33 7 7 1 15-20 26-17 8-33 11-36 7zM3375 1940c-8-12 20-24 35-15 6 3 8 11 5 16-8 12-32 12-40-1zM3496 1835c-16-24-6-45 11-22 19 24 23 36 14 41-5 3-16-5-25-19z"/></g><g fill="#995f1a"><path d="M5730 5113c-52-19-88-91-70-139 47-122 220-100 220 28 0 80-77 138-150 111zM3814 5018c-5-7-18-30-29-52-10-21-35-51-54-67-26-21-31-30-20-34 8-3 100-4 204-3l190 3v160l-141 3c-106 2-143-1-150-10z"/><path d="M4804 5017c-3-8-4-45-2-83l3-69 444-3c261-1 449 2 454 7 6 6 1 14-12 20-29 16-53 56-60 99l-6 37-408 3c-336 2-408 0-413-11zm781-97c4-7-90-10-274-10-181 0-281 4-281 10s98 10 274 10c173 0 277-4 281-10zM5701 4805c-57-49-61-117-9-172 65-70 188-15 188 84 0 93-109 147-179 88zM3091 4747c-26-26-2-101 43-131 14-9 43-16 65-16 51 0 101 41 104 84l2 30h-65c-48 1-75 7-102 23-26 15-39 18-47 10zM3347 4743c-3-5-8-26-12-47s-21-54-37-72c-22-25-26-35-16-39 7-3 195-4 418-3l405 3v160l-377 3c-207 1-379-1-381-5zm566-108c2-10-515-20-541-10-7 3-10 9-7 15 9 14 544 9 548-5zM4804 4737c-3-8-4-45-2-83l3-69 430-3c237-1 436 0 443 3 10 4 7 13-12 36-25 30-33 48-38 99l-3 25-408 3c-336 2-408 0-413-11zm596-107c0-6-98-10-275-10s-275 4-275 10 98 10 275 10 275-4 275-10zM3155 4531c-43-19-70-60-70-108 0-39 5-49 37-79 107-97 253 45 156 151-35 38-85 52-123 36zM5695 4508c-50-48-52-109-4-157 26-26 38-31 79-31 42 0 51 4 79 35 45 51 44 104-3 151s-102 48-151 2z"/><path d="M3339 4453c-1-5-2-15-3-23-2-8-3-25-4-37s-14-35-28-52c-19-23-22-32-12-36 7-3 193-4 413-3l400 3v150l-382 3c-211 1-383-1-384-5zm711-103c0-6-98-10-275-10s-275 4-275 10 98 10 275 10 275-4 275-10zM4804 4447c-3-8-4-43-2-78l3-64 425-3c234-1 431 0 438 3 9 3 7 12-9 35-13 16-25 49-28 72l-6 43-408 3c-337 2-408 0-413-11zm796-102c0-13-34-15-272-13-206 2-272 6-276 16-3 9 56 12 272 12 240 0 276-2 276-15zM3122 4216c-32-30-37-40-37-80 0-38 5-51 33-78 27-28 40-33 78-33 40 0 50 5 80 37 52 58 40 139-26 173-48 25-86 19-128-19zM5693 4218c-48-50-49-111-2-157 26-26 38-31 79-31 42 0 51 4 79 35 45 51 44 104-3 151-28 28-41 34-78 34s-49-5-75-32zM3339 4178c0-2-2-23-4-47s-13-57-25-73c-15-21-18-30-8-33 7-3 191-4 408-3l395 3v150l-382 3c-211 1-383 1-384 0zm611-108c0-6-100-10-281-10-184 0-278 3-274 10 4 6 108 10 281 10 176 0 274-4 274-10zM4804 4167c-3-8-4-43-2-78l3-64 420-3c231-1 426 0 433 3 10 4 9 11-5 31-10 15-20 48-23 73l-5 46-408 3c-337 2-408 0-413-11zm654-44c3-10-56-13-272-13-240 0-276 2-276 15s34 15 272 13c206-2 272-6 276-15zM3120 3931c-16-16-32-40-36-55-9-38 3-74 36-107 23-24 37-29 75-29 40 0 52 5 81 34 28 28 34 42 34 76s-6 48-34 76c-29 29-41 34-81 34-38 0-52-5-75-29zM5691 3926c-27-28-34-43-34-76s7-48 34-76c28-29 40-34 77-34s50 6 78 34 34 42 34 76-6 48-34 76-41 34-78 34-49-5-77-34zM3680 3902c-151-1-278-6-283-11-4-4 21-34 56-65l64-56h1910l62 56c34 31 58 61 54 65-5 5-149 9-320 9-302 1-313 0-332-19-21-21-30-21-456-21h-436l-22 23c-22 22-23 22-297 19zm380-87c0-13-34-15-272-13-206 2-272 6-276 16-3 9 56 12 272 12 240 0 276-2 276-15zM3008 3722c-41-46-52-137-23-192 13-26 286-286 512-489l83-74 2-291c3-266 4-291 20-294 10-2 29 8 43 22l25 25v454l25-23 25-23v-224c0-193 2-224 16-230 9-3 27 6 45 23l29 28v159c0 159 0 160 20 142 18-16 20-33 22-184 3-160 4-166 24-169 11-2 32 6 45 17 22 17 24 29 29 119l5 100 185-174c231-217 255-234 329-234 39 0 66 6 89 20 31 19 1128 1027 1305 1199 43 42 86 89 94 106 24 46 22 124-6 168-12 20-26 37-29 37-4 0-306-277-672-616-393-364-681-623-705-635-50-23-99-24-147-1-20 9-324 283-674 607-350 325-651 602-669 617-30 26-33 26-47 10zm278-289c107-98 194-184 194-191 0-8-4-12-9-10-17 6-401 359-401 369 0 24 35-4 216-168zm2074-292c0-11-389-366-401-366-26 0 7 36 183 197 177 162 218 194 218 169zm-1399-443c109-100 199-186 199-191 0-4-6-7-14-5-18 4-406 357-406 369 0 24 36-4 221-173zm1167 108c-4-17-384-366-398-366-6 0-10 4-10 10 0 11 391 370 403 370 5 0 7-6 5-14z"/><path d="M3665 3641c-3-5 0-13 6-16 5-4 8-13 5-21-3-7-1-16 5-19 5-4 12 1 15 9 5 14 40 16 270 16 228 0 264-2 264-15s-33-15-238-15c-131 0-242-3-246-7-3-4 17-31 46-60l52-53h626l625 1 62 58c34 33 59 62 56 65-4 3-51 6-105 6-59 0-98 4-98 10s47 10 120 10c91 0 119-3 117-12-3-17 214-24 243-8 39 21 8 30-106 30-86 0-113 3-111 13 1 9-165 13-800 15-491 1-804-2-808-7zm1245-131c0-6-98-10-275-10s-275 4-275 10 98 10 275 10 275-4 275-10zM4006 3332c-3-5 8-22 25-38l30-29-98-5c-78-4-98-8-98-20s19-15 110-15c83 0 109 3 108 13-2 9 36 12 167 12 107 0 170-4 170-10s-56-10-149-10c-83 0-152-4-155-9-4-5 9-19 28-30 32-20 46-21 327-21 212 1 300 4 315 13 33 19 163 144 157 151-10 9-931 7-937-2zM4306 3053c-3-4 10-24 31-45l37-38h-76c-55 0-79-4-88-15-18-22 2-26 106-23 65 2 88 6 87 16-4 19 133 17 141-3 8-23 211-18 211 5 0 12-19 16-93 20l-93 5 35 34c19 19 33 38 30 43-6 10-318 11-328 1z"/><path d="M4437 2933c-10-10 13-33 33-33s43 23 33 33c-3 4-18 7-33 7s-30-3-33-7z"/></g><g fill="#4d2e0b"><path d="M4804 5148c-10-15-14-1113-4-1148 5-20 14-26 41-28 42-4 67-26 71-61l3-26 349-3 350-2 45 47c25 27 55 53 66 59 19 10 18 12-12 28-28 14-82 16-463 16h-430v140h398c374 0 400 1 415 18 10 10 17 23 17 28s19 22 42 38l41 29-23 19c-21 17-51 18-456 18h-434v130l402 2 401 3 16 31c9 17 33 44 55 59 73 53 55 55-436 55h-438v130l402 2 402 3 23 45c13 25 37 53 54 62 17 10 27 22 24 28-4 6-164 10-456 10h-449v130h800l24 54c18 41 31 56 56 64 77 27 14 32-435 32-342 0-456-3-461-12zM3826 5092c-2-4-6-23-8-42l-3-35h145c145 0 145 0 148 24 5 36-10 43-53 25-50-21-128-15-183 14-23 12-43 18-46 14zM3660 4860c-54-23-121-24-175-5-22 8-41 15-42 15-2 0-12-19-24-42-12-24-30-53-42-65-16-18-17-24-6-28 8-3 176-4 374-3l360 3v140l-200 2c-174 1-206-1-245-17zM3247 4591c-26-10-21-24 15-41 17-8 40-33 53-55l22-40h768v140l-420 2c-231 1-428-2-438-6zM3253 4304c-18-8-33-16-33-19 0-2 17-13 39-24 21-11 48-36 59-56l21-35 383 2 383 3v140l-410 2c-336 1-416-1-442-13zM3252 4015c-32-17-30-24 14-49 21-11 45-34 54-51l17-30h618l3 30c5 43 15 49 85 55 58 5 62 7 62 30v25l-415 2c-321 1-420-2-438-12zM3312 3766c-24-25-86-56-116-56-33 0-75 18-106 47l-25 22-27-22-26-22 682-630c734-677 716-663 808-649 21 4 53 18 72 33 19 14 332 301 695 636 641 593 659 610 639 626-20 15-23 15-56-8-20-13-46-26-60-30-35-8-104 15-127 44l-21 25-1158 2c-1116 1-1158 0-1174-18zm2200-147c-13-5-21-13-18-17 3-5-24-35-60-67l-65-57-607-6c-334-2-740-1-902 3l-295 7-80 74-80 74 1065-1c666 0 1056-4 1042-10zm-381-364l-68-65H3878l-67 65-66 65h1453l-67-65zm-305-280l-68-65h-574l-69 65-70 64h850l-69-64zm-291-270c-33-30-62-54-65-54s-32 24-65 54l-60 55 125-1h125l-60-54zM3517 3023c-4-3-7-136-7-295v-290l30-29c16-17 34-28 40-24 16 10 13 577-2 596-24 28-55 49-61 42zM3655 2888c-4-9-5-117-3-242l3-227 25-19c14-11 30-18 35-16 6 2 10 89 10 236v232l-32 25c-27 21-34 23-38 11zM3796 2763c-3-3-6-78-6-165v-160l30-29c16-17 34-28 40-24s10 70 10 169c0 156-1 163-22 183-31 27-44 34-52 26z"/></g><path d="M6770 3287c-4-12-16-43-25-69-20-58-93-142-149-170-22-12-68-29-101-38l-60-17-6-69c-10-131-86-243-201-297-54-26-55-28-62-75-21-162-157-285-328-299-56-4-81-11-105-30-32-24-33-26-33-102 0-128-43-235-130-322-90-91-222-143-347-138-52 3-54 2-116-58-102-98-214-143-357-143-79 0-154 16-207 43-18 10-36 17-40 17-5 0-29-28-53-62-116-159-303-251-510-251-237 0-430 109-548 309-22 38-44 82-48 97-3 16-12 31-18 33-7 3-39-11-72-31-203-123-475-91-649 75-95 92-150 207-163 338l-7 67-97 6c-54 4-104 9-112 12-31 12-26-16 15-91 114-209 263-406 444-587 407-407 892-649 1480-737 121-18 549-18 670 0 485 73 910 256 1275 549 109 87 306 284 393 393 344 429 557 994 561 1490l1 125-90 6c-51 4-113 16-143 27l-53 21-9-22z" fill="#45b39c"/><g fill="#236b57"><path d="M4237 5810c-194-22-388-66-567-127-176-60-425-176-425-198 0-6 142-12 395-15l395-5 45-25c50-28 85-74 101-134 9-32 9-53-3-98-8-32-12-60-10-63 3-3 374-5 825-5 740 0 822-2 847-16 63-38 80-132 35-197-13-20-20-39-15-42s11-1 15 5 109 10 290 10c164 0 286 4 290 9 8 15-237 257-355 351-360 286-759 460-1227 536-115 18-518 27-636 14zM2626 5007c-311-338-516-713-620-1137-50-203-66-326-73-540-7-220-9-215 99-215 64 0 69-1 63-20-16-55-17-172-1-235 45-173 196-313 372-343l69-12-9-68c-7-51-5-86 7-149 24-120 66-199 156-289 86-86 183-140 285-158 70-13 153-14 160-3 3 4 1 24-3 44l-9 37 138 3c75 2 165 1 199 0l62-4-7-36c-3-21-15-50-26-65l-20-28 28-40c121-174 376-271 594-225 143 30 286 122 370 237l26 36 61-37c165-99 387-123 575-60 276 93 478 370 478 658v59l68 12c107 20 186 63 273 150 113 114 159 222 159 378v82l42 12c110 29 219 121 270 228 42 87 50 204 20 298l-19 61 43 7c121 18 268 137 328 267 54 113 53 118-23 144-35 12-86 38-114 57-28 20-55 34-59 31s-8-24-8-47c0-56-24-145-54-205-89-175-253-275-457-278-107-1-119-5-119-37 0-12-9-36-19-53-22-37-1324-1244-1373-1274-50-30-134-28-183 6-22 14-126 107-232 206s-197 177-203 173c-6-3-10-48-10-105 0-76-4-102-16-114-23-23-62-19-88 9l-23 25-23-25c-29-31-66-32-97-3l-23 22-20-22c-26-27-64-28-90-2-19 19-20 33-20 314v294l-255 237c-141 130-262 250-270 265-35 68-11 174 51 222 19 16 22 23 14 44-26 66 0 139 60 173 22 12 40 24 40 26 0 3-17 13-39 24-80 41-96 156-29 216 19 16 43 35 54 41 17 10 15 13-22 32-97 49-98 184-2 242 18 11 32 23 31 26s-16 14-34 23c-56 30-83 104-60 164 7 18 5 32-8 53-17 28-19 29-88 26-117-6-211 47-259 143l-27 56 22 23c13 14 18 26 13 30-6 3-49-36-96-87zm1219-2754c-14-77-98-125-186-106-49 10-50 9-69-23-27-42-75-64-143-64-63 0-95 20-121 74-30 64-29 65 107 68 133 3 133 3 113 66l-7 22h313l-7-37zM6845 4030c-3-5 0-13 8-16 23-8 92 0 92 11 0 14-92 19-100 5z"/></g><path d="M0 3250V0h9000v6500H0V3250zm4873 2526c298-48 566-136 813-265 702-368 1193-1043 1328-1824 55-312 45-686-24-995-106-474-342-904-685-1247-396-396-889-640-1470-727-121-18-549-18-670 0-582 87-1073 330-1470 727-395 395-638 883-722 1450-25 172-25 554 1 720 118 765 541 1409 1187 1808 304 188 662 315 1004 356 50 6 104 13 120 15 72 10 495-3 588-18z" fill="#ba4c63"/></svg>