<!DOCTYPE svg PUBLIC "-//W3C//DTD SVG 20010904//EN" "http://www.w3.org/TR/2001/REC-SVG-20010904/DTD/svg10.dtd"><svg version="1" xmlns="http://www.w3.org/2000/svg" width="900" height="650" viewBox="0 0 9000 6500"><g fill="#807f7f"><path d="M4295 5810c-8-12 20-24 35-15 6 3 8 11 5 16-8 12-32 12-40-1zM4665 5810c-8-12 20-24 35-15 6 3 8 11 5 16-8 12-32 12-40-1zM4195 5801c-7-12 12-24 25-16 11 7 4 25-10 25-5 0-11-4-15-9zM4775 5801c-7-12 12-24 25-16 11 7 4 25-10 25-5 0-11-4-15-9zM4115 5791c-7-12 12-24 25-16 11 7 4 25-10 25-5 0-11-4-15-9zM4855 5791c-7-12 12-24 25-16 11 7 4 25-10 25-5 0-11-4-15-9zM1955 3630c-4-6-3-16 3-22s12-6 17 2c4 6 3 16-3 22s-12 6-17-2zM7025 3630c-4-6-3-16 3-22s12-6 17 2c4 6 3 16-3 22s-12 6-17-2zM1945 3550c-4-6-3-16 3-22s12-6 17 2c4 6 3 16-3 22s-12 6-17-2zM7035 3550c-4-6-3-16 3-22s12-6 17 2c4 6 3 16-3 22s-12 6-17-2zM1934 3446c-4-10-2-22 4-28 8-8 13-7 18 6 4 10 2 22-4 28-8 8-13 7-18-6zM7044 3446c-4-10-2-22 4-28 8-8 13-7 18 6 4 10 2 22-4 28-8 8-13 7-18-6zM1934 3076c-4-10-2-22 4-28 8-8 13-7 18 6 4 10 2 22-4 28-8 8-13 7-18-6zM7044 3076c-4-10-2-22 4-28 8-8 13-7 18 6 4 10 2 22-4 28-8 8-13 7-18-6zM1945 2970c-4-6-3-16 3-22s12-6 17 2c4 6 3 16-3 22s-12 6-17-2zM7035 2970c-4-6-3-16 3-22s12-6 17 2c4 6 3 16-3 22s-12 6-17-2zM1955 2890c-4-6-3-16 3-22s12-6 17 2c4 6 3 16-3 22s-12 6-17-2zM7025 2890c-4-6-3-16 3-22s12-6 17 2c4 6 3 16-3 22s-12 6-17-2zM4115 721c-7-12 12-24 25-16 11 7 4 25-10 25-5 0-11-4-15-9zM4855 721c-7-12 12-24 25-16 11 7 4 25-10 25-5 0-11-4-15-9zM4195 711c-7-12 12-24 25-16 11 7 4 25-10 25-5 0-11-4-15-9zM4775 711c-7-12 12-24 25-16 11 7 4 25-10 25-5 0-11-4-15-9zM4295 700c-8-12 20-24 35-15 6 3 8 11 5 16-8 12-32 12-40-1zM4665 700c-8-12 20-24 35-15 6 3 8 11 5 16-8 12-32 12-40-1z"/></g><g fill="#927875"><path d="M3726 5703c-4-5-12-9-17-9-5-1-11-3-14-4s-9-4-15-5c-5-1-12-4-15-5s-9-3-15-4c-5 0-10-4-10-8 0-8 4-9 15-7 3 1 10 3 15 4 6 1 12 4 15 5s10 4 15 5c6 1 12 4 15 5s10 3 15 4c10 1 15 14 8 22-3 2-8 1-12-3zM5255 5700c-3-5-4-11-1-11 16-4 26-7 31-9 3-1 10-4 15-5 6-1 12-4 15-5s8-3 13-4c4-1 12-5 19-9 6-4 14-3 17 2 4 5 2 12-4 16-5 3-10 3-10-1 0-3-7-1-15 6s-15 9-15 5-7-2-15 5-15 9-15 5-6-2-14 4c-10 8-16 9-21 1zM3405 5576c-11-8-14-16-8-19 6-4 18 0 28 7 11 8 14 16 8 19-6 4-18 0-28-7zM5565 5581c-3-6 3-15 14-21 12-6 22-6 26-1 3 6-3 15-14 21-12 6-22 6-26 1zM3285 5516c-11-8-14-16-8-19 6-4 18 0 28 7 11 8 14 16 8 19-6 4-18 0-28-7zM5685 5521c-3-6 3-15 14-21 12-6 22-6 26-1 3 6-3 15-14 21-12 6-22 6-26 1zM2731 5116c-13-13-18-26-13-30 5-3 19 5 31 18 13 13 18 26 13 30-5 3-19-5-31-18zM6236 5132c-3-5 5-19 18-31 13-13 26-18 30-13 3 5-5 19-18 31-13 13-26 18-30 13zM2631 5016c-13-13-18-26-13-30 5-3 19 5 31 18 13 13 18 26 13 30-5 3-19-5-31-18zM6336 5032c-3-5 5-19 18-31 13-13 26-18 30-13 3 5-5 19-18 31-13 13-26 18-30 13zM2541 4916c-7-8-8-17-3-20 6-3 15 1 21 8 7 8 8 17 3 20-6 3-15-1-21-8zM2230 4461c-6-12-6-22-1-26 6-3 15 3 21 14 6 12 6 22 1 26-6 3-15-3-21-14zM6747 4473c-4-6 0-18 7-28 8-11 16-14 19-8 4 6 0 18-7 28-8 11-16 14-19 8zM2170 4341c-6-12-6-22-1-26 6-3 15 3 21 14 6 12 6 22 1 26-6 3-15-3-21-14zM6807 4353c-4-6 0-18 7-28 8-11 16-14 19-8 4 6 0 18-7 28-8 11-16 14-19 8zM6035 4301c-7-12 12-24 25-16 11 7 4 25-10 25-5 0-11-4-15-9zM6176 4242c-3-6 1-15 8-21 8-7 17-8 20-3 3 6-1 15-8 21-8 7-17 8-20 3zM6226 4192c-3-5 3-17 13-26 11-10 22-13 25-8s-3 17-13 26c-11 10-22 13-25 8zM2079 4116c-1-3-2-9-3-13-1-5-5-14-9-20-5-7-5-13-1-13 3 0 1-7-6-15s-9-15-5-15 2-6-4-14c-8-10-9-16-1-21 5-3 11-4 11-1 4 16 7 26 9 31 1 3 4 10 5 15 1 6 4 12 5 15s3 8 4 13c1 4 5 12 9 19 4 6 3 14-3 18-5 3-11 4-11 1zM6907 4114c-4-4-3-12 1-18s7-14 8-18c1-5 3-10 4-13s4-9 5-15c1-5 4-12 5-15s3-9 4-15c0-5 4-10 9-10 7 0 8 4 6 15-1 3-3 10-4 15-1 6-4 12-5 15s-4 10-5 15c-1 6-4 12-5 15s-3 9-4 14c-2 14-12 22-19 15zM6286 4091c-4-5-2-12 3-16 6-3 8-12 5-19-7-17 12-30 21-16 4 6 2 17-4 24s-8 15-5 18 1 9-5 12c-5 4-12 2-15-3zM6304 3996c-4-10-2-22 4-28 8-8 13-7 18 6 4 10 2 22-4 28-8 8-13 7-18-6zM6304 3926c-4-10-2-22 4-28 8-8 13-7 18 6 4 10 2 22-4 28-8 8-13 7-18-6zM6285 3830c-4-6-3-16 3-22s12-6 17 2c4 6 3 16-3 22s-12 6-17-2zM6211 3706c-18-19-29-36-23-39 5-4 23 9 41 27 18 19 29 36 23 39-5 4-23-9-41-27zM6065 3621c-7-12 12-24 25-16 11 7 4 25-10 25-5 0-11-4-15-9zM2047 2494c-4-4-3-12 1-18s7-14 8-18c1-5 3-10 4-13s4-9 5-15c1-5 4-12 5-15s3-9 4-15c0-5 4-10 9-10 7 0 8 4 6 15-1 3-3 10-4 15-1 6-4 12-5 15s-4 10-5 15c-1 6-4 12-5 15s-3 9-4 14c-2 14-12 22-19 15zM6939 2496c-1-3-2-9-3-13-1-5-5-14-9-20-5-7-5-13-1-13 3 0 1-7-6-15s-9-15-5-15 2-6-4-14c-8-10-9-16-1-21 5-3 11-4 11-1 4 16 7 26 9 31 1 3 4 10 5 15 1 6 4 12 5 15s3 8 4 13c1 4 5 12 9 19 4 6 3 14-3 18-5 3-11 4-11 1zM2167 2183c-4-6 0-18 7-28 8-11 16-14 19-8 4 6 0 18-7 28-8 11-16 14-19 8zM6810 2171c-6-12-6-22-1-26 6-3 15 3 21 14 6 12 6 22 1 26-6 3-15-3-21-14zM2227 2063c-4-6 0-18 7-28 8-11 16-14 19-8 4 6 0 18-7 28-8 11-16 14-19 8zM6750 2051c-6-12-6-22-1-26 6-3 15 3 21 14 6 12 6 22 1 26-6 3-15-3-21-14zM6441 1596c-7-8-8-17-3-20 6-3 15 1 21 8 7 8 8 17 3 20-6 3-15-1-21-8zM2616 1512c-3-5 5-19 18-31 13-13 26-18 30-13 3 5-5 19-18 31-13 13-26 18-30 13zM6351 1496c-13-13-18-26-13-30 5-3 19 5 31 18 13 13 18 26 13 30-5 3-19-5-31-18zM2716 1412c-3-5 5-19 18-31 13-13 26-18 30-13 3 5-5 19-18 31-13 13-26 18-30 13zM6251 1396c-13-13-18-26-13-30 5-3 19 5 31 18 13 13 18 26 13 30-5 3-19-5-31-18zM2826 1312c-3-6 1-15 8-21 8-7 17-8 20-3 3 6-1 15-8 21-8 7-17 8-20 3zM6151 1306c-7-8-8-17-3-20 6-3 15 1 21 8 7 8 8 17 3 20-6 3-15-1-21-8zM3275 1001c-3-6 3-15 14-21 12-6 22-6 26-1 3 6-3 15-14 21-12 6-22 6-26 1zM5695 996c-11-8-14-16-8-19 6-4 18 0 28 7 11 8 14 16 8 19-6 4-18 0-28-7zM3395 941c-3-6 3-15 14-21 12-6 22-6 26-1 3 6-3 15-14 21-12 6-22 6-26 1zM5575 936c-11-8-14-16-8-19 6-4 18 0 28 7 11 8 14 16 8 19-6 4-18 0-28-7zM3635 840c-3-5-4-11-1-11 16-4 26-7 31-9 3-1 10-4 15-5 6-1 12-4 15-5s8-3 13-4c4-1 12-5 19-9 6-4 14-3 17 2 4 5 2 12-4 16-5 3-10 3-10-1 0-3-7-1-15 6s-15 9-15 5-7-2-15 5-15 9-15 5-6-2-14 4c-10 8-16 9-21 1zM5346 843c-4-5-12-9-17-9-5-1-11-3-14-4s-9-4-15-5c-5-1-12-4-15-5s-9-3-15-4c-5 0-10-4-10-8 0-8 4-9 15-7 3 1 10 3 15 4 6 1 12 4 15 5s10 4 15 5c6 1 12 4 15 5s10 3 15 4c10 1 15 14 8 22-3 2-8 1-12-3z"/></g><g fill="#b06c63"><path d="M4335 5810c-8-13 20-24 41-16 20 8 9 26-16 26-10 0-22-5-25-10zM4615 5810c-8-13 20-24 41-16 20 8 9 26-16 26-10 0-22-5-25-10zM4215 5801c-7-12 12-24 25-16 11 7 4 25-10 25-5 0-11-4-15-9zM4755 5801c-7-12 12-24 25-16 11 7 4 25-10 25-5 0-11-4-15-9zM4135 5791c-7-12 12-24 25-16 11 7 4 25-10 25-5 0-11-4-15-9zM4835 5791c-7-12 12-24 25-16 11 7 4 25-10 25-5 0-11-4-15-9zM3615 5660c-4-6-10-8-15-5s-11 1-14-4c-4-5-2-12 3-15 5-4 12-2 16 4s10 8 15 5 11-1 14 4c4 5 2 12-3 15-5 4-12 2-16-4zM5366 5661c-4-5-2-12 4-16 5-3 10-3 10 1 0 3 6 1 14-5 10-8 16-9 21-1 3 5 4 11 1 11-3 1-9 2-13 3-5 1-13 5-20 9-6 4-14 3-17-2zM3347 5549c-21-11-35-24-32-29 4-6 23-1 46 10 22 12 37 25 34 30-7 12-2 13-48-11zM5605 5560c-3-5 12-18 34-30 23-11 42-16 46-10 3 5-12 18-34 30-23 11-42 16-46 10zM3215 5476c-11-8-14-16-8-19 6-4 18 0 28 7 11 8 14 16 8 19-6 4-18 0-28-7zM5755 5481c-3-6 3-15 14-21 12-6 22-6 26-1 3 6-3 15-14 21-12 6-22 6-26 1zM2821 5196c-7-8-8-17-3-20 6-3 15 1 21 8 7 8 8 17 3 20-6 3-15-1-21-8zM6156 5202c-3-6 1-15 8-21 8-7 17-8 20-3 3 6-1 15-8 21-8 7-17 8-20 3zM2681 5066c-18-19-29-36-23-39 5-4 23 9 41 27 18 19 29 36 23 39-5 4-23-9-41-27zM6277 5092c-4-5 9-23 27-41 19-18 36-29 39-23 4 5-9 23-27 41-19 18-36 29-39 23zM6426 4932c-3-6 1-15 8-21 8-7 17-8 20-3 3 6-1 15-8 21-8 7-17 8-20 3zM2270 4531c-6-12-6-22-1-26 6-3 15 3 21 14 6 12 6 22 1 26-6 3-15-3-21-14zM6707 4543c-4-6 0-18 7-28 8-11 16-14 19-8 4 6 0 18-7 28-8 11-16 14-19 8zM2200 4401c-11-23-16-42-10-46 5-3 18 12 30 34 11 23 16 42 10 46-5 3-18-12-30-34zM6767 4434c-9-10 32-86 43-79 6 4 1 23-10 46-22 41-23 43-33 33zM2099 4166c-1-3-2-9-3-13-1-5-5-13-9-20-4-6-3-14 3-18 5-3 11-4 11-1 1 3 2 9 3 14 1 4 5 12 9 19 4 6 3 14-3 18-5 3-11 4-11 1zM6886 4161c-4-5-2-12 4-16s8-10 5-15-1-11 4-14c5-4 12-2 15 3 4 5 2 12-4 16s-8 10-5 15 1 11-4 14c-5 4-12 2-15-3zM3304 3946c-4-10-2-22 4-28 8-8 13-7 18 6 4 10 2 22-4 28-8 8-13 7-18-6zM3303 3724c-8-21 13-42 28-27 13 13 5 43-11 43-6 0-13-7-17-16zM1955 3610c-4-6-3-16 3-22s12-6 17 2c4 6 3 16-3 22s-12 6-17-2zM7025 3610c-4-6-3-16 3-22s12-6 17 2c4 6 3 16-3 22s-12 6-17-2zM1945 3530c-4-6-3-16 3-22s12-6 17 2c4 6 3 16-3 22s-12 6-17-2zM7035 3530c-4-6-3-16 3-22s12-6 17 2c4 6 3 16-3 22s-12 6-17-2zM1934 3406c-8-21 3-49 16-41 5 3 10 15 10 25 0 25-18 36-26 16zM7044 3406c-8-21 3-49 16-41 5 3 10 15 10 25 0 25-18 36-26 16zM1934 3126c-8-21 3-49 16-41 5 3 10 15 10 25 0 25-18 36-26 16zM7044 3126c-8-21 3-49 16-41 5 3 10 15 10 25 0 25-18 36-26 16zM1945 2990c-4-6-3-16 3-22s12-6 17 2c4 6 3 16-3 22s-12 6-17-2zM7035 2990c-4-6-3-16 3-22s12-6 17 2c4 6 3 16-3 22s-12 6-17-2zM1955 2910c-4-6-3-16 3-22s12-6 17 2c4 6 3 16-3 22s-12 6-17-2zM7025 2910c-4-6-3-16 3-22s12-6 17 2c4 6 3 16-3 22s-12 6-17-2zM2086 2381c-4-5-2-12 4-16s8-10 5-15-1-11 4-14c5-4 12-2 15 3 4 5 2 12-4 16s-8 10-5 15 1 11-4 14c-5 4-12 2-15-3zM6899 2386c-1-3-2-9-3-13-1-5-5-13-9-20-4-6-3-14 3-18 5-3 11-4 11-1 1 3 2 9 3 14 1 4 5 12 9 19 4 6 3 14-3 18-5 3-11 4-11 1zM2187 2144c-9-10 32-86 43-79 6 4 1 23-10 46-22 41-23 43-33 33zM6780 2111c-11-23-16-42-10-46 5-3 18 12 30 34 11 23 16 42 10 46-5 3-18-12-30-34zM2267 1993c-4-6 0-18 7-28 8-11 16-14 19-8 4 6 0 18-7 28-8 11-16 14-19 8zM6710 1981c-6-12-6-22-1-26 6-3 15 3 21 14 6 12 6 22 1 26-6 3-15-3-21-14zM2546 1592c-3-6 1-15 8-21 8-7 17-8 20-3 3 6-1 15-8 21-8 7-17 8-20 3zM2657 1472c-4-5 9-23 27-41 19-18 36-29 39-23 4 5-9 23-27 41-19 18-36 29-39 23zM6301 1446c-18-19-29-36-23-39 5-4 23 9 41 27 18 19 29 36 23 39-5 4-23-9-41-27zM3205 1041c-3-6 3-15 14-21 12-6 22-6 26-1 3 6-3 15-14 21-12 6-22 6-26 1zM5765 1036c-11-8-14-16-8-19 6-4 18 0 28 7 11 8 14 16 8 19-6 4-18 0-28-7zM3315 980c-3-5 12-18 34-30 23-11 42-16 46-10 3 5-12 18-34 30-23 11-42 16-46 10zM5637 969c-21-11-35-24-32-29 4-6 23-1 46 10 22 12 37 25 34 30-7 12-2 13-48-11zM3586 861c-4-5-2-12 4-16 5-3 10-3 10 1 0 3 6 1 14-5 10-8 16-9 21-1 3 5 4 11 1 11-3 1-9 2-13 3-5 1-13 5-20 9-6 4-14 3-17-2zM5395 860c-4-6-10-8-15-5s-11 1-14-4c-4-5-2-12 3-15 5-4 12-2 16 4s10 8 15 5 11-1 14 4c4 5 2 12-3 15-5 4-12 2-16-4zM4135 721c-7-12 12-24 25-16 11 7 4 25-10 25-5 0-11-4-15-9zM4835 721c-7-12 12-24 25-16 11 7 4 25-10 25-5 0-11-4-15-9zM4215 711c-7-12 12-24 25-16 11 7 4 25-10 25-5 0-11-4-15-9zM4755 711c-7-12 12-24 25-16 11 7 4 25-10 25-5 0-11-4-15-9zM4335 700c-8-13 20-24 41-16 20 8 9 26-16 26-10 0-22-5-25-10zM4615 700c-8-13 20-24 41-16 20 8 9 26-16 26-10 0-22-5-25-10z"/></g><g fill="#558f97"><path d="M4265 5810c-8-12 20-24 35-15 6 3 8 11 5 16-8 12-32 12-40-1zM4695 5810c-8-12 20-24 35-15 6 3 8 11 5 16-8 12-32 12-40-1zM4175 5801c-7-12 12-24 25-16 11 7 4 25-10 25-5 0-11-4-15-9zM4795 5801c-7-12 12-24 25-16 11 7 4 25-10 25-5 0-11-4-15-9zM3985 5771c-7-12 12-24 25-16 11 7 4 25-10 25-5 0-11-4-15-9zM4985 5771c-7-12 12-24 25-16 11 7 4 25-10 25-5 0-11-4-15-9zM3815 5730c-4-6-10-8-15-5s-11 1-14-4c-4-5-2-12 3-15 5-4 12-2 16 4s10 8 15 5 11-1 14 4c4 5 2 12-3 15-5 4-12 2-16-4zM5166 5731c-4-5-2-12 4-16 5-3 10-3 10 1 0 3 6 1 14-5 10-8 16-9 21-1 3 5 4 11 1 11-3 1-9 2-13 3-5 1-13 5-20 9-6 4-14 3-17-2zM3716 5703c-4-5-12-9-17-9-5-1-11-3-14-4s-9-4-15-5c-5-1-12-4-15-5s-9-3-15-4c-5 0-10-4-10-8 0-8 4-9 15-7 3 1 10 3 15 4 6 1 12 4 15 5s10 4 15 5c6 1 12 4 15 5s10 3 15 4c10 1 15 14 8 22-3 2-8 1-12-3zM5265 5700c-3-5-4-11-1-11 16-4 26-7 31-9 3-1 10-4 15-5 6-1 12-4 15-5s8-3 13-4c4-1 12-5 19-9 6-4 14-3 17 2 4 5 2 12-4 16-5 3-10 3-10-1 0-3-7-1-15 6s-15 9-15 5-7-2-15 5-15 9-15 5-6-2-14 4c-10 8-16 9-21 1zM3465 5606c-11-8-14-16-8-19 6-4 18 0 28 7 11 8 14 16 8 19-6 4-18 0-28-7zM5505 5611c-3-6 3-15 14-21 12-6 22-6 26-1 3 6-3 15-14 21-12 6-22 6-26 1zM3347 5554c-38-20-24-38 14-19 16 9 27 20 24 25-7 12-4 13-38-6zM5615 5560c-3-5 8-16 24-25 18-9 32-11 36-5 3 5-8 16-24 25-18 9-32 11-36 5zM3225 5486c-11-8-14-16-8-19 6-4 18 0 28 7 11 8 14 16 8 19-6 4-18 0-28-7zM5745 5491c-3-6 3-15 14-21 12-6 22-6 26-1 3 6-3 15-14 21-12 6-22 6-26 1zM2951 5306c-7-8-8-17-3-20 6-3 15 1 21 8 7 8 8 17 3 20-6 3-15-1-21-8zM6026 5312c-3-6 1-15 8-21 8-7 17-8 20-3 3 6-1 15-8 21-8 7-17 8-20 3zM2851 5226c-7-8-8-17-3-20 6-3 15 1 21 8 7 8 8 17 3 20-6 3-15-1-21-8zM6126 5232c-3-6 1-15 8-21 8-7 17-8 20-3 3 6-1 15-8 21-8 7-17 8-20 3zM2781 5166c-13-13-18-26-13-30 5-3 19 5 31 18 13 13 18 26 13 30-5 3-19-5-31-18zM6186 5182c-3-5 5-19 18-31 13-13 26-18 30-13 3 5-5 19-18 31-13 13-26 18-30 13zM2581 4966c-13-13-18-26-13-30 5-3 19 5 31 18 13 13 18 26 13 30-5 3-19-5-31-18zM6386 4982c-3-5 5-19 18-31 13-13 26-18 30-13 3 5-5 19-18 31-13 13-26 18-30 13zM2521 4896c-7-8-8-17-3-20 6-3 15 1 21 8 7 8 8 17 3 20-6 3-15-1-21-8zM6456 4902c-3-6 1-15 8-21 8-7 17-8 20-3 3 6-1 15-8 21-8 7-17 8-20 3zM2441 4796c-7-8-8-17-3-20 6-3 15 1 21 8 7 8 8 17 3 20-6 3-15-1-21-8zM6536 4802c-3-6 1-15 8-21 8-7 17-8 20-3 3 6-1 15-8 21-8 7-17 8-20 3zM2260 4521c-6-12-6-22-1-26 6-3 15 3 21 14 6 12 6 22 1 26-6 3-15-3-21-14zM6717 4533c-4-6 0-18 7-28 8-11 16-14 19-8 4 6 0 18-7 28-8 11-16 14-19 8zM2195 4401c-9-18-11-32-5-36 5-3 16 8 25 24 9 18 11 32 5 36-5 3-16-8-25-24zM6777 4424c-9-10 22-66 33-59 6 4 4 18-5 36-17 31-18 32-28 23zM2140 4281c-6-12-6-22-1-26 6-3 15 3 21 14 6 12 6 22 1 26-6 3-15-3-21-14zM6837 4293c-4-6 0-18 7-28 8-11 16-14 19-8 4 6 0 18-7 28-8 11-16 14-19 8zM2079 4126c-1-3-2-9-3-13-1-5-5-14-9-20-5-7-5-13-1-13 3 0 1-7-6-15s-9-15-5-15 2-6-4-14c-8-10-9-16-1-21 5-3 11-4 11-1 4 16 7 26 9 31 1 3 4 10 5 15 1 6 4 12 5 15s3 8 4 13c1 4 5 12 9 19 4 6 3 14-3 18-5 3-11 4-11 1zM6907 4124c-4-4-3-12 1-18s7-14 8-18c1-5 3-10 4-13s4-9 5-15c1-5 4-12 5-15s3-9 4-15c0-5 4-10 9-10 7 0 8 4 6 15-1 3-3 10-4 15-1 6-4 12-5 15s-4 10-5 15c-1 6-4 12-5 15s-3 9-4 14c-2 14-12 22-19 15zM2029 3966c-1-3-2-9-3-13-1-5-5-13-9-20-4-6-3-14 3-18 5-3 11-4 11-1 1 3 2 9 3 14 1 4 5 12 9 19 4 6 3 14-3 18-5 3-11 4-11 1zM6956 3961c-4-5-2-12 4-16s8-10 5-15-1-11 4-14c5-4 12-2 15 3 4 5 2 12-4 16s-8 10-5 15 1 11-4 14c-5 4-12 2-15-3zM1975 3760c-4-6-3-16 3-22s12-6 17 2c4 6 3 16-3 22s-12 6-17-2zM7005 3760c-4-6-3-16 3-22s12-6 17 2c4 6 3 16-3 22s-12 6-17-2zM1945 3570c-4-6-3-16 3-22s12-6 17 2c4 6 3 16-3 22s-12 6-17-2zM7035 3570c-4-6-3-16 3-22s12-6 17 2c4 6 3 16-3 22s-12 6-17-2zM1934 3476c-4-10-2-22 4-28 8-8 13-7 18 6 4 10 2 22-4 28-8 8-13 7-18-6zM7044 3476c-4-10-2-22 4-28 8-8 13-7 18 6 4 10 2 22-4 28-8 8-13 7-18-6zM1934 3046c-4-10-2-22 4-28 8-8 13-7 18 6 4 10 2 22-4 28-8 8-13 7-18-6zM7044 3046c-4-10-2-22 4-28 8-8 13-7 18 6 4 10 2 22-4 28-8 8-13 7-18-6zM1945 2950c-4-6-3-16 3-22s12-6 17 2c4 6 3 16-3 22s-12 6-17-2zM7035 2950c-4-6-3-16 3-22s12-6 17 2c4 6 3 16-3 22s-12 6-17-2zM1975 2760c-4-6-3-16 3-22s12-6 17 2c4 6 3 16-3 22s-12 6-17-2zM7005 2760c-4-6-3-16 3-22s12-6 17 2c4 6 3 16-3 22s-12 6-17-2zM2016 2581c-4-5-2-12 4-16s8-10 5-15-1-11 4-14c5-4 12-2 15 3 4 5 2 12-4 16s-8 10-5 15 1 11-4 14c-5 4-12 2-15-3zM6969 2586c-1-3-2-9-3-13-1-5-5-13-9-20-4-6-3-14 3-18 5-3 11-4 11-1 1 3 2 9 3 14 1 4 5 12 9 19 4 6 3 14-3 18-5 3-11 4-11 1zM2047 2484c-4-4-3-12 1-18s7-14 8-18c1-5 3-10 4-13s4-9 5-15c1-5 4-12 5-15s3-9 4-15c0-5 4-10 9-10 7 0 8 4 6 15-1 3-3 10-4 15-1 6-4 12-5 15s-4 10-5 15c-1 6-4 12-5 15s-3 9-4 14c-2 14-12 22-19 15zM6939 2486c-1-3-2-9-3-13-1-5-5-14-9-20-5-7-5-13-1-13 3 0 1-7-6-15s-9-15-5-15 2-6-4-14c-8-10-9-16-1-21 5-3 11-4 11-1 4 16 7 26 9 31 1 3 4 10 5 15 1 6 4 12 5 15s3 8 4 13c1 4 5 12 9 19 4 6 3 14-3 18-5 3-11 4-11 1zM2137 2243c-4-6 0-18 7-28 8-11 16-14 19-8 4 6 0 18-7 28-8 11-16 14-19 8zM6840 2231c-6-12-6-22-1-26 6-3 15 3 21 14 6 12 6 22 1 26-6 3-15-3-21-14zM2187 2134c-9-10 22-66 33-59 6 4 4 18-5 36-17 31-18 32-28 23zM6785 2111c-9-18-11-32-5-36 5-3 16 8 25 24 9 18 11 32 5 36-5 3-16-8-25-24zM2257 2003c-4-6 0-18 7-28 8-11 16-14 19-8 4 6 0 18-7 28-8 11-16 14-19 8zM6720 1991c-6-12-6-22-1-26 6-3 15 3 21 14 6 12 6 22 1 26-6 3-15-3-21-14zM2436 1722c-3-6 1-15 8-21 8-7 17-8 20-3 3 6-1 15-8 21-8 7-17 8-20 3zM6541 1716c-7-8-8-17-3-20 6-3 15 1 21 8 7 8 8 17 3 20-6 3-15-1-21-8zM2516 1622c-3-6 1-15 8-21 8-7 17-8 20-3 3 6-1 15-8 21-8 7-17 8-20 3zM6461 1616c-7-8-8-17-3-20 6-3 15 1 21 8 7 8 8 17 3 20-6 3-15-1-21-8zM2566 1562c-3-5 5-19 18-31 13-13 26-18 30-13 3 5-5 19-18 31-13 13-26 18-30 13zM6401 1546c-13-13-18-26-13-30 5-3 19 5 31 18 13 13 18 26 13 30-5 3-19-5-31-18zM2766 1362c-3-5 5-19 18-31 13-13 26-18 30-13 3 5-5 19-18 31-13 13-26 18-30 13zM6201 1346c-13-13-18-26-13-30 5-3 19 5 31 18 13 13 18 26 13 30-5 3-19-5-31-18zM2846 1292c-3-6 1-15 8-21 8-7 17-8 20-3 3 6-1 15-8 21-8 7-17 8-20 3zM6131 1286c-7-8-8-17-3-20 6-3 15 1 21 8 7 8 8 17 3 20-6 3-15-1-21-8zM2946 1212c-3-6 1-15 8-21 8-7 17-8 20-3 3 6-1 15-8 21-8 7-17 8-20 3zM6031 1206c-7-8-8-17-3-20 6-3 15 1 21 8 7 8 8 17 3 20-6 3-15-1-21-8zM3215 1031c-3-6 3-15 14-21 12-6 22-6 26-1 3 6-3 15-14 21-12 6-22 6-26 1zM5755 1026c-11-8-14-16-8-19 6-4 18 0 28 7 11 8 14 16 8 19-6 4-18 0-28-7zM3325 970c-3-5 8-16 24-25 18-9 32-11 36-5 3 5-8 16-24 25-18 9-32 11-36 5zM5637 964c-38-20-24-38 14-19 16 9 27 20 24 25-7 12-4 13-38-6zM3455 911c-3-6 3-15 14-21 12-6 22-6 26-1 3 6-3 15-14 21-12 6-22 6-26 1zM5515 906c-11-8-14-16-8-19 6-4 18 0 28 7 11 8 14 16 8 19-6 4-18 0-28-7zM3625 840c-3-5-4-11-1-11 16-4 26-7 31-9 3-1 10-4 15-5 6-1 12-4 15-5s8-3 13-4c4-1 12-5 19-9 6-4 14-3 17 2 4 5 2 12-4 16-5 3-10 3-10-1 0-3-7-1-15 6s-15 9-15 5-7-2-15 5-15 9-15 5-6-2-14 4c-10 8-16 9-21 1zM5356 843c-4-5-12-9-17-9-5-1-11-3-14-4s-9-4-15-5c-5-1-12-4-15-5s-9-3-15-4c-5 0-10-4-10-8 0-8 4-9 15-7 3 1 10 3 15 4 6 1 12 4 15 5s10 4 15 5c6 1 12 4 15 5s10 3 15 4c10 1 15 14 8 22-3 2-8 1-12-3zM3786 791c-4-5-2-12 4-16 5-3 10-3 10 1 0 3 6 1 14-5 10-8 16-9 21-1 3 5 4 11 1 11-3 1-9 2-13 3-5 1-13 5-20 9-6 4-14 3-17-2zM5195 790c-4-6-10-8-15-5s-11 1-14-4c-4-5-2-12 3-15 5-4 12-2 16 4s10 8 15 5 11-1 14 4c4 5 2 12-3 15-5 4-12 2-16-4zM3985 741c-7-12 12-24 25-16 11 7 4 25-10 25-5 0-11-4-15-9zM4985 741c-7-12 12-24 25-16 11 7 4 25-10 25-5 0-11-4-15-9zM4175 711c-7-12 12-24 25-16 11 7 4 25-10 25-5 0-11-4-15-9zM4795 711c-7-12 12-24 25-16 11 7 4 25-10 25-5 0-11-4-15-9zM4265 700c-8-12 20-24 35-15 6 3 8 11 5 16-8 12-32 12-40-1zM4695 700c-8-12 20-24 35-15 6 3 8 11 5 16-8 12-32 12-40-1z"/></g><path d="M4265 2740c-17-19-17-26-6-88 16-92 52-161 115-224 70-69 135-105 225-120 80-14 104-7 109 31 5 34-13 48-72 54-76 8-146 41-199 95s-82 114-92 192c-4 30-12 61-17 68-15 18-42 15-63-8z" fill="#efb5a3"/><path d="M4765 3316c-27-7-63-19-80-25-49-20-127-73-118-81 4-5 58-10 118-12 78-2 120-9 144-21 19-9 39-17 44-17 29 0 197-140 197-164 0-5 7-17 16-27 23-26 63-146 70-214 6-57-8-169-25-204-5-9-17-36-28-61s-37-65-57-89c-51-61-35-74 46-35 124 58 243 200 278 333 18 70 14 196-10 272-77 250-349 407-595 345z" fill="#3f1e07"/><path d="M4541 3204c-247-66-411-314-373-563 52-341 436-536 735-373 259 141 347 474 189 718-119 183-347 273-551 218zm-210-526c17-153 147-282 306-303 52-7 68-21 53-45-6-9-26-11-72-8-178 15-331 170-346 353l-5 67 29-4c27-3 29-6 35-60z" fill="#d15322"/><g fill="#fff"><path d="M2604 4296c-3-8-4-27-2-43l3-28 830 2c457 1 846 1 865 1s428-3 907-6l872-7 23-23c33-32 33-112 0-144l-23-23-847-5-847-5v-80l840-5c652-4 845-8 862-18 32-18 49-80 33-126-6-19-17-39-23-43-7-5-374-10-817-13l-805-5v-130l760-3c789-3 828-2 905 38 71 37 139 117 165 195 22 63 23 174 2 245-30 103-138 207-237 229-29 7-636 11-1753 11-1464 0-1708-2-1713-14zM2604 4006c-3-8-4-27-2-43l3-28h560l3 28c7 56 4 57-290 57-222 0-270-2-274-14z"/><path d="M3314 4006c-3-8-4-27-2-43l3-28h900v80l-448 3c-380 2-448 0-453-12zM3775 3720l-350-5v-120h790v130h-45c-25 1-202-2-395-5zM2604 3706c-3-7-4-35-2-62l3-49h560v120l-278 3c-230 2-278 0-283-12z"/></g><g fill="#efc84a"><path d="M2597 4233c-10-10-8-221 2-227 4-3 134-6 287-6l279-1 6 41c7 51 20 64 64 64s57-13 64-64l6-41 449 1c247 0 452 3 457 6s9 44 9 92c0 61 5 94 15 108 8 12 11 24 8 28-9 8-1638 8-1646-1zM4357 4233c-4-3-1-13 6-21 7-9 14-57 17-111l5-96 843-3 842-2 38 34c34 31 37 39 37 86s-3 55-37 86l-38 34h-853c-470 0-857-3-860-7zM2604 3937c-2-7-3-62-2-123l3-109h560v240l-278 3c-224 2-278 0-283-11zM3310 3930c-14-26-9-82 7-88 7-2 17 8 23 23 8 22 15 26 42 23l33-3 5-90 5-90 326-3c179-1 357 1 395 5l69 8v230l-447 3c-442 2-447 2-458-18zM4384 3935c-11-28 4-45 40-45 41 0 44-7 48-110l3-65 803-3 803-2 29 28c59 59 43 158-30 194-32 17-95 18-863 18-726 0-828-2-833-15z"/></g><g fill="#5b2b0b"><path d="M2569 4507c-38-26-64-84-55-122 4-14 19-40 35-58l29-32 1749-5 1748-5 46-21c174-81 240-313 141-497-30-56-64-87-136-125l-51-27-792-3-793-3v128c0 145-10 173-60 173h-29l-3 145c-3 140-4 145-29 170-14 14-42 28-62 32-32 5-41 1-72-30l-35-35v-582h-760v133c0 117-2 136-18 150-24 22-60 22-85 0-20-18-20-17-14 37 8 75-5 147-31 173-32 32-88 29-118-7-24-27-24-30-24-257v-229h-559l-35-31c-45-39-55-85-30-133 12-22 288-264 754-662 404-345 793-677 864-737l128-111 117-9c145-13 366 3 536 38 534 108 1021 451 1317 927 198 319 311 731 295 1086-6 140-26 205-94 305-79 117-208 204-342 233-55 11-348 14-1782 14H2603l-34-23zm2424-1212c226-59 368-240 368-471 1-44-5-100-11-124-20-73-69-160-122-216s-182-132-193-114c-4 6-22-3-46-23-239-205-619-130-754 147-137 281 11 614 306 689 32 9 54 20 54 28 0 18 100 68 167 84 73 18 163 18 231 0z"/><path d="M4745 3210c-3-5-3-11 2-12 4 0 13-2 18-3 6-1 23-7 39-14 20-8 33-8 39-2 11 11-38 35-53 26-5-3-11-1-15 5-8 13-22 13-30 0zM4876 3171c-3-5 5-16 19-25 24-16 45-6 22 11-24 19-36 23-41 14zM4956 3122c-3-6 1-15 8-21 8-7 17-8 20-3 3 6-1 15-8 21-8 7-17 8-20 3zM5056 3022c-3-6 1-15 8-21 8-7 17-8 20-3 3 6-1 15-8 21-8 7-17 8-20 3zM5097 2964c-9-10 22-66 33-59 6 4 4 18-5 36-17 31-18 32-28 23zM5145 2830c-4-6-3-16 3-22s12-6 17 2c4 6 3 16-3 22s-12 6-17-2zM5155 2768c-9-24-1-113 10-111 14 4 19 103 6 116-7 7-12 5-16-5zM5145 2620c-4-6-4-14-1-17s1-12-5-19-8-18-4-24c9-14 28-1 21 15-2 7 1 18 7 24 8 8 8 14 0 22s-13 8-18-1zM5087 2470c-19-33-31-62-27-65 9-6 38 31 64 82 29 58-1 44-37-17z"/></g><g fill="#df5b49"><path d="M4287 5810c-629-57-1186-322-1627-776-384-395-617-866-701-1415-31-205-31-533 0-738 84-549 317-1020 701-1415 405-416 896-669 1471-757 205-31 533-31 738 0 575 88 1066 341 1471 757 384 395 617 866 701 1415 18 116 22 188 22 369s-4 253-22 369c-84 549-317 1020-701 1415-404 415-903 673-1466 756-160 23-442 33-587 20zm1814-1314c178-38 329-170 390-341 43-119 36-388-16-631-144-683-644-1246-1310-1474-229-78-512-118-744-105-68 4-132 10-141 13-17 7-1587 1343-1692 1441-74 68-75 140-3 183l36 21-4 351-4 351-27 13c-15 8-34 29-43 47-22 46-5 108 35 129 40 22 3421 23 3523 2z"/><path d="M4261 2746c-7-8-8-17-3-20 6-3 15 1 21 8 7 8 8 17 3 20-6 3-15-1-21-8zM4324 2727c-7-20-2-47 11-50 14-3 19 43 6 56-7 7-12 6-17-6zM4254 2666c-4-9-1-22 5-30 6-7 8-16 5-19s-2-12 2-19c5-7 9-16 9-20 0-5 3-8 8-8h14c4 0 2 5-4 11s-9 17-7 24c3 7 1 16-4 19-6 3-8 15-5 25 6 23-15 38-23 17zM4335 2641c-6-11 17-72 41-109 26-40 32-14 8 35-13 25-24 52-24 59 0 17-17 27-25 15zM4336 2472c-3-5 3-17 13-26 11-10 22-13 25-8s-3 17-13 26c-11 10-22 13-25 8zM4465 2451c-2-5 1-13 8-19 21-16 77-43 77-36 0 4 6 1 14-5 9-8 16-8 20-2 4 5 2 12-4 16-5 3-10 4-10 1s-22 8-50 24c-27 16-52 25-55 21zM4386 2422c-3-5 3-17 13-26 11-10 22-13 25-8s-3 17-13 26c-11 10-22 13-25 8zM4605 2390c-8-12 20-24 35-15 6 3 8 11 5 16-8 12-32 12-40-1zM4465 2361c-3-6 3-15 14-21 12-6 22-6 26-1 3 6-3 15-14 21-12 6-22 6-26 1zM4535 2331c-6-11 13-26 22-17 3 3 12 1 19-5 17-14 48-4 39 12-4 6-16 9-26 6s-22-1-25 4c-7 12-21 12-29 0z"/></g><path d="M0 3250V0h9000v6500H0V3250zm4817 2535c824-108 1527-584 1920-1300 213-387 313-781 313-1235s-100-848-313-1235c-355-647-989-1116-1707-1265-334-69-726-69-1060 0-718 149-1352 618-1707 1265-213 387-313 781-313 1235s100 848 313 1235c392 713 1090 1187 1913 1299 141 20 495 20 641 1z" fill="#1fa3b5"/></svg>