<!DOCTYPE svg PUBLIC "-//W3C//DTD SVG 20010904//EN" "http://www.w3.org/TR/2001/REC-SVG-20010904/DTD/svg10.dtd"><svg version="1" xmlns="http://www.w3.org/2000/svg" width="900" height="650" viewBox="0 0 9000 6500"><g fill="#bf918d"><path d="M2801 4826c-7-8-8-17-3-20 6-3 15 1 21 8 7 8 8 17 3 20-6 3-15-1-21-8zM2775 4780c-4-6-3-16 3-22s12-6 17 2c4 6 3 16-3 22s-12 6-17-2zM2774 4717c-7-20-2-47 11-50 14-3 19 43 6 56-7 7-12 6-17-6zM6204 4707c-7-20-2-47 11-50 14-3 19 43 6 56-7 7-12 6-17-6zM2784 4577c-7-20-2-47 11-50 14-3 19 43 6 56-7 7-12 6-17-6zM6194 4567c-7-20-2-47 11-50 14-3 19 43 6 56-7 7-12 6-17-6zM2794 4437c-7-20-2-47 11-50 14-3 19 43 6 56-7 7-12 6-17-6zM6184 4417c-7-20-2-47 11-50 14-3 19 43 6 56-7 7-12 6-17-6zM2804 4287c-7-20-2-47 11-50 14-3 19 43 6 56-7 7-12 6-17-6zM6174 4277c-7-20-2-47 11-50 14-3 19 43 6 56-7 7-12 6-17-6zM2934 3557c-2-7-1-37 3-67l8-55 60-6c70-7 115-28 139-64 26-40 38-21 33 55-4 63-7 70-39 99-19 17-47 35-62 41-39 15-136 13-142-3zM3655 3558c-55-30-115-114-115-161 0-17-3-16-31 7-28 24-43 30-52 24-2-2-11 3-20 11-9 7-24 11-33 7-19-7-8-28 14-24 20 2 73-24 91-46 7-9 18-13 24-9s8-2 5-14c-6-24 9-56 23-48 5 4 18 24 30 46 44 88 219 109 289 34 28-30 40-24 40 18 0 83-11 108-58 138-40 25-56 29-116 29-39 0-80-6-91-12zM5138 3541c-45-29-46-31-53-94-9-83-1-97 34-63 77 74 246 55 292-33 28-53 36-57 53-23 10 19 12 33 6 37-6 3-10 17-10 30 0 27-31 88-63 124-32 35-79 51-150 51-53 0-71-5-109-29zM5921 3559c-13-5-40-23-59-40-32-29-35-36-39-99-5-76 7-95 33-55 24 36 69 57 139 64l60 6 9 52c13 76 7 83-61 82-32 0-69-5-82-10zM2864 3457c-7-20-2-47 11-50 14-3 19 43 6 56-7 7-12 6-17-6zM6114 3446c-8-21 3-49 16-41 5 3 10 15 10 25 0 25-18 36-26 16zM3302 3438c-6-6-12-9-12-5s-9 3-20-3-18-15-15-21c4-5 15-4 28 3 12 6 30 12 39 12 10 1 18 6 18 11 1 15-24 17-38 3zM5562 3438c-6-6-12-9-12-5s-9 3-20-3-18-15-15-21c4-5 15-4 28 3 12 6 30 12 39 12 10 1 18 6 18 11 1 15-24 17-38 3zM5655 3440c-6-10 15-23 31-18 5 1 19-3 31-10 13-7 24-8 28-3 3 6-4 15-15 21s-20 7-20 3-5-2-12 5c-15 15-35 16-43 2zM6156 3372c-3-6 1-15 9-22s13-16 10-20c-3-5-1-11 4-14 5-4 12-2 15 3 4 5 2 12-4 16s-8 10-5 15c3 4-2 13-9 19-8 7-17 8-20 3zM5787 3363c-4-6 0-18 7-28 8-11 16-14 19-8 4 6 0 18-7 28-8 11-16 14-19 8zM3174 3296c-4-10-2-22 4-28 8-8 13-7 18 6 4 10 2 22-4 28-8 8-13 7-18-6zM4986 1071c-10-11-13-22-8-25s17 3 26 13c10 11 13 22 8 25s-17-3-26-13z"/></g><g fill="#6b1912"><path d="M3975 4371c-6-6-8-54-4-128 34-640 43-781 50-800 7-20 13-21 81-16 63 4 79 1 117-19 27-14 52-36 62-57 28-54 37-58 49-25 26 67 86 104 170 104s144-37 170-104c12-33 21-29 49 25 10 21 35 43 62 57 38 20 54 23 116 19 50-4 75-2 80 6 4 7 19 217 34 467 20 343 23 458 15 468-10 10-59 10-241 1-211-10-521-7-720 7-50 4-84 2-90-5zM4612 1128c-16-16-15-81 0-96 14-14 154-17 163-3 3 6-20 27-52 49-86 58-98 63-111 50z"/></g><g fill="#848484"><path d="M4285 5814c-16-2-70-9-120-15-159-19-441-86-474-113-8-6-17-11-20-11s-5-3-4-6c1-4-173-177-387-385s-386-382-384-386c3-4 22 0 42 9 83 37 265 93 397 122 349 76 581 96 1160 96 585 0 823-20 1170-96 233-51 396-110 481-175 17-12 41-44 53-69l21-45 104 77c57 43 112 83 122 89 16 9 2 26-117 145-150 151-252 236-414 344-307 205-653 338-1042 401-93 15-516 28-588 18zM3575 5651c-7-12 12-24 25-16 11 7 4 25-10 25-5 0-11-4-15-9zM3525 5631c-7-12 12-24 25-16 11 7 4 25-10 25-5 0-11-4-15-9zM3347 5549c-21-11-35-24-32-29 4-6 23-1 46 10 22 12 37 25 34 30-7 12-2 13-48-11zM2886 5251c-10-11-13-22-8-25s17 3 26 13c10 11 13 22 8 25s-17-3-26-13zM2826 5201c-10-11-13-22-8-25s17 3 26 13c10 11 13 22 8 25s-17-3-26-13zM2731 5116c-18-19-29-36-23-39 5-4 23 9 41 27 18 19 29 36 23 39-5 4-23-9-41-27zM2631 5016c-18-19-29-36-23-39 5-4 23 9 41 27 18 19 29 36 23 39-5 4-23-9-41-27zM2546 4921c-10-11-13-22-8-25s17 3 26 13c10 11 13 22 8 25s-17-3-26-13zM2496 4861c-10-11-13-22-8-25s17 3 26 13c10 11 13 22 8 25s-17-3-26-13zM6476 4872c-3-5 3-17 13-26 11-10 22-13 25-8s-3 17-13 26c-11 10-22 13-25 8zM2200 4401c-11-23-16-42-10-46 5-3 18 12 30 34 11 23 16 42 10 46-5 3-18-12-30-34zM6767 4434c-9-10 32-86 43-79 6 4 1 23-10 46-22 41-23 43-33 33zM2079 4116c-1-3-2-9-3-13-1-5-8-19-15-31-7-13-10-26-7-29 3-4 1-12-5-19-7-8-7-14 1-19 5-3 11-4 11-1 3 13 6 22 13 38 4 9 8 22 10 30 1 7 5 18 9 25 4 6 3 14-3 18-5 3-11 4-11 1zM6907 4114c-4-4-3-12 0-18 4-6 8-17 9-24 2-8 6-21 10-30s8-20 8-24c1-5 4-8 9-8h13c4 0 1 6-5 13-6 8-8 16-5 20 3 3 0 16-7 29-7 12-13 26-14 30 0 11-11 18-18 12zM1985 3800c-4-6-3-16 3-22s12-6 17 2c4 6 3 16-3 22s-12 6-17-2zM6995 3800c-4-6-3-16 3-22s12-6 17 2c4 6 3 16-3 22s-12 6-17-2zM1975 3750c-4-6-3-16 3-22s12-6 17 2c4 6 3 16-3 22s-12 6-17-2zM7005 3750c-4-6-3-16 3-22s12-6 17 2c4 6 3 16-3 22s-12 6-17-2zM1965 3690c-4-6-3-16 3-22s12-6 17 2c4 6 3 16-3 22s-12 6-17-2zM7015 3690c-4-6-3-16 3-22s12-6 17 2c4 6 3 16-3 22s-12 6-17-2zM1955 3630c-4-6-3-16 3-22s12-6 17 2c4 6 3 16-3 22s-12 6-17-2zM7025 3630c-4-6-3-16 3-22s12-6 17 2c4 6 3 16-3 22s-12 6-17-2zM1944 3556c-4-10-2-22 4-28 8-8 13-7 18 6 4 10 2 22-4 28-8 8-13 7-18-6zM7034 3556c-4-10-2-22 4-28 8-8 13-7 18 6 4 10 2 22-4 28-8 8-13 7-18-6zM1934 3446c-8-21 3-49 16-41 5 3 10 15 10 25 0 25-18 36-26 16zM7044 3446c-8-21 3-49 16-41 5 3 10 15 10 25 0 25-18 36-26 16zM1934 3086c-8-21 3-49 16-41 5 3 10 15 10 25 0 25-18 36-26 16zM7044 3086c-8-21 3-49 16-41 5 3 10 15 10 25 0 25-18 36-26 16zM1944 2966c-4-10-2-22 4-28 8-8 13-7 18 6 4 10 2 22-4 28-8 8-13 7-18-6zM7034 2966c-4-10-2-22 4-28 8-8 13-7 18 6 4 10 2 22-4 28-8 8-13 7-18-6zM1955 2890c-4-6-3-16 3-22s12-6 17 2c4 6 3 16-3 22s-12 6-17-2zM7025 2890c-4-6-3-16 3-22s12-6 17 2c4 6 3 16-3 22s-12 6-17-2zM1965 2830c-4-6-3-16 3-22s12-6 17 2c4 6 3 16-3 22s-12 6-17-2zM7015 2830c-4-6-3-16 3-22s12-6 17 2c4 6 3 16-3 22s-12 6-17-2zM1975 2770c-4-6-3-16 3-22s12-6 17 2c4 6 3 16-3 22s-12 6-17-2zM7005 2770c-4-6-3-16 3-22s12-6 17 2c4 6 3 16-3 22s-12 6-17-2zM1985 2720c-4-6-3-16 3-22s12-6 17 2c4 6 3 16-3 22s-12 6-17-2zM6995 2720c-4-6-3-16 3-22s12-6 17 2c4 6 3 16-3 22s-12 6-17-2zM2046 2491c-4-5-2-12 3-16 6-3 8-12 5-19-7-17 12-30 21-16 4 6 2 17-4 24s-8 15-5 18 1 9-5 12c-5 4-12 2-15-3zM6939 2496c-3-13-6-22-13-38-4-9-8-22-10-30-1-7-5-18-9-25-4-6-3-14 3-18 5-3 11-4 11-1 1 3 2 9 3 14 1 4 8 18 15 30 7 13 10 26 7 29-3 4-1 12 5 19 7 8 7 14-1 19-5 3-11 4-11 1zM2476 1672c-3-5 3-17 13-26 11-10 22-13 25-8s-3 17-13 26c-11 10-22 13-25 8zM6496 1661c-10-11-13-22-8-25s17 3 26 13c10 11 13 22 8 25s-17-3-26-13zM6451 1606c-7-8-8-17-3-20 6-3 15 1 21 8 7 8 8 17 3 20-6 3-15-1-21-8zM4476 1373c-8-8-8-598 1-606 3-4 11-3 17 2s16 10 21 10c6 1 10 11 10 24 0 12-5 21-12 19-10-1-13 24-13 103s3 104 13 102c9-1 12 37 12 168 0 107-4 170-10 170-5 0-15 3-21 7s-14 5-18 1zM6146 1301c-10-11-13-22-8-25s17 3 26 13c10 11 13 22 8 25s-17-3-26-13zM2886 1262c-3-5 3-17 13-26 11-10 22-13 25-8s-3 17-13 26c-11 10-22 13-25 8zM6086 1251c-10-11-13-22-8-25s17 3 26 13c10 11 13 22 8 25s-17-3-26-13zM3685 821c-7-12 12-24 24-16 5 3 12 1 16-5s11-8 16-4c5 3 7 10 3 15-3 5-9 7-14 4s-11-1-15 5c-8 13-22 13-30 1zM5286 823c-4-5-12-8-17-8s-9-3-9-7c0-8 3-9 18-7 4 1 12 2 17 3 13 1 19 20 8 23-5 2-13 0-17-4zM3945 751c-7-12 12-24 25-16 11 7 4 25-10 25-5 0-11-4-15-9zM5025 751c-7-12 12-24 25-16 11 7 4 25-10 25-5 0-11-4-15-9zM3995 741c-7-12 12-24 25-16 11 7 4 25-10 25-5 0-11-4-15-9zM4975 741c-7-12 12-24 25-16 11 7 4 25-10 25-5 0-11-4-15-9zM4055 731c-7-12 12-24 25-16 11 7 4 25-10 25-5 0-11-4-15-9zM4915 731c-7-12 12-24 25-16 11 7 4 25-10 25-5 0-11-4-15-9zM4115 721c-7-12 12-24 25-16 11 7 4 25-10 25-5 0-11-4-15-9zM4855 721c-7-12 12-24 25-16 11 7 4 25-10 25-5 0-11-4-15-9zM4185 710c-8-12 20-24 35-15 6 3 8 11 5 16-8 12-32 12-40-1zM4775 710c-8-12 20-24 35-15 6 3 8 11 5 16-8 12-32 12-40-1zM4295 700c-8-13 20-24 41-16 20 8 9 26-16 26-10 0-22-5-25-10zM4655 700c-8-13 20-24 41-16 20 8 9 26-16 26-10 0-22-5-25-10z"/></g><g fill="#babbbb"><path d="M3670 5683c-16-5-96-35-162-62-47-19-255-122-293-146-22-13-56-33-75-44-93-50-332-242-453-362-118-117-348-407-380-479-4-8-18-33-32-55-23-38-104-198-138-275-28-63-28-63 38-61 33 2 193 4 355 4l295 2-1 55c-1 30-5 96-9 145-3 50-8 115-10 145s-6 92-10 137c-7 103 5 130 80 179 30 19 54 38 52 43-1 4 126 133 283 286 430 419 493 482 484 487-5 3-16 3-24 1zM3725 5110c-8-12 20-24 35-15 6 3 8 11 5 16-8 12-32 12-40-1zM5235 5110c-8-12 20-24 35-15 6 3 8 11 5 16-8 12-32 12-40-1zM3635 5100c-8-13 20-24 41-16 20 8 9 26-16 26-10 0-22-5-25-10zM5325 5100c-8-12 20-24 35-15 6 3 8 11 5 16-8 12-32 12-40-1zM3565 5090c-8-12 20-24 35-15 6 3 8 11 5 16-8 12-32 12-40-1zM5395 5090c-8-12 20-24 35-15 6 3 8 11 5 16-8 12-32 12-40-1zM3505 5081c-7-12 12-24 25-16 11 7 4 25-10 25-5 0-11-4-15-9zM5465 5081c-7-12 12-24 25-16 11 7 4 25-10 25-5 0-11-4-15-9zM3445 5071c-7-12 12-24 25-16 11 7 4 25-10 25-5 0-11-4-15-9zM5525 5071c-7-12 12-24 25-16 11 7 4 25-10 25-5 0-11-4-15-9zM6327 4840c-58-43-108-84-112-90s-9-39-11-73c-1-34-6-96-9-137-11-154-17-236-18-285l-2-50 285-2c157-1 317-2 355-4 77-2 77-2 48 61-34 77-115 237-138 275-14 22-28 47-32 55-13 30-123 187-168 239-25 29-50 62-56 72-5 10-16 19-23 19s-60-36-119-80zM2085 4140c-4-6-4-14-1-17s1-12-5-19c-6-8-6-14 0-18 5-4 12-2 16 4 3 5 3 10-1 10-3 0-1 7 6 15 9 11 10 19 3 26-8 8-13 7-18-1zM6895 4140c-4-6-1-18 7-27 7-9 12-18 11-20-2-1-1-3 2-3h12c4 0 2 5-4 11s-9 17-7 24c7 16-12 29-21 15zM2035 3990c-4-6-3-16 3-22s12-6 17 2c4 6 3 16-3 22s-12 6-17-2zM6945 3990c-4-6-3-16 3-22s12-6 17 2c4 6 3 16-3 22s-12 6-17-2zM1995 3830c-4-6-3-16 3-22s12-6 17 2c4 6 3 16-3 22s-12 6-17-2zM6985 3830c-4-6-3-16 3-22s12-6 17 2c4 6 3 16-3 22s-12 6-17-2zM1955 3610c-4-6-3-16 3-22s12-6 17 2c4 6 3 16-3 22s-12 6-17-2zM7025 3610c-4-6-3-16 3-22s12-6 17 2c4 6 3 16-3 22s-12 6-17-2zM1944 3526c-4-10-2-22 4-28 8-8 13-7 18 6 4 10 2 22-4 28-8 8-13 7-18-6zM7034 3526c-4-10-2-22 4-28 8-8 13-7 18 6 4 10 2 22-4 28-8 8-13 7-18-6zM3315 3441c-45-11-69-27-103-65-39-45-44-99-40-424l3-244 189 2c104 0 193 3 198 6 4 3 8 135 8 293 0 227-3 296-14 322-15 35-56 79-92 97-29 15-113 22-149 13zM4034 3431c-49-22-88-70-103-126-7-24-11-145-11-306 0-215 3-269 14-278 9-8 70-11 197-9l184 3v622l-29 37c-36 48-96 76-161 76-27 0-69-9-91-19zM4784 3431c-23-10-54-36-70-57l-29-37v-622l184-3c127-2 188 1 197 9 11 9 14 63 14 278 0 161-4 282-11 306-24 89-99 145-194 145-27 0-69-9-91-19zM5575 3441c-62-16-95-41-120-91l-25-50 2-292 3-293h390l3 280c2 179-1 293-8 317-13 44-52 93-90 113-34 18-116 26-155 16zM1934 3407c-7-20-2-47 11-50 14-3 19 43 6 56-7 7-12 6-17-6zM7044 3407c-7-20-2-47 11-50 14-3 19 43 6 56-7 7-12 6-17-6zM1934 3137c-7-20-2-47 11-50 14-3 19 43 6 56-7 7-12 6-17-6zM7044 3137c-7-20-2-47 11-50 14-3 19 43 6 56-7 7-12 6-17-6zM1944 2996c-4-10-2-22 4-28 8-8 13-7 18 6 4 10 2 22-4 28-8 8-13 7-18-6zM7034 2996c-4-10-2-22 4-28 8-8 13-7 18 6 4 10 2 22-4 28-8 8-13 7-18-6zM1955 2910c-4-6-3-16 3-22s12-6 17 2c4 6 3 16-3 22s-12 6-17-2zM7025 2910c-4-6-3-16 3-22s12-6 17 2c4 6 3 16-3 22s-12 6-17-2zM2035 2530c-4-6-3-16 3-22s12-6 17 2c4 6 3 16-3 22s-12 6-17-2zM6945 2530c-4-6-3-16 3-22s12-6 17 2c4 6 3 16-3 22s-12 6-17-2zM6895 2380c-4-6-3-16 3-22s12-6 17 2c4 6 3 16-3 22s-12 6-17-2zM2115 2300c-4-6-3-16 3-22s12-6 17 2c4 6 3 16-3 22s-12 6-17-2zM6865 2300c-4-6-3-16 3-22s12-6 17 2c4 6 3 16-3 22s-12 6-17-2zM2187 2144c-9-10 32-86 43-79 6 4 1 23-10 46-22 41-23 43-33 33zM6780 2111c-11-23-16-42-10-46 5-3 18 12 30 34 11 23 16 42 10 46-5 3-18-12-30-34zM2306 1922c-3-5 2-20 12-33 24-29 36-11 13 20-11 14-21 19-25 13zM6666 1905c-16-24-6-45 11-22 19 24 23 36 14 41-5 3-16-5-25-19zM2426 1742c-3-6 1-15 8-21 8-7 17-8 20-3 3 6-1 15-8 21-8 7-17 8-20 3zM6551 1736c-7-8-8-17-3-20 6-3 15 1 21 8 7 8 8 17 3 20-6 3-15-1-21-8zM2456 1702c-3-6 1-15 8-21 8-7 17-8 20-3 3 6-1 15-8 21-8 7-17 8-20 3zM6521 1696c-7-8-8-17-3-20 6-3 15 1 21 8 7 8 8 17 3 20-6 3-15-1-21-8zM2546 1592c-3-6 1-15 8-21 8-7 17-8 20-3 3 6-1 15-8 21-8 7-17 8-20 3zM6431 1586c-7-8-8-17-3-20 6-3 15 1 21 8 7 8 8 17 3 20-6 3-15-1-21-8zM2647 1483c-4-6 13-29 37-52 24-24 46-39 49-34 4 6-13 29-37 52-24 24-46 39-49 34zM6301 1446c-24-24-39-46-34-49 6-4 29 13 52 37 24 24 39 46 34 49-6 4-29-13-52-37zM2816 1322c-3-6 1-15 8-21 8-7 17-8 20-3 3 6-1 15-8 21-8 7-17 8-20 3zM2926 1232c-3-6 1-15 8-21 8-7 17-8 20-3 3 6-1 15-8 21-8 7-17 8-20 3zM6051 1226c-7-8-8-17-3-20 6-3 15 1 21 8 7 8 8 17 3 20-6 3-15-1-21-8zM2966 1202c-3-6 1-15 8-21 8-7 17-8 20-3 3 6-1 15-8 21-8 7-17 8-20 3zM6011 1196c-7-8-8-17-3-20 6-3 15 1 21 8 7 8 8 17 3 20-6 3-15-1-21-8zM3126 1091c-6-8 5-20 31-35 23-13 22 12-2 28-13 9-26 12-29 7zM5841 1081c-14-11-19-21-13-25 5-3 20 2 33 12 29 24 11 36-20 13zM3315 980c-3-5 12-18 34-30 23-11 42-16 46-10 3 5-12 18-34 30-23 11-42 16-46 10zM5637 969c-21-11-35-24-32-29 4-6 23-1 46 10 22 12 37 25 34 30-7 12-2 13-48-11zM3525 881c-7-12 12-24 25-16 11 7 4 25-10 25-5 0-11-4-15-9zM5445 881c-7-12 12-24 25-16 11 7 4 25-10 25-5 0-11-4-15-9zM3755 801c-7-12 12-24 25-16 11 7 4 25-10 25-5 0-11-4-15-9zM5215 801c-7-12 12-24 25-16 11 7 4 25-10 25-5 0-11-4-15-9zM4495 776c-14-10-15-15-6-21 8-4 19-1 28 8 20 19 1 30-22 13zM4135 721c-7-12 12-24 25-16 11 7 4 25-10 25-5 0-11-4-15-9zM4835 721c-7-12 12-24 25-16 11 7 4 25-10 25-5 0-11-4-15-9zM4215 710c-8-12 20-24 35-15 6 3 8 11 5 16-8 12-32 12-40-1zM4745 710c-8-12 20-24 35-15 6 3 8 11 5 16-8 12-32 12-40-1zM4335 701c-7-13 17-24 40-19 9 1 16 8 16 13 0 14-48 19-56 6zM4605 701c-7-13 17-24 40-19 9 1 16 8 16 13 0 14-48 19-56 6z"/></g><g fill="#aa3121"><path d="M4042 5140c-56-3-107-11-112-16-7-7-4-126 10-363 12-194 22-382 23-417 2-68 22-87 22-21v37l130-7c163-10 561-10 765-1 153 6 155 7 157 30 13 120 41 734 34 741-23 23-742 36-1029 17zM5014 4326c-8-21 3-49 16-41 5 3 10 15 10 25 0 25-18 36-26 16zM3975 4157c-9-22-2-62 10-60 6 1 11 14 13 29 4 32-14 56-23 31zM5004 4157c-7-20-2-47 11-50 14-3 19 43 6 56-7 7-12 6-17-6zM3985 3998c-9-22-2-68 10-71 14-3 19 63 6 76-7 7-12 5-16-5zM4994 3977c-7-20-2-47 11-50 14-3 19 43 6 56-7 7-12 6-17-6zM3995 3818c-9-22-2-68 10-71 14-3 19 63 6 76-7 7-12 5-16-5zM4984 3796c-8-21 3-49 16-41 5 3 10 15 10 25 0 25-18 36-26 16zM4005 3627c-9-22-2-62 10-60 6 1 11 14 13 29 4 32-14 56-23 31zM4974 3627c-7-20-2-47 11-50 14-3 19 43 6 56-7 7-12 6-17-6zM2891 3549c-33-20-34-21-27-75 6-51 4-57-26-95l-33-41v-623h380l5 307c5 290 6 308 26 334 37 51 70 68 138 72 80 5 147-21 171-67 23-46 35-29 35 48 0 64-1 68-37 103-53 50-73 58-148 58-78 0-124-18-160-64-14-17-32-38-40-47s-15-31-15-49v-33l-23 21c-31 30-89 52-135 52h-39l-9 57c-5 31-13 58-19 60-5 1-25-6-44-18zM5540 3559c-63-25-100-85-100-161v-53l-27 34c-64 81-218 96-291 29l-24-23 4 49c3 54-15 75-31 34-7-16-10-18-10-6-1 22-69 91-82 83-5-4-9-24-9-46s-4-49-10-59c-8-15-4-22 25-38 67-40 69-53 75-387l5-300h380v312c0 171 3 309 7 307s15 9 25 26c28 48 91 73 168 68 69-4 101-21 139-72 20-26 21-44 26-334l5-307h380v623l-32 40c-30 37-31 43-26 95 6 55 5 56-28 76-52 32-53 32-64-51l-6-48h-40c-46 0-104-22-136-52l-23-21v33c0 18-7 40-15 49s-26 30-40 47c-14 18-40 39-59 48-38 18-146 21-186 5zM3993 3532c-12-9-30-32-41-50-18-31-20-32-25-11-3 12-11 19-19 17-9-3-12-20-9-54l3-49-24 23c-63 58-204 55-271-6-11-9-28-34-38-54-18-35-19-59-17-335l3-298h380l5 300c6 334 8 347 75 386 30 18 33 23 24 45-5 14-9 40-9 59 0 42-9 48-37 27zM4415 3436c-38-17-90-72-104-109-16-42-15-589 1-605 8-8 64-12 188-12s180 4 188 12c16 16 17 563 1 605-14 38-67 92-106 109-41 18-129 17-168 0zM4605 1139c-8-12 0-22 21-25 16-3 114-63 114-71 0-2-30-3-67-2-53 2-68-1-68-12s20-15 92-17l92-3 3-37 3-37 139-3c77-1 143 1 148 6s-14 28-46 53c-30 24-55 47-56 50 0 3 24 26 54 49 30 24 53 47 50 52-8 13-472 10-479-3z"/></g><g fill="#e45136"><path d="M3825 5123c-16-3-34-8-38-13-5-4 17-369 48-811 50-712 59-809 77-846 11-24 22-43 24-43s11 17 19 38c9 20 29 51 44 67l28 30-23 415c-13 228-32 581-44 784-11 202-23 372-26 377-5 9-53 10-109 2zM5066 5122c-3-6-15-174-26-374-11-199-31-552-44-783l-24-420 33-33c19-18 37-46 40-62 10-45 21-44 43 2 19 38 27 131 77 847 31 442 53 807 48 812-13 13-139 23-147 11zM3310 5044c-132-30-249-65-256-75-2-4 18-329 46-721s51-734 51-761c1-35 6-50 19-57 15-8 22-2 42 37 31 62 71 83 161 83 76 0 114-15 145-57 19-26 21-26 28-9 9 23-94 1532-107 1564-10 26 1 26-129-4zM5562 5047c-12-33-116-1543-107-1564 6-16 9-15 27 11 29 39 75 56 150 56 84 0 126-22 156-83 20-40 27-45 42-37 13 7 19 21 19 48 0 20 22 358 50 749 28 392 51 720 51 728 0 20-27 30-185 70-195 49-194 49-203 22zM2809 4829c-28-36-33-49-32-93 1-48 37-593 47-716 3-30 10-145 17-255s16-210 20-223l9-23 40 21c22 11 40 26 40 33 0 81-92 1283-99 1290-5 5-23-10-42-34zM6145 4859c-3-10-95-1253-95-1294 0-2 18-14 40-25l40-21 9 23c8 20 18 142 47 613 3 44 13 199 24 345 20 290 19 299-35 350-19 18-26 20-30 9zM3747 2730c-103-3-188-7-190-10-1-3 190-282 424-620 438-633 443-640 436-640-4 0-1072 1099-1188 1222l-45 48-187-2c-118-2-186-7-185-13 1-5 366-303 811-662 784-632 809-652 831-637 21 13 25 13 37-2 11-13 15-13 23-2 6 7 17 13 25 13 17 0 911 1286 902 1297-3 4-91 8-195 8l-188 2-42-104c-188-459-490-1188-492-1185-1 1 37 290 86 642s87 641 85 643c-1 2-90 3-196 3h-194l3-33c1-18 41-305 88-637 46-333 83-608 82-612-2-5-341 803-499 1193-20 48-38 89-40 91-2 1-88 0-192-3zM5183 2074c-348-361-630-660-627-665s13-4 23 3c83 59 1618 1304 1615 1310-3 5-89 8-192 8h-187l-632-656zM4504 1027c-2-7-3-58-2-113l3-99 139-3c93-2 143 1 152 9 19 15 20 198 2 203-7 3-75 7-151 10-110 5-138 4-143-7z"/></g><g fill="#eff3f3"><path d="M3630 5099c-74-10-151-22-170-27-33-8-35-10-32-47 24-384 104-1513 109-1550 5-27 12-49 18-49 5 1 19 19 30 40 32 61 75 84 158 84 57 0 78-5 113-25 25-15 45-21 49-15 6 9-102 1574-110 1598-5 14 5 15-165-9zM5205 5107c-8-23-115-1589-109-1598 3-5 25 3 50 17 39 23 53 26 119 22 83-4 116-21 146-77 25-46 35-55 45-40 10 17 124 1622 115 1631-4 4-65 16-136 27-210 31-225 32-230 18zM2955 4930c-130-66-122 22-70-715 25-352 47-646 50-652 3-8 24-13 59-13 65 0 102-12 138-47 24-23 28-24 34-10 7 18-92 1453-101 1468-10 15-27 10-110-31zM5936 4962c-8-14-108-1453-101-1470 5-12 10-11 33 11 36 35 73 47 137 47 30 0 56 4 59 9s26 298 51 651c53 741 61 657-71 721-83 40-99 45-108 31z"/><path d="M2187 4222c-70-4-71-5-127-171-99-296-145-670-121-976 37-463 160-837 396-1205 249-389 594-700 1015-917 384-198 873-296 1310-264 307 22 538 73 790 174 404 162 772 434 1044 773 212 263 341 498 446 814 170 508 168 1104-4 1611-24 72-51 138-59 146-11 11-76 14-352 14-186 0-341-3-345-8-10-10-14-50-41-465l-23-338 29-31 30-30v-633l-760-613c-418-338-768-618-779-624-10-6 252 269 582 611 331 343 599 627 596 631-3 5-87 9-188 9-177 0-183-1-203-23-11-12-206-292-433-622s-417-604-422-610c-12-13-7 1 266 663 130 315 234 578 231 583-4 5-88 9-190 9-166 0-185-2-193-17-5-10-47-294-93-631s-87-605-91-595c-3 10-43 284-88 608-44 325-85 600-90 613-9 22-12 22-194 22-104 0-187-4-191-9-4-7 484-1203 512-1256 22-40-64 83-432 615-230 333-427 615-438 628-20 21-26 22-203 22-103 0-185-4-189-9-4-8 684-728 1104-1153 58-60 103-108 100-108s-357 283-785 628l-779 628-3 295c-1 162 0 304 3 316s17 36 32 54l27 32-18 276c-25 397-26 411-32 469-3 29-11 55-18 58-14 5-542 10-629 6zm2325-3034l3-163h100l3 53 3 52h217l217-1-49-45-50-45 45-39c24-22 49-40 54-42 6-1-51-5-125-8l-135-5-3-57-3-57-137-3-137-3-3-27c-2-16-8-28-13-28s-9 117-9 290c0 182 4 290 10 290s11-65 12-162z"/></g><g fill="#130f0f"><path d="M0 3250V0h9000v6500H0V3250zm4873 2526c565-91 1043-332 1432-721 380-380 622-853 718-1405 18-108 21-163 21-400 0-238-3-292-22-402-45-262-110-471-216-693-254-535-676-957-1209-1210-229-108-456-178-722-222-157-26-593-26-750 0-513 84-945 287-1322 619-443 391-729 920-830 1533-28 169-25 603 4 775 96 551 338 1026 718 1405 412 412 946 667 1542 735 118 13 521 4 636-14z"/><path d="M4485 1358c-3-7-4-144-3-303 3-250 5-290 18-290s15 40 15 299c0 231-3 300-12 303-7 3-15-1-18-9z"/></g></svg>