<!DOCTYPE svg PUBLIC "-//W3C//DTD SVG 20010904//EN" "http://www.w3.org/TR/2001/REC-SVG-20010904/DTD/svg10.dtd"><svg version="1" xmlns="http://www.w3.org/2000/svg" width="900" height="650" viewBox="0 0 9000 6500"><g fill="#2c77a5"><path d="M5893 1112c-29-19-50-39-47-43 6-10 47 11 91 47 45 36 11 33-44-4zM5805 1056c-11-8-14-16-8-19 6-4 18 0 28 7 11 8 14 16 8 19-6 4-18 0-28-7zM5747 1024c-38-20-24-38 14-19 16 9 27 20 24 25-7 12-4 13-38-6zM5637 964c-38-20-24-38 14-19 16 9 27 20 24 25-7 12-4 13-38-6z"/></g><g fill="#b38e77"><path d="M6025 3530c-4-6-3-16 3-22s12-6 17 2c4 6 3 16-3 22s-12 6-17-2zM5785 3470c-4-6-3-16 3-22s12-6 17 2c4 6 3 16-3 22s-12 6-17-2zM5925 3371c-7-12 12-24 25-16 11 7 4 25-10 25-5 0-11-4-15-9zM3025 2770c-4-7 1-20 13-32 26-26 36-9 13 21-13 17-20 20-26 11zM5981 2736c-7-8-8-17-3-20 6-3 15 1 21 8 7 8 8 17 3 20-6 3-15-1-21-8zM5882 2679c-40-21-75-38-77-38-3-1-6-1-7-2-2 0-16-2-32-4s-36-7-45-11-23-6-33-5c-9 1-19-3-23-9-9-14 24-25 37-12 6 6 16 8 22 6 7-3 26 1 42 7 16 7 32 13 37 14 4 2 8 3 10 4 1 2 12 4 25 7 46 8 143 67 126 76-5 3-42-12-82-33zM3105 2700c-7-12 129-79 171-85 16-2 31-5 34-6s10-3 15-4c6-1 18-5 28-10 21-9 50 1 42 16-4 5-17 9-28 7-12-1-28 1-35 6-7 4-16 5-19 2s-11-2-17 3-29 14-51 21-61 23-87 36c-29 15-49 20-53 14zM3826 2621c-10-11-13-22-8-25s17 3 26 13c10 11 13 22 8 25s-17-3-26-13z"/></g><g fill="#757373"><path d="M4295 5810c-8-13 20-24 41-16 20 8 9 26-16 26-10 0-22-5-25-10zM4655 5810c-8-13 20-24 41-16 20 8 9 26-16 26-10 0-22-5-25-10zM4185 5800c-8-12 20-24 35-15 6 3 8 11 5 16-8 12-32 12-40-1zM4775 5800c-8-12 20-24 35-15 6 3 8 11 5 16-8 12-32 12-40-1zM4115 5791c-7-12 12-24 25-16 11 7 4 25-10 25-5 0-11-4-15-9zM4855 5791c-7-12 12-24 25-16 11 7 4 25-10 25-5 0-11-4-15-9zM4055 5781c-7-12 12-24 25-16 11 7 4 25-10 25-5 0-11-4-15-9zM4915 5781c-7-12 12-24 25-16 11 7 4 25-10 25-5 0-11-4-15-9zM2891 5256c-7-8-8-17-3-20 6-3 15 1 21 8 7 8 8 17 3 20-6 3-15-1-21-8zM6086 5262c-3-6 1-15 8-21 8-7 17-8 20-3 3 6-1 15-8 21-8 7-17 8-20 3zM2491 4856c-7-8-8-17-3-20 6-3 15 1 21 8 7 8 8 17 3 20-6 3-15-1-21-8zM6486 4862c-3-6 1-15 8-21 8-7 17-8 20-3 3 6-1 15-8 21-8 7-17 8-20 3zM3382 3797c-9-10-8-18 1-31 10-14 15-15 30-3 18 12 18 13-1 30-16 15-21 15-30 4zM3586 3791c-21-23-5-37 24-21 17 9 19 14 9 26-14 17-13 18-33-5zM4205 3710c-4-6-3-16 3-22s12-6 17 2c4 6 3 16-3 22s-12 6-17-2z"/><path d="M4245 3710c-5-7 21-40 64-84 72-72 85-99 54-110-20-8-150 116-155 148-4 27-33 28-32 1 0-27 147-168 178-171 15-1 33 7 47 22l23 24-84 88c-47 48-85 88-86 90s-5-2-9-8zM4605 3710c-4-6-3-16 3-22s12-6 17 2c4 6 3 16-3 22s-12 6-17-2zM4549 3702c-11-62-5-77 59-144 47-48 70-65 85-62 11 2 26-1 33-7 8-7 14-7 19 1 10 16-5 31-24 25-11-3-39 18-91 70-73 73-73 75-55 95 10 11 16 20 14 21-2 0-12 2-21 4-10 2-19 0-19-3zM1965 3690c-4-6-3-16 3-22s12-6 17 2c4 6 3 16-3 22s-12 6-17-2zM7015 3690c-4-6-3-16 3-22s12-6 17 2c4 6 3 16-3 22s-12 6-17-2zM1955 3630c-4-6-3-16 3-22s12-6 17 2c4 6 3 16-3 22s-12 6-17-2zM3348 3635c-1-2-32-5-68-7-69-4-94-13-84-29 3-5 8-7 12-5s7-46 7-107v-112l70-3c38-2 75-8 81-13 8-6 14-6 18-1 11 18-27 37-83 42l-56 5-3 97-3 97 76 3c73 3 96 15 57 29-11 4-22 6-24 4zM7025 3630c-4-6-3-16 3-22s12-6 17 2c4 6 3 16-3 22s-12 6-17-2zM3608 3624c-17-16 8-24 78-24h74v-95c0-105 3-101-80-107-62-5-32-23 38-23 48 0 66 3 65 12-2 7 0 12 5 10 4-1 7 3 7 8 0 6-2 9-5 8s-5 41-5 92 3 91 7 89c13-8 18 14 5 23-15 11-179 18-189 7zM1944 3556c-4-10-2-22 4-28 8-8 13-7 18 6 4 10 2 22-4 28-8 8-13 7-18-6zM7034 3556c-4-10-2-22 4-28 8-8 13-7 18 6 4 10 2 22-4 28-8 8-13 7-18-6zM1934 3446c-8-21 3-49 16-41 5 3 10 15 10 25 0 25-18 36-26 16zM7044 3446c-8-21 3-49 16-41 5 3 10 15 10 25 0 25-18 36-26 16zM3387 3253c-4-3-2-12 3-19 6-6 9-18 8-25-2-11 19-14 102-14 79 0 104 3 103 13-2 6 0 11 5 11 19-3 22 3 12 22-9 16-14 18-26 9-7-7-11-16-8-21s-36-9-86-9-89 4-86 9c7 11-18 33-27 24zM1934 3086c-8-21 3-49 16-41 5 3 10 15 10 25 0 25-18 36-26 16zM7044 3086c-8-21 3-49 16-41 5 3 10 15 10 25 0 25-18 36-26 16zM4089 2996c-1-3-2-10-3-15 0-5-4-13-8-16-4-4-3-16 3-27s13-17 17-14c9 10 10 66 0 72-4 3-9 3-9 0zM1944 2966c-4-10-2-22 4-28 8-8 13-7 18 6 4 10 2 22-4 28-8 8-13 7-18-6zM7034 2966c-4-10-2-22 4-28 8-8 13-7 18 6 4 10 2 22-4 28-8 8-13 7-18-6zM3979 2946c-12-51 19-70 91-56 3 0-3 7-14 15-12 9-25 11-41 5-20-8-23-6-20 10 3 17-13 41-16 26zM4287 2944c-3-3-2-16 3-29 5-14 5-26-2-33-6-6-6-12 1-16 6-4 12-5 12-2 1 3 2 9 3 14 1 4 5 13 9 19 4 7 3 22-3 33-12 22-14 23-23 14zM4485 2940c-3-5-2-10 2-12 13-7 33-3 36 6 3 12-31 17-38 6zM4545 2924c-17-13-26-24-21-24s3-6-3-14c-8-10-9-16-1-21 10-6 11-5 14 15 1 12 16 14 17 3 0-5 8-17 17-28 16-18 16-19 0-7-20 16-34-1-14-17 10-8 17-6 31 9 16 18 16 21-6 56-12 21-18 34-12 31 7-4 14-3 17 2 13 21-11 18-39-5zM4629 2946c-1-3-2-9-3-13-1-5-5-14-10-21-5-8-2-20 8-31 9-10 16-24 14-32-2-7 6-13 20-13 12 0 21 4 20 9-4 16-31 44-38 40-9-5-6 27 3 42 4 6 3 14-3 18-5 3-11 4-11 1zM4674 2938c-14-23-11-49 8-59 10-5 18-7 18-3 0 3 6 1 14-5 11-10 17-7 30 10 18 26 11 43-13 34-45-18-64-12-40 12 7 7 7 13 1 17-6 3-14 1-18-6zM4861 2933c-6-10-11-14-11-9s-7 3-15-4c-8-6-19-9-24-6-6 4-15-3-21-14s-16-19-23-17c-7 1-12-9-12-25 0-33 18-38 25-8 3 12 10 21 15 21 6 0 12-9 15-21s10-20 15-18c11 3 11 24 0 51-6 13-4 16 9 11 10-4 15-13 12-20-6-15 8-27 18-16 4 4 12 7 17 7s8 5 7 10c-2 6-6 9-10 8-11-4-10 5 3 29 15 27-4 48-20 21zM4205 2931c-7-12 12-24 25-16 11 7 4 25-10 25-5 0-11-4-15-9zM4355 2920c-10-11-15-20-10-20 4 0 2-6-4-14-8-9-8-16-2-20 5-4 12-2 16 4 3 5 3 10-1 10s3 11 15 24 18 27 13 30-17-3-27-14zM4453 2921c-4-16-12-21-32-19-19 2-26-1-25-14 1-10-2-16-6-13-13 8-43-21-36-34 5-8 12-9 19-2 8 6 19 5 31-5 27-19 41-6 19 19-10 11-13 17-7 14 12-7 64 35 64 52 0 21-22 22-27 2zM4241 2911c-7-12-8-21-4-21s-2-6-13-14c-13-11-16-18-8-26 7-7 16-5 29 10 10 11 15 20 10 20-4 0-2 7 5 15 9 11 10 19 3 26-8 8-14 5-22-10zM4122 2909c-13-5-20-13-17-19 8-13 18-13 40 3 23 17 8 28-23 16zM1955 2890c-4-6-3-16 3-22s12-6 17 2c4 6 3 16-3 22s-12 6-17-2zM7025 2890c-4-6-3-16 3-22s12-6 17 2c4 6 3 16-3 22s-12 6-17-2zM4914 2874c-4-10-9-22-11-26s1-9 6-13c15-9 35 35 22 48-7 7-12 5-17-9zM4469 2876c-1-3-2-9-3-13-1-5-5-13-9-20-4-6-3-14 3-18 5-3 11-4 11-1 1 3 2 9 3 14 1 4 5 12 9 19 4 6 3 14-3 18-5 3-11 4-11 1zM4245 2851c-6-11 29-33 39-24 7 7-12 33-25 33-4 0-10-4-14-9zM1965 2830c-4-6-3-16 3-22s12-6 17 2c4 6 3 16-3 22s-12 6-17-2zM7015 2830c-4-6-3-16 3-22s12-6 17 2c4 6 3 16-3 22s-12 6-17-2zM4546 2662c-3-5 3-17 13-26 11-10 22-13 25-8s-3 17-13 26c-11 10-22 13-25 8zM2486 1662c-3-6 1-15 8-21 8-7 17-8 20-3 3 6-1 15-8 21-8 7-17 8-20 3zM6491 1656c-7-8-8-17-3-20 6-3 15 1 21 8 7 8 8 17 3 20-6 3-15-1-21-8zM2886 1262c-3-6 1-15 8-21 8-7 17-8 20-3 3 6-1 15-8 21-8 7-17 8-20 3zM6091 1256c-7-8-8-17-3-20 6-3 15 1 21 8 7 8 8 17 3 20-6 3-15-1-21-8zM4055 731c-7-12 12-24 25-16 11 7 4 25-10 25-5 0-11-4-15-9zM4915 731c-7-12 12-24 25-16 11 7 4 25-10 25-5 0-11-4-15-9zM4115 721c-7-12 12-24 25-16 11 7 4 25-10 25-5 0-11-4-15-9zM4855 721c-7-12 12-24 25-16 11 7 4 25-10 25-5 0-11-4-15-9zM4185 710c-8-12 20-24 35-15 6 3 8 11 5 16-8 12-32 12-40-1zM4775 710c-8-12 20-24 35-15 6 3 8 11 5 16-8 12-32 12-40-1zM4295 700c-8-13 20-24 41-16 20 8 9 26-16 26-10 0-22-5-25-10zM4655 700c-8-13 20-24 41-16 20 8 9 26-16 26-10 0-22-5-25-10z"/></g><path d="M5870 3613c-53-20-94-89-85-144 23-136 190-156 255-30 14 28 6 93-15 124-33 47-102 69-155 50z" fill="#bd3e25"/><path d="M5470 3844c-25-23-42-48-46-69-19-106 90-194 183-149 135 67 93 254-56 254-33 0-49-7-81-36z" fill="#efc84a"/><path d="M5195 3623c-39-10-84-53-96-92-15-51 1-100 47-141 108-94 269 44 194 167-31 51-92 79-145 66z" fill="#45b39c"/><g fill="#2888b4"><path d="M4165 5801c-7-12 12-24 25-16 11 7 4 25-10 25-5 0-11-4-15-9zM4805 5801c-7-12 12-24 25-16 11 7 4 25-10 25-5 0-11-4-15-9zM4095 5791c-7-12 12-24 25-16 11 7 4 25-10 25-5 0-11-4-15-9zM4875 5791c-7-12 12-24 25-16 11 7 4 25-10 25-5 0-11-4-15-9zM4035 5781c-7-12 12-24 25-16 11 7 4 25-10 25-5 0-11-4-15-9zM4935 5781c-7-12 12-24 25-16 11 7 4 25-10 25-5 0-11-4-15-9zM3935 5761c-7-12 12-24 25-16 11 7 4 25-10 25-5 0-11-4-15-9zM5035 5761c-7-12 12-24 25-16 11 7 4 25-10 25-5 0-11-4-15-9zM3761 5719c-16-6-21-13-14-20 13-13 67 7 58 21-7 12-12 12-44-1zM5195 5720c-9-14 45-34 58-21 7 7 1 14-17 21-33 12-33 12-41 0zM3595 5661c-7-12 12-24 25-16 11 7 4 25-10 25-5 0-11-4-15-9zM5375 5661c-7-12 12-24 25-16 11 7 4 25-10 25-5 0-11-4-15-9zM3407 5584c-38-20-24-38 14-19 16 9 27 20 24 25-7 12-4 13-38-6zM5555 5590c-3-5 8-16 24-25 18-9 32-11 36-5 3 5-8 16-24 25-18 9-32 11-36 5zM3295 5528c-48-26-65-39-60-48 3-5 25 3 50 17 25 13 43 29 39 34-6 11-4 11-29-3zM5676 5531c-4-5 14-21 39-34 41-23 72-23 42 1-27 21-76 41-81 33zM3141 5436c-7-8-8-17-3-20 6-3 15 1 21 8 7 8 8 17 3 20-6 3-15-1-21-8zM5836 5442c-3-6 1-15 8-21 8-7 17-8 20-3 3 6-1 15-8 21-8 7-17 8-20 3zM3062 5389c-23-17-40-35-37-40 4-5 26 5 51 22 24 16 42 34 39 40-8 11-3 13-53-22zM5885 5411c-3-6 15-24 39-40 25-17 47-27 51-22 3 6-15 24-39 40-25 17-47 27-51 22zM2975 5326c-15-13-24-25-19-29 6-3 23 4 39 17 15 13 24 25 19 29-6 3-23-4-39-17zM5986 5341c-4-5 7-19 23-30 16-12 32-17 35-12 4 5-7 19-23 30-16 12-32 17-35 12zM2911 5276c-7-8-8-17-3-20 6-3 15 1 21 8 7 8 8 17 3 20-6 3-15-1-21-8zM6066 5282c-3-6 1-15 8-21 8-7 17-8 20-3 3 6-1 15-8 21-8 7-17 8-20 3zM2866 5241c-10-11-13-22-8-25s17 3 26 13c10 11 13 22 8 25s-17-3-26-13zM6106 5252c-3-5 3-17 13-26 11-10 22-13 25-8s-3 17-13 26c-11 10-22 13-25 8zM2806 5191c-10-11-13-22-8-25s17 3 26 13c10 11 13 22 8 25s-17-3-26-13zM6166 5202c-3-5 3-17 13-26 11-10 22-13 25-8s-3 17-13 26c-11 10-22 13-25 8zM2676 5071c-15-16-23-31-18-35 5-3 21 8 36 23 15 16 23 31 18 35-5 3-21-8-36-23zM6286 5092c-3-5 8-21 23-36 16-15 31-23 35-18 3 5-8 21-23 36-16 15-31 23-35 18zM2556 4941c-10-11-13-22-8-25s17 3 26 13c10 11 13 22 8 25s-17-3-26-13zM6416 4952c-3-5 3-17 13-26 11-10 22-13 25-8s-3 17-13 26c-11 10-22 13-25 8zM2506 4881c-10-11-13-22-8-25s17 3 26 13c10 11 13 22 8 25s-17-3-26-13zM6466 4892c-3-5 3-17 13-26 11-10 22-13 25-8s-3 17-13 26c-11 10-22 13-25 8zM2471 4836c-7-8-8-17-3-20 6-3 15 1 21 8 7 8 8 17 3 20-6 3-15-1-21-8zM6506 4842c-3-6 1-15 8-21 8-7 17-8 20-3 3 6-1 15-8 21-8 7-17 8-20 3zM2421 4771c-12-16-17-32-12-35 5-4 19 7 30 23 12 16 17 32 12 35-5 4-19-7-30-23zM6547 4794c-3-6 4-23 17-39 13-15 25-24 29-19 3 6-4 23-17 39-13 15-25 24-29 19zM2361 4686c-17-25-27-47-22-51 6-3 24 15 40 39 17 25 27 47 22 51-6 3-24-15-40-39zM6597 4724c-9-10 53-95 64-89 5 4-5 26-21 51-33 47-33 47-43 38zM2311 4606c-7-8-8-17-3-20 6-3 15 1 21 8 7 8 8 17 3 20-6 3-15-1-21-8zM6666 4612c-3-6 1-15 8-21 8-7 17-8 20-3 3 6-1 15-8 21-8 7-17 8-20 3zM2252 4507c-5-6-17-26-26-44-25-50-1-48 27 2 23 41 23 72-1 42zM6727 4514c-8-8 44-95 54-89 5 4 0 24-11 45-20 40-33 53-43 44zM2165 4341c-9-18-11-32-5-36 5-3 16 8 25 24 9 18 11 32 5 36-5 3-16-8-25-24zM6807 4364c-9-10 22-66 33-59 6 4 4 18-5 36-17 31-18 32-28 23zM2085 4150c-4-6-3-16 3-22s12-6 17 2c4 6 3 16-3 22s-12 6-17-2zM6895 4150c-4-6-3-16 3-22s12-6 17 2c4 6 3 16-3 22s-12 6-17-2zM2030 3985c-7-19-7-32-1-38 7-7 14-1 21 18s7 32 1 38c-7 7-14 1-21-18zM6946 4001c-10-16 13-66 25-54 6 6 6 19 0 36-11 29-16 32-25 18zM1985 3810c-4-6-3-16 3-22s12-6 17 2c4 6 3 16-3 22s-12 6-17-2zM6995 3810c-4-6-3-16 3-22s12-6 17 2c4 6 3 16-3 22s-12 6-17-2zM1965 3710c-4-6-3-16 3-22s12-6 17 2c4 6 3 16-3 22s-12 6-17-2zM7015 3710c-4-6-3-16 3-22s12-6 17 2c4 6 3 16-3 22s-12 6-17-2zM1955 3650c-4-6-3-16 3-22s12-6 17 2c4 6 3 16-3 22s-12 6-17-2zM7025 3650c-4-6-3-16 3-22s12-6 17 2c4 6 3 16-3 22s-12 6-17-2zM1945 3580c-4-6-3-16 3-22s12-6 17 2c4 6 3 16-3 22s-12 6-17-2zM7035 3580c-4-6-3-16 3-22s12-6 17 2c4 6 3 16-3 22s-12 6-17-2zM5559 3360c-61-18-109-75-109-130 0-67 70-133 140-133 68 0 130 64 130 133 0 82-87 152-161 130zM1945 2940c-4-6-3-16 3-22s12-6 17 2c4 6 3 16-3 22s-12 6-17-2zM7035 2940c-4-6-3-16 3-22s12-6 17 2c4 6 3 16-3 22s-12 6-17-2zM1955 2870c-4-6-3-16 3-22s12-6 17 2c4 6 3 16-3 22s-12 6-17-2zM7025 2870c-4-6-3-16 3-22s12-6 17 2c4 6 3 16-3 22s-12 6-17-2zM1965 2810c-4-6-3-16 3-22s12-6 17 2c4 6 3 16-3 22s-12 6-17-2zM7015 2810c-4-6-3-16 3-22s12-6 17 2c4 6 3 16-3 22s-12 6-17-2zM1985 2710c-4-6-3-16 3-22s12-6 17 2c4 6 3 16-3 22s-12 6-17-2zM6995 2710c-4-6-3-16 3-22s12-6 17 2c4 6 3 16-3 22s-12 6-17-2zM2026 2551c-10-16 13-66 25-54 6 6 6 19 0 36-11 29-16 32-25 18zM6950 2535c-7-19-7-32-1-38 7-7 14-1 21 18s7 32 1 38c-7 7-14 1-21-18zM2085 2370c-4-6-3-16 3-22s12-6 17 2c4 6 3 16-3 22s-12 6-17-2zM6895 2370c-4-6-3-16 3-22s12-6 17 2c4 6 3 16-3 22s-12 6-17-2zM2157 2194c-9-10 22-66 33-59 6 4 4 18-5 36-17 31-18 32-28 23zM6815 2171c-9-18-11-32-5-36 5-3 16 8 25 24 9 18 11 32 5 36-5 3-16-8-25-24zM2217 2074c-6-6 16-57 35-81 24-30 24 1 1 42-27 48-26 48-36 39zM6747 2035c-14-25-22-47-17-50 9-6 22 9 44 52 25 50 1 48-27-2zM2306 1912c-3-6 1-15 8-21 8-7 17-8 20-3 3 6-1 15-8 21-8 7-17 8-20 3zM6671 1906c-7-8-8-17-3-20 6-3 15 1 21 8 7 8 8 17 3 20-6 3-15-1-21-8zM2337 1864c-9-10 53-95 64-89 5 4-5 26-21 51-33 47-33 47-43 38zM6621 1826c-17-25-27-47-22-51 6-3 24 15 40 39 17 25 27 47 22 51-6 3-24-15-40-39zM2407 1764c-3-6 4-23 17-39 13-15 25-24 29-19 3 6-4 23-17 39-13 15-25 24-29 19zM6561 1741c-12-16-17-32-12-35 5-4 19 7 30 23 12 16 17 32 12 35-5 4-19-7-30-23zM2466 1682c-3-6 1-15 8-21 8-7 17-8 20-3 3 6-1 15-8 21-8 7-17 8-20 3zM6511 1676c-7-8-8-17-3-20 6-3 15 1 21 8 7 8 8 17 3 20-6 3-15-1-21-8zM2496 1642c-3-5 3-17 13-26 11-10 22-13 25-8s-3 17-13 26c-11 10-22 13-25 8zM6476 1631c-10-11-13-22-8-25s17 3 26 13c10 11 13 22 8 25s-17-3-26-13zM2546 1582c-3-5 3-17 13-26 11-10 22-13 25-8s-3 17-13 26c-11 10-22 13-25 8zM6426 1571c-10-11-13-22-8-25s17 3 26 13c10 11 13 22 8 25s-17-3-26-13zM2656 1462c-3-5 8-21 23-36 16-15 31-23 35-18 3 5-8 21-23 36-16 15-31 23-35 18zM6306 1441c-15-16-23-31-18-35 5-3 21 8 36 23 15 16 23 31 18 35-5 3-21-8-36-23zM2796 1332c-3-5 3-17 13-26 11-10 22-13 25-8s-3 17-13 26c-11 10-22 13-25 8zM6176 1321c-10-11-13-22-8-25s17 3 26 13c10 11 13 22 8 25s-17-3-26-13zM2856 1282c-3-5 3-17 13-26 11-10 22-13 25-8s-3 17-13 26c-11 10-22 13-25 8zM6116 1271c-10-11-13-22-8-25s17 3 26 13c10 11 13 22 8 25s-17-3-26-13zM2906 1242c-3-6 1-15 8-21 8-7 17-8 20-3 3 6-1 15-8 21-8 7-17 8-20 3zM6071 1236c-7-8-8-17-3-20 6-3 15 1 21 8 7 8 8 17 3 20-6 3-15-1-21-8zM2956 1201c-4-5 7-19 23-30 16-12 32-17 35-12 4 5-7 19-23 30-16 12-32 17-35 12zM6005 1186c-15-13-24-25-19-29 6-3 23 4 39 17 15 13 24 25 19 29-6 3-23-4-39-17zM3025 1151c-3-6 15-24 39-40 25-17 47-27 51-22 3 6-15 24-39 40-25 17-47 27-51 22zM5951 1146c-7-8-8-17-3-20 6-3 15 1 21 8 7 8 8 17 3 20-6 3-15-1-21-8zM3136 1082c-3-6 1-15 8-21 8-7 17-8 20-3 3 6-1 15-8 21-8 7-17 8-20 3zM3235 1020c-6-9 9-22 52-44 50-25 48-1-2 27-25 14-47 22-50 17zM5685 986c-11-8-14-16-8-19 6-4 18 0 28 7 11 8 14 16 8 19-6 4-18 0-28-7zM3385 940c-3-5 8-16 24-25 18-9 32-11 36-5 3 5-8 16-24 25-18 9-32 11-36 5zM5577 934c-38-20-24-38 14-19 16 9 27 20 24 25-7 12-4 13-38-6zM3595 851c-7-12 12-24 25-16 11 7 4 25-10 25-5 0-11-4-15-9zM5375 851c-7-12 12-24 25-16 11 7 4 25-10 25-5 0-11-4-15-9zM3745 800c-9-14 45-34 58-21 7 7 1 14-17 21-33 12-33 12-41 0zM5211 799c-16-6-21-13-14-20 13-13 67 7 58 21-7 12-12 12-44-1zM3935 751c-7-12 12-24 25-16 11 7 4 25-10 25-5 0-11-4-15-9zM5035 751c-7-12 12-24 25-16 11 7 4 25-10 25-5 0-11-4-15-9zM4035 731c-7-12 12-24 25-16 11 7 4 25-10 25-5 0-11-4-15-9zM4935 731c-7-12 12-24 25-16 11 7 4 25-10 25-5 0-11-4-15-9zM4095 721c-7-12 12-24 25-16 11 7 4 25-10 25-5 0-11-4-15-9zM4875 721c-7-12 12-24 25-16 11 7 4 25-10 25-5 0-11-4-15-9zM4165 711c-7-12 12-24 25-16 11 7 4 25-10 25-5 0-11-4-15-9zM4805 711c-7-12 12-24 25-16 11 7 4 25-10 25-5 0-11-4-15-9z"/></g><g fill="#d1d0ce"><path d="M3685 4201c-7-12 12-24 25-16 11 7 4 25-10 25-5 0-11-4-15-9zM5745 4201c-7-12 12-24 25-16 11 7 4 25-10 25-5 0-11-4-15-9zM3245 4191c-7-12 12-24 25-16 11 7 4 25-10 25-5 0-11-4-15-9zM5305 4191c-7-12 12-24 25-16 11 7 4 25-10 25-5 0-11-4-15-9zM5455 4140c-8-12 20-24 35-15 6 3 8 11 5 16-8 12-32 12-40-1zM5655 4141c-7-12 12-24 25-16 11 7 4 25-10 25-5 0-11-4-15-9zM5406 4133c-4-5-12-8-17-8s-9-3-9-7c0-8 3-9 18-7 4 1 12 2 17 3 13 1 19 20 8 23-5 2-13 0-17-4zM5705 4131c-6-11 13-26 22-17 3 3 12 1 19-5s18-8 24-4c14 9 1 28-16 21-7-3-16-1-19 4-8 13-22 13-30 1zM5996 4082c-3-6 1-15 8-21 8-7 17-8 20-3 3 6-1 15-8 21-8 7-17 8-20 3zM3946 4072c-3-6 1-15 8-21 8-7 17-8 20-3 3 6-1 15-8 21-8 7-17 8-20 3zM3011 4056c-7-8-8-17-3-20 6-3 15 1 21 8 7 8 8 17 3 20-6 3-15-1-21-8zM5207 4044c-21-14-35-29-32-34s24 2 45 16c22 15 37 30 34 35-7 12-4 13-47-17zM5966 4012c-3-5 3-17 13-26 11-10 22-13 25-8s-3 17-13 26c-11 10-22 13-25 8zM5101 3956c-29-30-49-56-44-59s33 18 62 47c29 30 49 56 44 59s-33-18-62-47zM2916 3961c-10-11-13-22-8-25s17 3 26 13c10 11 13 22 8 25s-17-3-26-13zM6136 3942c-3-6 1-15 8-21 8-7 17-8 20-3 3 6-1 15-8 21-8 7-17 8-20 3zM2881 3916c-7-8-8-17-3-20 6-3 15 1 21 8 7 8 8 17 3 20-6 3-15-1-21-8zM5525 3920c-3-5-11-8-16-4-13 8-61-24-54-36 3-4 20-1 37 8 18 8 46 16 63 16 16 1 32 6 35 11 7 14-56 19-65 5zM6056 3922c-3-5 3-17 13-26 11-10 22-13 25-8s-3 17-13 26c-11 10-22 13-25 8zM5616 3912c-3-6 1-15 8-21 8-7 17-8 20-3 3 6-1 15-8 21-8 7-17 8-20 3zM5022 3863c-30-44-33-51-23-57 5-3 20 12 35 34 29 44 18 66-12 23zM5656 3882c-3-6 1-15 8-21 8-7 17-8 20-3 3 6-1 15-8 21-8 7-17 8-20 3zM3407 3869c-110-26-218-116-269-225-144-309 153-647 480-546 111 35 195 112 249 228 25 52 28 71 28 154 0 85-3 102-31 160-83 175-275 272-457 229zm201-149c2-41 8-80 13-87 7-7 41-13 87-15l77-3v-220l-71-3c-92-4-102-14-106-107l-3-70h-210l-3 70c-4 93-14 103-106 107l-71 3v220l70 3c90 3 105 18 105 106 0 35 3 66 7 70s52 5 107 4l101-3 3-75zM6096 3872c-3-6 1-15 8-21 8-7 17-8 20-3 3 6-1 15-8 21-8 7-17 8-20 3zM5696 3851c-4-5 7-19 23-30 16-12 32-17 35-12 4 5-7 19-23 30-16 12-32 17-35 12zM5395 3819c-12-22-14-34-6-42 7-7 13-2 21 18 6 15 13 31 15 36 3 4 1 10-4 14-6 3-17-9-26-26zM6137 3814c-9-10 22-66 33-59 6 4 4 18-5 36-17 31-18 32-28 23zM5766 3802c-3-6 1-15 8-21 8-7 17-8 20-3 3 6-1 15-8 21-8 7-17 8-20 3zM5806 3771c-4-5 7-19 23-30 16-12 32-17 35-12 4 5-7 19-23 30-16 12-32 17-35 12zM2785 3740c-4-6-3-16 3-22s12-6 17 2c4 6 3 16-3 22s-12 6-17-2zM4215 3721c-7-12 11-24 24-17 4 3 16-3 26-14s22-17 27-14 2 14-8 25c-9 10-20 16-25 14-4-3-10-1-14 5-8 13-22 13-30 1zM4575 3721c-6-11 11-24 23-17 5 3 42-28 82-69s78-71 83-68-24 38-64 79c-40 40-76 71-80 68-4-2-10 0-14 6-8 13-22 13-30 1zM5876 3722c-3-6 1-15 8-21 8-7 17-8 20-3 3 6-1 15-8 21-8 7-17 8-20 3zM6176 3721c-4-5-2-12 4-16s8-10 5-15-1-11 4-15c6-3 8-12 5-19-7-17 12-30 21-16 4 6 1 17-5 25-7 8-9 15-5 15s1 7-6 17c-8 9-12 18-11 20 2 3 1 7-1 9-3 3-8 1-11-5zM5386 3711c-9-14 22-73 34-66 5 3 5 17-2 33-16 37-25 46-32 33zM5916 3691c-4-5 7-19 23-30 16-12 32-17 35-12 4 5-7 19-23 30-16 12-32 17-35 12zM4939 3686c-1-3-2-9-3-13-1-5-5-14-9-20-5-7-5-18-2-23 9-14 28-1 21 15-2 7 0 17 6 23s6 12-1 16c-6 4-12 5-12 2zM2765 3670c-4-6-3-16 3-22s12-6 17 2c4 6 3 16-3 22s-12 6-17-2zM5182 3658c-7-7-12-9-12-5s-9 3-20-3-18-15-15-21c4-5 15-4 28 3 12 7 27 12 32 13 13 0 19 19 8 22-5 2-14-2-21-9zM5255 3660c-7-11 35-31 49-22 5 3 1 11-9 19-22 16-32 16-40 3zM5986 3642c-3-6 1-15 8-21 8-7 17-8 20-3 3 6-1 15-8 21-8 7-17 8-20 3zM5316 3631c-4-5 7-19 23-30 16-12 32-17 35-12 4 5-7 19-23 30-16 12-32 17-35 12zM5436 3631c-4-5 7-19 23-30 16-12 32-17 35-12 4 5-7 19-23 30-16 12-32 17-35 12zM5098 3612c-29-33-50-84-40-94 7-7 16 2 27 28 9 21 23 46 31 55 9 10 11 20 6 23s-16-2-24-12zM5185 3621c-7-12 12-24 25-16 11 7 4 25-10 25-5 0-11-4-15-9zM5235 3621c-7-12 12-24 24-16 5 3 12 1 16-5s11-8 16-4c5 3 7 10 3 15-3 5-9 7-14 4s-11-1-15 5c-8 13-22 13-30 1zM5895 3621c-7-12 12-24 25-16 11 7 4 25-10 25-5 0-11-4-15-9zM6026 3612c-3-5 3-17 13-26 11-10 22-13 25-8s-3 17-13 26c-11 10-22 13-25 8zM6205 3610c-4-6-3-16 3-22s12-6 17 2c4 6 3 16-3 22s-12 6-17-2zM4914 3596c-4-10-2-22 4-28 8-8 13-7 18 6 4 10 2 22-4 28-8 8-13 7-18-6zM5978 3604c-3-5 9-26 27-47 19-22 36-34 39-28 4 6-8 27-27 47-19 21-36 33-39 28zM4386 3582c-3-6 1-15 8-21 8-7 17-8 20-3 3 6-1 15-8 21-8 7-17 8-20 3zM5386 3582c-3-6 1-15 8-21 8-7 17-8 20-3 3 6-1 15-8 21-8 7-17 8-20 3zM5506 3582c-3-6 1-15 8-21 8-7 17-8 20-3 3 6-1 15-8 21-8 7-17 8-20 3zM6285 3580c-4-6-3-16 3-22s12-6 17 2c4 6 3 16-3 22s-12 6-17-2zM5426 3551c-4-5 7-19 23-30 16-12 32-17 35-12 4 5-7 19-23 30-16 12-32 17-35 12zM5546 3551c-4-5 7-19 23-30 16-12 32-17 35-12 4 5-7 19-23 30-16 12-32 17-35 12zM6215 3538c-9-24-1-103 10-103 14 0 19 95 6 108-7 7-12 5-16-5zM2745 3520c-4-6-3-16 3-22s12-6 17 2c4 6 3 16-3 22s-12 6-17-2zM4391 3516c-7-8-8-17-3-20 6-3 15 1 21 8 7 8 8 17 3 20-6 3-15-1-21-8zM5345 3500c-4-6-3-16 3-22s12-6 17 2c4 6 3 16-3 22s-12 6-17-2zM5496 3502c-3-6 1-15 8-21 8-7 17-8 20-3 3 6-1 15-8 21-8 7-17 8-20 3zM5616 3502c-3-6 1-15 8-21 8-7 17-8 20-3 3 6-1 15-8 21-8 7-17 8-20 3zM4325 3491c-7-12 12-24 25-16 11 7 4 25-10 25-5 0-11-4-15-9zM4685 3491c-7-12 12-24 25-16 11 7 4 25-10 25-5 0-11-4-15-9zM5095 3470c-4-6-3-16 3-22s12-6 17 2c4 6 3 16-3 22s-12 6-17-2zM5536 3471c-4-5 7-19 23-30 16-12 32-17 35-12 4 5-7 19-23 30-16 12-32 17-35 12zM5656 3471c-4-5 7-19 23-30 16-12 32-17 35-12 4 5-7 19-23 30-16 12-32 17-35 12zM5055 3460c-4-6-3-16 3-22s12-6 17 2c4 6 3 16-3 22s-12 6-17-2zM5326 3435c-16-24-6-45 11-22 19 24 23 36 14 41-5 3-16-5-25-19zM6069 3453c-1-4-1-11-1-14 1-4-17-27-39-52-21-25-36-48-31-51 11-6 72 56 75 75 2 8 6 19 10 26 4 6 3 14-3 18-5 3-11 3-11-2zM2744 3416c-4-10-2-22 4-28 8-8 13-7 18 6 4 10 2 22-4 28-8 8-13 7-18-6zM5116 3421c-6-9 35-51 55-55 8-2 22-6 31-10 22-10 50-4 46 9-2 6-16 10-31 11-16 0-44 12-62 27-19 15-36 23-39 18zM5606 3422c-3-6 1-15 8-21 8-7 17-8 20-3 3 6-1 15-8 21-8 7-17 8-20 3zM5726 3422c-3-6 1-15 8-21 8-7 17-8 20-3 3 6-1 15-8 21-8 7-17 8-20 3zM5996 3401c-10-11-13-22-8-25s17 3 26 13c10 11 13 22 8 25s-17-3-26-13zM4915 3400c-4-6-3-16 3-22s12-6 17 2c4 6 3 16-3 22s-12 6-17-2zM5076 3402c-3-5 3-17 13-26 11-10 22-13 25-8s-3 17-13 26c-11 10-22 13-25 8zM5646 3391c-4-5 7-19 23-30 16-12 32-17 35-12 4 5-7 19-23 30-16 12-32 17-35 12zM5766 3391c-4-5 7-19 23-30 16-12 32-17 35-12 4 5-7 19-23 30-16 12-32 17-35 12zM6204 3386c-4-9-4-20 0-23 3-3 1-12-5-19s-8-18-4-24c8-13 26-3 24 13-1 7 1 20 6 30 4 11 3 23-3 29-8 8-13 7-18-6zM5865 3371c-7-12 12-24 25-16 11 7 4 25-10 25-5 0-11-4-15-9zM5126 3362c-3-6 1-15 8-21 8-7 17-8 20-3 3 6-1 15-8 21-8 7-17 8-20 3zM5545 3360c-8-13 6-18 45-16 19 2 42-4 52-11 9-9 18-10 22-5 5 9-23 40-31 35-1-2-4-3-5-2-16 6-79 6-83-1zM4925 3349c-4-6-3-15 3-21s8-16 6-23c-3-7-1-16 5-19 14-9 25 14 13 26-6 6-8 16-6 23 7 17-12 29-21 14zM5486 3321c-15-16-23-31-18-35 5-3 21 8 36 23 15 16 23 31 18 35-5 3-21-8-36-23zM5836 3341c-9-15 23-36 35-24 8 8 5 14-9 22-12 6-23 7-26 2zM5166 3331c-4-5 7-19 23-30 16-12 32-17 35-12 4 5-7 19-23 30-16 12-32 17-35 12zM5945 3331c-7-12 12-24 25-16 11 7 4 25-10 25-5 0-11-4-15-9zM5236 3282c-3-6 1-15 8-21 8-7 17-8 20-3 3 6-1 15-8 21-8 7-17 8-20 3zM6155 3224c-14-31-41-78-60-105s-30-51-25-54c15-10 91 104 120 180 6 15 6 27 0 30s-21-20-35-51zM5276 3251c-4-5 7-19 23-30 16-12 32-17 35-12 4 5-7 19-23 30-16 12-32 17-35 12zM5705 3240c-4-6-3-16 3-22s12-6 17 2c4 6 3 16-3 22s-12 6-17-2zM5346 3202c-3-6 1-15 8-21 8-7 17-8 20-3 3 6-1 15-8 21-8 7-17 8-20 3zM5386 3171c-4-5 7-19 23-30 16-12 32-17 35-12 4 5-7 19-23 30-16 12-32 17-35 12zM5466 3172c-3-5 8-21 23-36 16-15 31-23 35-18 3 5-8 21-23 36-16 15-31 23-35 18zM5641 3127c-6-6-29-12-49-12s-39-4-42-10c-6-12 68-16 76-3 3 4 9 6 14 3 4-3 13 2 19 9 15 18-2 29-18 13zM5699 3124c-16-20-71-49-86-46-16 3-26-15-13-23 6-4 17-1 25 5 8 7 15 10 15 6 0-11 53 20 73 42 10 11 14 23 9 26s-16-1-23-10zM5027 3123c-3-5 6-25 22-43 15-19 30-29 33-24 4 5-6 25-21 43-16 19-31 30-34 24zM5456 3122c-3-6 1-15 8-21 8-7 17-8 20-3 3 6-1 15-8 21-8 7-17 8-20 3zM5496 3091c-9-14 40-45 60-37 19 7 9 26-15 26-9 0-22 5-28 11-7 7-13 7-17 0zM4195 3040c-4-6-3-16 3-22s12-6 17 2c4 6 3 16-3 22s-12 6-17-2zM4031 3006c-7-8-8-17-3-20 6-3 15 1 21 8 7 8 8 17 3 20-6 3-15-1-21-8zM5136 3002c-3-5 3-17 13-26 11-10 22-13 25-8s-3 17-13 26c-11 10-22 13-25 8zM5945 2967c-22-16-68-43-103-59-66-30-79-59-14-32 49 20 140 75 158 96 27 29 0 26-41-5zM3981 2956c-7-8-8-17-3-20 6-3 15 1 21 8 7 8 8 17 3 20-6 3-15-1-21-8zM4085 2960c-11-17 5-32 21-19 7 6 11 15 8 20-7 12-21 11-29-1zM5186 2962c-3-6 1-15 8-21 8-7 17-8 20-3 3 6-1 15-8 21-8 7-17 8-20 3zM4041 2946c-7-8-8-17-3-20 6-3 15 1 21 8 7 8 8 17 3 20-6 3-15-1-21-8zM4245 2951c-3-5-1-12 5-16 16-10 12-41-7-56-16-12-17-12-6 2 16 20 5 33-14 17-11-9-11-14 3-29 16-17 17-17 45 3 16 12 29 29 29 39 0 19-46 53-55 40zM4439 2956s-2-11-5-23c-5-28 16-42 23-14 3 11 12 19 22 18 9-1 17 2 19 8 2 7-55 18-59 11zM4689 2958c-7-23-6-45 3-55 11-14 32-7 22 8-3 5-2 9 3 8 19-3 23 2 13 21-9 16-37 28-41 18zM4754 2949c-4-7 26-36 33-31 1 1 4 2 6 1 14-7 69-5 73 3 3 5 11 4 19-2 10-8 15-7 22 4 4 8 15 14 23 13s17 3 20 8c6 11-189 15-196 4zM4145 2940c-4-6-3-16 3-22s12-6 17 2c4 6 3 16-3 22s-12 6-17-2zM5245 2920c-3-5 8-16 24-25 18-9 32-11 36-5 3 5-8 16-24 25-18 9-32 11-36 5zM4501 2902c-13-25 2-38 19-16 9 10 10 18 3 25-8 8-14 5-22-9zM4029 2908c-1-2-2-16-3-31-2-31 26-63 45-52 8 6 5 13-12 25-18 15-21 21-11 32 6 8 9 18 5 21-6 7-22 9-24 5zM4360 2895c-9-11-10-19-3-26s14-5 23 6 10 19 3 26-14 5-23-6zM4941 2891c-7-13-8-22-1-26 14-9 29 2 26 20-4 25-14 28-25 6zM4826 2892c-3-6 1-15 8-21 8-7 17-8 20-3 3 6-1 15-8 21-8 7-17 8-20 3zM4890 2870c-8-15-9-25-2-32s14-3 22 12 9 25 2 32-14 3-22-12zM5336 2881c-4-5-2-12 4-16 5-3 10-3 10 1 0 3 7 1 15-6s15-9 15-5 7 2 15-5c8-6 19-9 25-5 14 9 1 28-15 21-7-2-18 1-24 7s-11 7-11 3c0-5-6-3-14 3-9 8-16 8-20 2zM4555 2870c-4-6-3-16 3-22s12-6 17 2c4 6 3 16-3 22s-12 6-17-2zM4266 2862c-3-5 0-17 7-26 12-16 14-16 26-3 10 13 9 17-8 26-11 6-22 7-25 3zM4675 2861c-6-11 29-33 39-24 7 7-12 33-25 33-4 0-10-4-14-9zM5716 2861c-3-5-15-7-25-4s-22 0-26-6c-8-14 20-25 37-15 7 5 18 9 23 9 14 0 19 19 7 23-6 2-13-1-16-7zM4505 2850c-11-17 5-32 21-19 7 6 11 15 8 20-7 12-21 11-29-1zM5445 2851c-7-12 12-24 25-16 11 7 4 25-10 25-5 0-11-4-15-9zM5515 2840c-3-5 0-13 8-16 23-8 102 0 102 11 0 14-102 19-110 5zM3047 2799c-22-13-13-29 18-29 13 0 50-15 82-34 102-61 274-107 266-71-1 5-30 15-65 22-34 7-110 36-168 65-57 29-107 54-110 55s-13-2-23-8zM5916 2773c-64-40-205-93-248-93-32 0-46-17-22-27 31-12 127 16 230 67 55 27 107 50 116 50 22 0 29 11 17 27-17 19-28 16-93-24zM4515 2671c-7-12 12-24 25-16 11 7 4 25-10 25-5 0-11-4-15-9zM3805 2661c-3-6 3-15 14-21 21-11 37 2 26 20-8 13-32 13-40 1zM5204 2655c-10-26 6-38 27-19 10 9 16 21 13 25-8 14-34 10-40-6z"/></g><g fill="#585756"><path d="M3387 3792c-12-13-17-37-17-83 0-36-5-70-11-76-14-14 5-27 26-19 11 4 15 24 15 81v76l98-3 97-3 3-70c3-75 11-91 38-81 13 5 15 9 6 18-7 7-12 41-12 78 0 93-9 100-132 100-79 0-98-3-111-18zM4195 3695c-14-13-25-29-25-36 0-22 162-179 186-179 28 0 48 25 50 61 1 22-13 42-76 103-43 42-85 76-94 76s-28-11-41-25zm128-74c72-74 70-71 61-95-12-32-48-16-116 51-79 78-89 113-33 113 14 0 46-25 88-69zM4552 3697c-12-13-22-30-22-38 0-19 161-179 180-179 29 0 60 30 60 59 0 21-18 45-79 104-43 42-87 77-98 77s-29-10-41-23zm122-76c69-70 82-102 42-109-22-5-156 123-156 149 0 50 38 37 114-40zM3207 3612c-23-25-25-203-2-222 19-16 54-5 37 12-18 18-16 182 3 198 8 7 12 16 9 21-9 15-30 10-47-9zM3746 3621c-3-5 1-14 9-21 18-15 21-160 5-191-9-15-7-21 6-26 31-12 44 24 44 122 0 76-3 95-18 108-21 19-38 22-46 8zM3345 3391c-3-6 1-14 9-17 13-5 16-22 16-78 0-43 5-77 12-84 8-8 49-12 120-12 126 0 128 2 128 101 0 47 4 65 18 75 16 12 16 13 0 19-39 15-48-1-48-80v-75h-199l-3 78c-3 70-5 77-25 80-11 2-24-2-28-7zM4204 3025c-4-8-4-22 0-30 5-13 52-15 368-13l363 3v50l-363 3c-316 2-363 0-368-13zM4046 3007c-21-16-18-45 6-61 14-8 22-6 38 9 18 19 19 22 4 43-18 26-24 27-48 9zM3981 2941c-13-24 8-55 34-50 28 6 42 34 26 53-18 22-48 20-60-3zM4090 2940c-9-16-8-25 1-36 26-32 84 0 62 34-16 26-50 27-63 2zM4207 2944c-10-11 3-24 24-24 23 0 25-15 4-24-20-7-19-50 1-67 12-10 20-10 34-2 12 8 21 8 28 1 13-13 33-2 27 15-10 34-13 77-6 77 5 0 13-21 17-47 9-45 11-47 44-49 19-1 43 2 53 8 12 6 23 6 31-1 13-11 94-9 114 3 14 8 16 42 3 50-4 3-6 16-4 30 6 31-15 44-25 15l-9-23-6 23c-7 29-27 18-27-15 0-22-2-23-21-14-20 11-20 12-2 25 17 13 17 14 1 20-32 13-51-2-45-34 6-27 5-28-18-17-13 6-26 20-27 31-4 30-34 25-31-5 3-25 3-25-7-2-12 29-38 38-63 23-14-9-22-10-30-2-12 12-50 15-60 5zm83-77c0-7-9-13-20-14-23-2-26 7-8 25 13 13 28 7 28-11zm230-1c0-9-7-12-21-9-16 4-17 8-7 14 19 13 28 11 28-5zM4632 2938c-7-7-12-26-12-43 0-40 43-84 66-70 18 12 19 30 1 30-23 1-37 16-37 41 0 13 5 24 11 24s9-9 6-20c-7-26 13-38 28-17 10 15 14 11 28-24 17-42 39-49 45-13 7 42 16 48 21 15 8-44 28-51 42-14 11 27 11 27 19 7 12-32 31-40 45-20 11 15 13 15 19 1 7-19 47-17 54 3 2 6-6 16-19 20-21 8-21 9-3 16 19 7 19 8-1 22-19 14-19 16-2 25 9 6 15 14 12 20-10 15-55 10-62-7-4-12-8-13-14-3-9 15-127 20-135 7-3-5-11-5-17-1-20 13-83 13-95 1zM4046 2897c-21-16-18-45 6-61 14-8 22-6 40 11 21 22 21 23 3 43-21 24-25 24-49 7zM4493 2655c-25-18-45-76-70-200-25-126-24-394 1-485 40-147 126-258 243-313 66-31 72-32 203-32h135l79 38c100 47 180 128 257 257 30 52 60 95 66 97s18-12 27-31c24-51 20-154-15-358-26-155-30-200-27-307 4-100 9-138 27-184 24-62 113-167 163-193 28-14 32-13 116 32 184 99 283 174 229 174-7 0-59-22-117-50-58-27-116-50-130-50-43 0-96 45-127 107-27 56-28 64-27 198 0 111 6 168 27 275 49 243 46 343-13 432-41 62-86 93-137 93-36 0-48-6-83-40-22-21-64-79-93-129-101-172-176-226-324-234-101-6-162 9-230 53-41 27-58 47-86 103-71 142-72 350-6 654 13 55 12 58-11 83-27 29-47 31-77 10z"/></g><g fill="#999796"><path d="M5435 4135c-136-30-239-89-340-196-117-123-172-250-182-414-10-158 32-297 129-427 202-273 573-349 866-176 72 42 188 158 230 230 112 190 122 435 27 626-138 273-440 421-730 357zm396-390c118-86 220-167 227-181 20-38 12-136-14-171-31-42-73-61-131-62-53-1-54 0-269 156-128 93-221 168-230 184-18 36-18 112 0 147 33 64 91 94 163 87 35-4 76-30 254-160zm-444-173c281-203 325-237 339-263 38-74 3-187-69-220-89-40-99-36-341 141-233 169-246 183-246 262 0 89 73 158 167 158 36 0 56-11 150-78zM3395 3810c-3-6 1-13 10-16 14-6 13-8-5-21-15-10-20-25-20-56-1-65-16-77-93-77-61 0-85-8-70-23 3-4 5-50 4-103-3-123 5-134 96-134h63v-63c0-88 11-97 122-97 102 0 118 11 118 82 0 56 21 78 76 78 22 0 50 7 62 16 22 15 23 22 21 114-1 54 1 102 4 108 4 5 4 12 0 16-11 11-139 6-151-6-9-9-12 4-12 59 0 61-3 74-20 86-18 13-19 15-5 21 39 14-3 26-95 26-56 0-102-4-105-10zM4186 3701c-12-13-13-20-4-29 8-8 8-15 0-25-9-10 6-30 68-92 44-44 80-76 80-71s6 3 14-3c10-8 16-9 21-1 3 5 3 10-2 10-11 1 29 24 42 25 5 0 9 10 9 23 0 12-4 22-9 22-6 0-44 34-85 74-81 79-110 94-134 67zM4549 3703c-17-20-16-79 1-75 18 4 132-109 126-125-8-20 7-22 44-5 19 8 40 16 45 16 6 1 10 11 10 24 0 12-4 22-10 22-5 0-44 34-85 74-79 77-111 94-131 69zM4205 3040c-3-6 0-12 7-15 26-10 723 0 723 10 0 14-721 19-730 5zM4076 3012c-3-6 1-15 8-21 8-7 17-8 20-3 3 6-1 15-8 21-8 7-17 8-20 3zM4011 2974c-24-25-24-25-3-30 11-3 23-15 25-26 3-12 10-17 17-13 6 4 9 13 6 21s0 11 8 8 17 0 21 6c4 7-2 14-14 17s-21 11-21 19c0 24-15 23-39-2zM4105 2960c-7-11 35-31 48-23 11 6-12 33-29 33-7 0-16-5-19-10zM4216 2952c-8-13 19-46 32-38 15 9 8 40-11 44-8 2-18-1-21-6zM4296 2951c-3-5 3-19 13-32 14-18 28-24 57-24 27 1 39 5 39 15 0 8-9 15-20 15s-28 8-37 18c-19 18-43 22-52 8zM4639 2953c-1-5-1-11 0-15 0-5-4-7-11-5-7 1-12-12-14-31-2-35 30-87 47-76 6 4 3 14-7 25-15 17-13 24 9 20 4-1 10 6 13 14s10 13 14 10 13 2 20 9c9 12 7 19-9 35-20 20-60 29-62 14zM4435 2940c-6-10-5-11 17-14 20-2 19-21-2-34-11-7-19-9-18-5 2 5-1 8-7 8-5 0-10-11-10-25 0-17 5-25 17-25 23 0 80 44 73 56-8 12 18 7 27-6 12-15 9-25-4-22-7 1-13-5-13-13s9-15 20-15c16 0 20 7 20 35 0 21 5 36 13 36 26 3 26 5 8 19-11 8-25 11-35 7-19-10-72-9-88 1-6 4-14 3-18-3zM4775 2930c-8-13 4-32 15-25 4 3 10-3 12-13 4-15 16-17 84-16 43 1 81 3 83 3 2 1-2 7-8 15s-10 20-9 27c2 8-5 14-17 14s-19-6-18-15c2-12-6-16-36-15-21 0-44 5-52 11-23 18-48 24-54 14zM4081 2906c-8-10-9-16-1-21 6-4 9-12 8-18-2-7 2-12 7-12s10 7 10 15 8 15 17 15c10 0 17 5 17 10-1 6-6 9-11 7-6-1-16 2-23 8-9 7-16 6-24-4zM4018 2904c-9-14 11-56 22-49 13 8 13 18-3 40-8 10-16 14-19 9zM4216 2882c-3-5 3-17 13-26 11-10 22-13 25-8s-3 17-13 26c-11 10-22 13-25 8zM4579 2883c-1-4-1-12 0-17 1-4-3-14-9-21-7-9-7-15-1-19 11-7 24 11 26 37 2 17-14 36-16 20zM4284 2868c-10-16 6-25 43-22 21 1 43-2 50-7 15-13 29 9 15 23-13 13-101 18-108 6zM4730 2861c-6-12-6-22-1-26 6-3 15 3 21 14 6 12 6 22 1 26-6 3-15-3-21-14zM4785 2870c-4-6-3-16 3-22s12-6 17 2c4 6 3 16-3 22s-12 6-17-2zM4854 2839c-6-10 6-15 36-14 14 0 25 4 25 10 0 11-54 14-61 4zM3033 2774c-13-35 104-110 242-155 63-20 95-23 305-27 232-4 236-3 255 18 20 22 20 22-4 41-21 17-42 19-250 19-222 0-227 1-307 29-45 15-105 42-133 59-56 35-98 41-108 16zM5896 2750c-132-73-167-80-425-80-219 0-229-1-256-22l-27-21 23-18c21-17 47-19 234-19 177 0 223 3 295 20 93 23 205 74 260 119 29 25 32 31 21 45-20 24-49 19-125-24zM4483 2657c-19-24-23-36-14-41 5-3 16 5 25 19 16 24 6 45-11 22z"/></g><g fill="#e9e7e5"><path d="M3365 4223c-77-17-190-58-238-87-156-94-292-258-341-408-37-116-41-146-40-318 0-163 2-181 28-260 38-116 95-211 184-302 60-62 78-75 92-68 13 7 45-5 126-46 147-73 202-84 449-84 188 0 201-1 212-20 12-18 28-19 295-23 156-1 293-7 305-11 19-7 26-3 40 22 29 50 88 50 95 0 3-20 8-22 38-19 19 2 159 5 310 7 255 4 276 6 291 23 14 17 35 19 245 23 219 4 233 5 309 32 44 15 111 46 149 68 56 33 73 39 87 30 36-23 170 127 239 267 56 112 71 195 69 375-1 99-7 185-17 225-34 150-140 318-261 413-161 127-305 174-511 165-162-6-277-46-411-143l-47-34H3982l-44 36c-45 39-167 101-228 116-88 23-122 27-220 26-58 0-114-2-125-5zm2347-104c29-6 96-31 148-56 76-37 109-60 166-117 72-72 82-87 129-185 42-88 59-166 59-276 0-357-282-639-639-639-110 0-188 17-276 59-98 47-113 57-185 129-57 57-81 90-117 166-57 119-71 189-65 327 5 114 14 144 76 273 49 103 149 202 252 252 72 35 143 62 185 71s216 7 267-4zm-2114-273c111-30 195-100 246-206 28-59 31-74 31-160 0-83-4-103-27-153-53-114-127-179-237-211-260-76-506 120-489 389 16 241 242 403 476 341zm732-219c79-81 87-107 39-127-30-13-31-12-105 61-78 77-94 116-56 138 27 16 48 4 122-72zm363 3c76-77 83-105 33-129-28-13-29-12-102 60-78 77-94 117-56 138 28 17 54 3 125-69zm227-615c0-13-45-15-349-15-301 0-350 2-355 15s38 15 349 15c309 0 355-2 355-15zm-828-37c2-14 12-24 28-28 23-5 26-11 22-40-1-5-11-10-21-10-14 0-21 8-23 28s-8 26-22 24c-19-4-36 13-36 36 0 6 11 12 24 12 18 0 26-6 28-22zm-57-58c0-20 6-26 28-28 30-4 38-36 11-46-21-8-34 1-34 25 0 12-10 23-25 29-33 13-35 53-2 48 16-2 22-10 22-28zm233 8c8-8 15-8 26 1 19 16 56 5 56-17 0-13-2-13-13 3-15 19-37 13-37-10 0-8-6-12-13-9-7 2-21-4-32-15-15-18-16-23-4-38 13-16 12-17-3-4-22 17-23 47-3 55 22 8 18 25-7 36-22 8-22 9-2 9 11 1 25-4 32-11zm450-1c17-13 15-30-3-24-8 4-17 2-20-3-10-16-23-11-21 8 2 30-28 19-35-13l-7-30-1 31c0 17 2 34 6 37 9 10 65 5 81-6zm123-15c5-13 14-19 22-16 10 3 16-4 20-23 7-38 1-41-24-9-22 28-39 27-39-5 0-10-4-19-10-19-5 0-10 14-10 31s-4 39-10 49c-9 16-7 18 17 16 16-2 29-11 34-24zm-302-25c1-5-3-5-9-2-5 3-10 16-9 28 0 21 1 21 9 2 5-11 9-24 9-28zm-139 1c0-5-4-8-10-8-5 0-10 10-10 23 0 18 2 19 10 7 5-8 10-18 10-22zm521-15c-9-16-10-14-11 12 0 21 3 26 11 18s8-16 0-30zm-448 1c-3-8-8-12-11-9s-12-1-21-9c-14-13-16-12-16 9 0 17 3 21 12 13 9-7 15-6 19 6 3 9 10 14 15 11 4-3 6-12 2-21zm107-15c0-11-4-19-10-19-5 0-7 7-4 15 4 8 0 23-7 33-13 15-12 16 4 3 9-7 17-22 17-32zm180-1c0-10-4-18-9-18s-11 8-13 18c-3 11 0 19 8 19s14-9 14-19z"/><path d="M5485 3904c-45-23-66-45-86-89-23-49-24-83-3-134 13-34 44-60 207-179 106-77 210-151 231-166 65-44 141-31 203 35 60 64 72 155 28 208-14 16-122 100-240 185-206 150-215 156-262 156-26 0-61-7-78-16zm134-58c81-42 62-180-28-207-85-25-158 37-147 126 10 79 99 120 175 81zm344-252c58-14 83-86 56-162-13-37-57-62-110-62-31 0-46 7-75 36-34 35-36 40-32 86 7 71 62 123 118 112 8-2 27-6 43-10zM5177 3655c-51-18-85-50-109-104-24-51-18-115 13-154 28-37 439-333 472-341 64-16 165 42 193 111 8 18 14 48 14 68 0 76-15 91-244 258-120 87-229 162-242 168-33 12-51 11-97-6zm120-66c9-8 24-32 34-55 31-70 4-127-73-154-124-44-206 137-95 210 36 23 104 23 134-1zm360-260c9-8 25-33 35-56 19-42 19-44 0-85-23-53-40-67-86-75-38-6-93 14-117 43-18 22-18 126 0 148 36 43 128 57 168 25z"/></g><path d="M4262 5810c-619-65-1147-314-1577-745-328-328-555-720-670-1158-61-234-79-378-79-657s18-423 79-657c233-886 942-1595 1828-1828 234-61 378-79 657-79s423 18 657 79c185 49 453 152 453 175 0 5-13 16-29 24-46 24-118 112-142 174-18 45-24 83-27 183-3 107 1 152 28 313 38 225 39 322 2 373-13 18-29 33-37 33-7 0-42-48-77-107-82-139-144-203-245-251l-78-37h-135c-131 0-137 1-202 32-78 37-133 90-175 170-55 103-67 168-67 358 0 158 11 248 46 384 2 8-14 18-42 27-55 17-585 20-595 4-4-6-94-10-238-10-203 0-242 3-306 20-111 31-257 111-247 135 2 7-25 41-60 76-84 83-148 186-187 302-31 89-31 97-32 272 0 211 12 271 81 406 97 188 275 326 481 373 88 20 245 21 335 2 83-18 206-74 274-126l53-40h1071l67 46c137 94 265 134 430 134 131 0 220-20 328-74 157-78 255-177 330-331 60-125 75-201 75-388 0-120-4-171-19-230-35-136-126-288-221-368-28-24-46-47-43-55 7-19-102-87-195-120-75-27-85-28-321-32-168-2-251 0-265 8-26 13-564 9-616-6-40-11-50-38-75-189-52-316-11-527 121-628 68-52 136-70 244-65 154 7 239 70 349 257 68 116 100 146 154 146 105 0 178-134 163-300-3-38-18-131-33-205-21-107-27-164-27-276-1-137 0-142 29-199 34-67 101-125 143-125 15 0 74 23 132 50 58 28 113 50 123 50 38 0 234 156 382 305 328 328 555 720 670 1158 61 234 79 378 79 657s-18 423-79 657c-233 886-942 1595-1828 1828-204 53-371 75-607 80-113 2-242 0-288-5z" fill="#e27c3e"/><path d="M0 3250V0h9000v6500H0V3250zm4900 2524c213-40 390-87 510-136 14-6 36-15 50-21 58-23 90-38 190-87 58-28 119-60 135-70 17-11 39-24 50-30 45-23 181-116 207-142 10-10 22-18 26-18s28-18 52-40c25-23 71-64 104-93 74-65 98-89 163-163 29-33 70-79 93-104 22-24 40-48 40-52s8-16 18-26c26-26 119-162 142-207 6-11 19-33 30-50 10-16 42-77 70-135 49-100 64-132 87-190 6-14 15-36 21-50 50-122 96-296 138-520 26-138 26-642 0-780-42-224-88-398-138-520-6-14-15-36-21-50-23-58-38-90-87-190-28-58-60-118-70-135-11-16-24-39-30-50-23-45-116-181-142-207-10-10-18-22-18-26s-18-28-40-52c-23-25-64-71-93-104-65-74-89-98-163-163-33-29-79-70-104-93-24-22-47-40-52-40-4 0-19-11-34-25-67-62-410-266-474-282-14-3-36-11-50-18-23-12-47-22-102-44-131-52-296-96-518-137-138-26-642-26-780 0-224 42-398 88-520 138-14 6-36 15-50 21-58 23-90 38-190 87-58 28-118 60-135 70-16 11-39 24-50 30-45 23-181 116-207 142-10 10-22 18-26 18s-28 18-52 40c-25 23-71 64-104 93-74 65-98 89-163 163-29 33-70 79-93 104-22 24-40 48-40 52s-8 16-18 26c-26 26-119 162-142 207-6 11-19 34-30 50-19 29-110 211-134 270-44 103-51 120-84 220-40 122-62 212-98 405-26 138-26 642 0 780 46 246 93 416 156 565 7 17 19 44 26 60 24 59 115 241 134 270 11 17 24 39 30 50 23 45 116 181 142 207 10 10 18 22 18 26s18 28 40 52c23 25 64 71 93 104 65 74 89 98 163 163 33 29 79 70 104 93 24 22 48 40 52 40s16 8 26 18c26 26 162 119 207 142 11 6 34 19 50 30 29 19 211 110 270 134 103 44 120 51 220 84 86 28 184 54 270 72 22 4 67 13 100 20 113 23 231 29 485 24 175-2 282-9 340-20z" fill="#1d83c1"/></svg>