<!DOCTYPE svg PUBLIC "-//W3C//DTD SVG 20010904//EN" "http://www.w3.org/TR/2001/REC-SVG-20010904/DTD/svg10.dtd">
<svg version="1.0" xmlns="http://www.w3.org/2000/svg" width="900px" height="650px" viewBox="0 0 9000 6500" preserveAspectRatio="xMidYMid meet">
<g id="layer1" fill="#3789ca" stroke="none">
 <path d="M3505 3714 c-11 -18 -14 -29 -7 -36 7 -7 15 0 26 20 20 38 4 51 -19 16z"/>
 <path d="M5468 3734 c-10 -10 21 -66 32 -59 14 9 12 17 -8 43 -10 13 -21 20 -24 16z"/>
 <path d="M3505 3314 c-11 -18 -14 -29 -7 -36 7 -7 15 0 26 20 20 38 4 51 -19 16z"/>
 <path d="M5468 3334 c-10 -10 21 -66 32 -59 14 9 12 17 -8 43 -10 13 -21 20 -24 16z"/>
 <path d="M3505 2914 c-11 -18 -14 -29 -7 -36 7 -7 15 0 26 20 20 38 4 51 -19 16z"/>
 <path d="M5468 2934 c-10 -10 21 -66 32 -59 14 9 12 17 -8 43 -10 13 -21 20 -24 16z"/>
 </g>
<g id="layer2" fill="#1a78c2" stroke="none">
 <path d="M3531 3775 c-32 -27 -47 -58 -36 -75 4 -6 18 -1 37 15 l30 25 938 0 938 0 30 -25 c19 -16 33 -21 37 -15 11 17 -4 48 -36 75 l-31 25 -938 0 -938 0 -31 -25z"/>
 <path d="M3531 3375 c-32 -27 -47 -58 -36 -75 4 -6 18 -1 37 15 l30 25 938 0 938 0 30 -25 c19 -16 33 -21 37 -15 11 17 -4 48 -36 75 l-31 25 -938 0 -938 0 -31 -25z"/>
 <path d="M3531 2975 c-32 -27 -47 -58 -36 -75 4 -6 18 -1 37 15 l30 25 938 0 938 0 30 -25 c19 -16 33 -21 37 -15 11 17 -4 48 -36 75 l-31 25 -938 0 -938 0 -31 -25z"/>
 </g>
<g id="layer3" fill="#ffffff" stroke="none">
 <path d="M468 3739 c-15 -11 -32 -35 -38 -54 -10 -30 -9 -41 7 -73 37 -76 -23 -72 996 -72 981 0 954 -1 990 53 29 44 22 94 -17 133 l-34 34 -938 0 c-924 -1 -939 -1 -966 -21z"/>
 <path d="M3542 3744 c-28 -19 -52 -65 -52 -99 0 -15 14 -40 34 -63 l34 -37 942 0 942 0 34 37 c37 41 43 72 19 118 -33 64 33 60 -995 60 -832 0 -938 -2 -958 -16z"/>
 <path d="M6674 3726 c-53 -53 -44 -123 22 -167 28 -18 56 -19 947 -19 1013 0 957 -4 997 63 25 40 25 64 1 101 -38 58 10 55 -999 56 l-934 0 -34 -34z"/>
 <path d="M468 3339 c-15 -11 -32 -35 -38 -54 -10 -30 -9 -41 7 -73 37 -76 -23 -72 996 -72 981 0 954 -1 990 53 29 44 22 94 -17 133 l-34 34 -938 0 c-924 -1 -939 -1 -966 -21z"/>
 <path d="M3542 3344 c-28 -19 -52 -65 -52 -99 0 -15 14 -40 34 -63 l34 -37 942 0 942 0 34 37 c37 41 43 72 19 118 -33 64 33 60 -995 60 -832 0 -938 -2 -958 -16z"/>
 <path d="M6674 3326 c-53 -53 -44 -123 22 -167 28 -18 56 -19 947 -19 1013 0 957 -4 997 63 25 40 25 64 1 101 -38 58 10 55 -999 56 l-934 0 -34 -34z"/>
 <path d="M468 2939 c-15 -11 -32 -35 -38 -54 -10 -30 -9 -41 7 -73 37 -76 -23 -72 996 -72 981 0 954 -1 990 53 29 44 22 94 -17 133 l-34 34 -938 0 c-924 -1 -939 -1 -966 -21z"/>
 <path d="M3542 2944 c-28 -19 -52 -65 -52 -99 0 -15 14 -40 34 -63 l34 -37 942 0 942 0 34 37 c37 41 43 72 19 118 -33 64 33 60 -995 60 -832 0 -938 -2 -958 -16z"/>
 <path d="M6674 2926 c-53 -53 -44 -123 22 -167 28 -18 56 -19 947 -19 1013 0 957 -4 997 63 25 40 25 64 1 101 -38 58 10 55 -999 56 l-934 0 -34 -34z"/>
 </g>
<g id="layer4" fill="#2195f2" stroke="none">
 <path d="M0 3250 l0 -3250 4500 0 4500 0 0 3250 0 3250 -4500 0 -4500 0 0 -3250z m5465 505 c35 -35 36 -121 1 -162 l-24 -28 -942 0 -942 0 -24 28 c-35 41 -34 127 1 162 l24 25 941 0 941 0 24 -25z m-3070 -40 c18 -17 25 -35 25 -62 -1 -45 -16 -68 -54 -83 -18 -7 -330 -10 -932 -10 -1002 0 -962 -3 -983 63 -13 39 -2 81 27 103 14 11 201 13 955 14 l938 0 24 -25z m6216 -4 c31 -32 36 -55 17 -96 -26 -57 12 -55 -988 -55 l-922 0 -29 29 c-38 38 -40 91 -4 126 l24 25 936 0 937 0 29 -29z m-3146 -356 c35 -35 36 -121 1 -162 l-24 -28 -942 0 -942 0 -24 28 c-35 41 -34 127 1 162 l24 25 941 0 941 0 24 -25z m-3070 -40 c18 -17 25 -35 25 -62 -1 -45 -16 -68 -54 -83 -18 -7 -330 -10 -932 -10 -1002 0 -962 -3 -983 63 -13 39 -2 81 27 103 14 11 201 13 955 14 l938 0 24 -25z m6216 -4 c31 -32 36 -55 17 -96 -26 -57 12 -55 -988 -55 l-922 0 -29 29 c-38 38 -40 91 -4 126 l24 25 936 0 937 0 29 -29z m-3146 -356 c35 -35 36 -121 1 -162 l-24 -28 -942 0 -942 0 -24 28 c-35 41 -34 127 1 162 l24 25 941 0 941 0 24 -25z m-3070 -40 c18 -17 25 -35 25 -62 -1 -45 -16 -68 -54 -83 -18 -7 -330 -10 -932 -10 -1002 0 -962 -3 -983 63 -13 39 -2 81 27 103 14 11 201 13 955 14 l938 0 24 -25z m6216 -4 c31 -32 36 -55 17 -96 -26 -57 12 -55 -988 -55 l-922 0 -29 29 c-38 38 -40 91 -4 126 l24 25 936 0 937 0 29 -29z"/>
 </g>

</svg>