<!DOCTYPE svg PUBLIC "-//W3C//DTD SVG 20010904//EN" "http://www.w3.org/TR/2001/REC-SVG-20010904/DTD/svg10.dtd"><svg version="1" xmlns="http://www.w3.org/2000/svg" width="900" height="650" viewBox="0 0 9000 6500"><g fill="#545454"><path d="M3334 5167c-3-8-4-52-2-98l3-84h410v190l-203 3c-163 2-203 0-208-11zM5244 5167c-3-8-4-52-2-98l3-84h410v190l-203 3c-163 2-203 0-208-11zM3124 1975c-13-32 17-121 111-334 138-313 134-310 429-311h198l303 298c166 163 300 300 298 305-2 4-289 7-638 7h-633l-31 26c-27 23-32 24-37 9z"/></g><path d="M4548 4502c-19-20-62-70-96-110l-62-73v-294c0-290 0-294-21-300-33-11-98-74-120-117l-19-38h-475l-77-92c-42-50-75-95-72-100 3-4 143-8 312-8h308l35-52c19-28 55-65 81-82l46-31 4-417 3-418 28-27c38-38 96-38 134 0l28 27 3 415 3 415 37 19c43 22 116 97 126 129 7 21 9 21 431 24l425 3 25 26c14 14 28 42 32 62 5 32 1 41-30 72l-35 35h-828l-35 53c-20 30-57 67-87 87l-52 34v392c0 216-4 395-8 398-5 3-24-12-44-32z" fill="#bfc4c4"/><g fill="#737373"><path d="M3210 4989c-14-6-36-20-48-32-55-51-52 4-52-1100 0-563 3-1027 7-1031 4-3 22 8 40 26l33 32v1011c0 773 3 1014 12 1023s214 12 863 12h851l27 28c15 16 24 31 20 35-11 11-1725 7-1753-4z"/><path d="M3391 4762c-19-9-44-30-55-45-21-28-21-37-24-840-1-446 2-815 6-819 5-5 25 11 45 36l37 44v207l89-3c80-3 91-1 100 16 6 11 7 22 4 26-3 3-49 6-100 6-106 0-127 7-141 48-13 39-5 76 24 103l24 22v1089l29 29 29 29h1278l22 29c11 16 18 31 15 35-4 3-308 6-677 6-619 0-674-1-705-18z"/><path d="M4010 3903c-60-68-102-131-91-137 10-7 162 169 154 178-12 12-22 5-63-41zM5856 2793c-4-4-6-181-6-394 1-258-2-395-9-408-29-53-4-51-718-51h-663l-303-297c-167-164-301-301-299-305 5-11 1639-9 1686 2 65 14 128 86 171 194 21 50 44 106 51 123 8 18 22 50 31 70 9 21 22 50 29 64 13 25 27 75 44 154 11 54 13 842 2 849-5 3-12 2-16-1zM3117 2014c-10-10-9-42 2-48 5-3 14 0 20 7 12 15-9 54-22 41zM3165 1951c-3-6 3-15 14-21 12-6 22-6 26-1 3 6-3 15-14 21-12 6-22 6-26 1z"/></g><g fill="#858787"><path d="M4295 5810c-8-13 20-24 41-16 20 8 9 26-16 26-10 0-22-5-25-10zM4655 5810c-8-13 20-24 41-16 20 8 9 26-16 26-10 0-22-5-25-10zM4185 5800c-8-13 20-24 41-16 20 8 9 26-16 26-10 0-22-5-25-10zM4765 5800c-8-13 20-24 41-16 20 8 9 26-16 26-10 0-22-5-25-10zM4115 5790c-8-12 20-24 35-15 6 3 8 11 5 16-8 12-32 12-40-1zM4845 5790c-8-12 20-24 35-15 6 3 8 11 5 16-8 12-32 12-40-1zM4055 5781c-7-12 12-24 25-16 11 7 4 25-10 25-5 0-11-4-15-9zM4915 5781c-7-12 12-24 25-16 11 7 4 25-10 25-5 0-11-4-15-9zM3865 5741c-7-12 12-24 25-16 11 7 4 25-10 25-5 0-11-4-15-9zM5105 5741c-7-12 12-24 25-16 11 7 4 25-10 25-5 0-11-4-15-9zM3011 5346c-7-8-8-17-3-20 6-3 15 1 21 8 7 8 8 17 3 20-6 3-15-1-21-8zM5966 5352c-3-6 1-15 8-21 8-7 17-8 20-3 3 6-1 15-8 21-8 7-17 8-20 3zM2891 5256c-7-8-8-17-3-20 6-3 15 1 21 8 7 8 8 17 3 20-6 3-15-1-21-8zM6086 5262c-3-6 1-15 8-21 8-7 17-8 20-3 3 6-1 15-8 21-8 7-17 8-20 3zM3174 4990c-39-26-73-85-57-101 8-8 15-3 27 20 24 45 59 64 134 70 37 3 67 11 67 16 0 6-31 11-70 13-56 2-76-2-101-18z"/><path d="M3738 5005c-4-4-5-12-2-16 3-5 275-9 606-9 533 0 599-2 588-15s-120-15-866-15c-841 0-854 0-874-20s-20-33-20-1033V2884l-30-29-30-29v-405c0-385 1-408 20-438 41-67-55-63 1369-63h1289l41 35 42 34-1 1462c0 1368-1 1463-18 1491-40 68 32 64-1092 67-558 2-1018 0-1022-4zm2040-87c17-17 17-2889 0-2906s-2559-17-2576 0c-9 9-12 121-12 441v429l58 68 57 69 5-399c5-383 6-400 26-427 11-15 36-36 55-45 32-17 105-18 1099-18s1067 1 1099 18c19 9 44 30 55 45 21 28 21 40 24 625 1 328 0 603-3 610-4 11-11 8-30-12l-24-26h-851l-13-32c-22-51-65-97-124-130-50-28-65-49-43-63 26-16 139 75 171 137l19 38h75c89 0 90-3 46-95-53-111-151-193-274-229l-42-12-3-159c-1-87 1-162 6-167 14-14 140 19 218 58 188 93 327 273 368 476 9 42 16 89 16 103v25h420V2278l-29-29-29-29H3458l-29 29-29 29v853l88 104 87 104h123l122 1v-25c0-54 33-183 64-250 67-144 181-261 321-330 85-42 194-70 201-51 2 6 3 81 2 165-2 125-6 155-18 161-181 83-228 123-281 235-44 92-43 95 45 95 72 0 74 0 86-30 24-59 134-151 160-135 21 13 9 35-29 54-45 24-87 66-117 118l-21 38-320 3c-276 2-322 0-333-13-18-22-175-22-166 0 4 10-3 19-19 27-54 25-54 112 1 137 15 7 89 11 193 11h169l38 46c22 26 47 56 56 68 16 20 17 19 4-19-8-22-16-51-18-65l-3-25h239l33 68c52 108 124 171 256 226l47 20v114c0 63-3 116-6 119-9 9-116-19-178-46-31-14-53-20-49-13s58 71 120 144l113 132v123c0 139 9 168 56 181 43 12 84-9 98-50 6-17 14-34 17-38 3-3 41 35 83 85l77 90h801l29-29 29-29V3564l28-27c16-15 31-24 35-20 4 3 7 263 7 577 0 630 2 613-63 660-27 20-42 21-418 24l-390 3 63 74 63 74 420 1c315 0 424-3 433-12zm-1038-173c-11-13-95-15-647-15h-635l-39-39-39-39V3563l-25-23-25-23v572c0 634-1 629 62 656 27 12 144 14 697 15 589 0 662-2 651-15zM3382 3255c-3-109-5-121-28-148l-24-29v350l28-27c27-27 27-28 24-146z"/><path d="M4584 4097c-2-7-3-62-2-121l3-108 63-24c118-44 194-113 249-229l28-60 110-3c60-1 114-1 121 2 10 4 9 17-3 62-53 206-233 395-438 462-89 29-125 34-131 19zM4395 2370c-19-30 47-100 95-100s114 70 95 100c-4 7-16 1-30-15-18-19-34-25-65-25s-47 6-65 25c-14 16-26 22-30 15zM2491 4856c-7-8-8-17-3-20 6-3 15 1 21 8 7 8 8 17 3 20-6 3-15-1-21-8zM6486 4862c-3-6 1-15 8-21 8-7 17-8 20-3 3 6-1 15-8 21-8 7-17 8-20 3zM2401 4736c-7-8-8-17-3-20 6-3 15 1 21 8 7 8 8 17 3 20-6 3-15-1-21-8zM6576 4742c-3-6 1-15 8-21 8-7 17-8 20-3 3 6-1 15-8 21-8 7-17 8-20 3zM2005 3880c-4-6-3-16 3-22s12-6 17 2c4 6 3 16-3 22s-12 6-17-2zM6975 3880c-4-6-3-16 3-22s12-6 17 2c4 6 3 16-3 22s-12 6-17-2zM1965 3690c-4-6-3-16 3-22s12-6 17 2c4 6 3 16-3 22s-12 6-17-2zM7015 3690c-4-6-3-16 3-22s12-6 17 2c4 6 3 16-3 22s-12 6-17-2zM1954 3626c-4-10-2-22 4-28 8-8 13-7 18 6 4 10 2 22-4 28-8 8-13 7-18-6zM7024 3626c-4-10-2-22 4-28 8-8 13-7 18 6 4 10 2 22-4 28-8 8-13 7-18-6zM1944 3556c-8-21 3-49 16-41 5 3 10 15 10 25 0 25-18 36-26 16zM7034 3556c-8-21 3-49 16-41 5 3 10 15 10 25 0 25-18 36-26 16zM1934 3446c-8-21 3-49 16-41 5 3 10 15 10 25 0 25-18 36-26 16zM7044 3446c-8-21 3-49 16-41 5 3 10 15 10 25 0 25-18 36-26 16zM1934 3086c-8-21 3-49 16-41 5 3 10 15 10 25 0 25-18 36-26 16zM7044 3086c-8-21 3-49 16-41 5 3 10 15 10 25 0 25-18 36-26 16zM1944 2976c-8-21 3-49 16-41 5 3 10 15 10 25 0 25-18 36-26 16zM7034 2976c-8-21 3-49 16-41 5 3 10 15 10 25 0 25-18 36-26 16zM1954 2896c-4-10-2-22 4-28 8-8 13-7 18 6 4 10 2 22-4 28-8 8-13 7-18-6zM7024 2896c-4-10-2-22 4-28 8-8 13-7 18 6 4 10 2 22-4 28-8 8-13 7-18-6zM1965 2830c-4-6-3-16 3-22s12-6 17 2c4 6 3 16-3 22s-12 6-17-2zM7015 2830c-4-6-3-16 3-22s12-6 17 2c4 6 3 16-3 22s-12 6-17-2zM2005 2640c-4-6-3-16 3-22s12-6 17 2c4 6 3 16-3 22s-12 6-17-2zM6975 2640c-4-6-3-16 3-22s12-6 17 2c4 6 3 16-3 22s-12 6-17-2zM5835 1890c-4-6-3-16 3-22s12-6 17 2c4 6 3 16-3 22s-12 6-17-2zM2396 1782c-3-6 1-15 8-21 8-7 17-8 20-3 3 6-1 15-8 21-8 7-17 8-20 3zM5795 1780c-4-6-3-16 3-22s12-6 17 2c4 6 3 16-3 22s-12 6-17-2zM6581 1776c-7-8-8-17-3-20 6-3 15 1 21 8 7 8 8 17 3 20-6 3-15-1-21-8zM5765 1710c-4-6-3-16 3-22s12-6 17 2c4 6 3 16-3 22s-12 6-17-2zM2486 1662c-3-6 1-15 8-21 8-7 17-8 20-3 3 6-1 15-8 21-8 7-17 8-20 3zM6491 1656c-7-8-8-17-3-20 6-3 15 1 21 8 7 8 8 17 3 20-6 3-15-1-21-8zM5735 1640c-4-6-3-16 3-22s12-6 17 2c4 6 3 16-3 22s-12 6-17-2zM5621 1406c-18-19-29-36-23-39 5-4 23 9 41 27 18 19 29 36 23 39-5 4-23-9-41-27zM5515 1351c-7-12 12-24 25-16 11 7 4 25-10 25-5 0-11-4-15-9zM2886 1262c-3-6 1-15 8-21 8-7 17-8 20-3 3 6-1 15-8 21-8 7-17 8-20 3zM6091 1256c-7-8-8-17-3-20 6-3 15 1 21 8 7 8 8 17 3 20-6 3-15-1-21-8zM3006 1172c-3-6 1-15 8-21 8-7 17-8 20-3 3 6-1 15-8 21-8 7-17 8-20 3zM5971 1166c-7-8-8-17-3-20 6-3 15 1 21 8 7 8 8 17 3 20-6 3-15-1-21-8zM3865 771c-7-12 12-24 25-16 11 7 4 25-10 25-5 0-11-4-15-9zM5105 771c-7-12 12-24 25-16 11 7 4 25-10 25-5 0-11-4-15-9zM4055 731c-7-12 12-24 25-16 11 7 4 25-10 25-5 0-11-4-15-9zM4915 731c-7-12 12-24 25-16 11 7 4 25-10 25-5 0-11-4-15-9zM4115 720c-8-12 20-24 35-15 6 3 8 11 5 16-8 12-32 12-40-1zM4845 720c-8-12 20-24 35-15 6 3 8 11 5 16-8 12-32 12-40-1zM4185 710c-8-13 20-24 41-16 20 8 9 26-16 26-10 0-22-5-25-10zM4765 710c-8-13 20-24 41-16 20 8 9 26-16 26-10 0-22-5-25-10zM4295 700c-8-13 20-24 41-16 20 8 9 26-16 26-10 0-22-5-25-10zM4655 700c-8-13 20-24 41-16 20 8 9 26-16 26-10 0-22-5-25-10z"/></g><g fill="#a5a8a8"><path d="M4851 4865c-40-47-69-89-66-95 4-6 143-10 386-10 311 0 386-3 415-15 65-27 64-19 64-646 0-498-2-560-15-549s-15 85-15 557v545l-39 39-39 39h-807l-70-84c-65-79-85-94-85-62 0 7-12 23-26 37-36 34-95 33-131-4-27-27-28-30-31-163l-4-136-133-157c-74-86-130-159-126-164 4-4 38 9 76 28s94 40 125 46c30 7 61 17 68 22 8 6 12 43 12 117v108l83 98 82 97 3-204c1-112 6-207 11-212 4-4 36-15 71-23 221-51 420-242 471-450 7-27 16-55 22-61 7-10 65-13 229-13h219l24-25c39-38 27-107-21-125-22-9-24-13-14-25 11-13-16-15-206-17l-218-3-12-80c-15-105-30-158-64-225-90-179-236-295-435-345l-80-20-5-155c-3-85-9-161-13-168-5-7-20-18-35-23-18-7-22-13-15-20 8-8 18-7 34 1l24 11-24-20c-30-27-72-27-102 0l-24 20 24-11c16-8 26-9 34-1 7 7 2 13-17 20-39 15-46 47-46 200 0 99-4 141-12 148-7 5-38 15-68 22-69 14-175 67-246 122-134 103-228 291-246 494l-3 30-130 3-130 2-97-115-98-115v-852l39-39 39-39h2084l39 39 39 39-2 550c-3 515-2 551 15 561 16 11 17-19 17-564 0-642 1-633-64-660-53-22-2139-22-2192 0-63 26-64 36-64 479 0 222-4 397-9 400s-41-32-80-78l-71-83v-432c0-418 1-432 20-451 20-20 33-20 1300-20s1280 0 1300 20 20 33 20 1465 0 1445-20 1465c-19 19-33 20-443 20h-423l-73-85z"/><path d="M4345 3862c-74-31-132-71-180-124s-109-164-99-180c3-4 43-8 89-8h85l24 49c26 50 59 83 115 113 32 18 32 18 29 89-2 40-7 74-13 75-5 2-28-5-50-14zM4587 3874c-4-4-7-38-7-75v-68l50-27c51-28 83-62 114-121l17-33h84c46 0 86 4 89 8 12 20-57 137-117 196-74 74-207 143-230 120zM3818 3645l-63-74-170-1c-148 0-174-2-201-19-43-26-60-71-44-112 22-53 61-69 171-69h96l74 89c70 85 76 89 118 93 26 2 47 9 52 18 18 37 46 140 39 145-5 3-37-28-72-70zM4226 3382c-4-7-4-13 1-14 4-1-32-4-82-7-89-6-90-6-87-31 6-49 59-146 110-201 52-56 161-124 212-131 25-3 25-3 28 89l3 92-33 17c-42 21-84 54-70 54 6 0 14-5 17-10 10-16 63-41 69-31 3 4-16 22-42 39-26 16-58 49-72 71-43 71-46 75-54 63zM4731 3343c-24-48-63-84-120-113-29-14-40-25-33-32 12-12 57 10 109 54 35 30 36 30 13 4-14-16-49-42-78-58l-53-30 3-87 3-86 34 3c56 4 166 69 223 131 51 55 104 152 110 201 3 25 2 25-82 28-46 2-90 8-96 13-10 8-18 1-33-28z"/></g><path d="M4310 5814c-312-37-491-75-685-146-554-203-1028-596-1336-1108-168-281-280-597-331-934-31-201-31-551 0-752 107-709 474-1299 1084-1740 211-153 523-296 805-370 228-59 383-78 653-78s425 19 653 78c646 169 1207 592 1558 1176 168 281 280 597 331 934 31 201 31 551 0 752-38 256-109 490-217 719-249 529-701 981-1230 1230-338 159-660 233-1050 240-110 2-216 1-235-1zm-578-736l3-83h1520l3 83 3 82h378l3-82 3-83 73-5c67-5 76-8 101-36l28-31 6-1470c5-1245 4-1480-8-1538-18-84-188-485-218-513-57-54-13-52-1129-52-981 0-1035 1-1073 19-22 10-48 27-58 38-28 32-197 420-218 502-18 72-19 126-19 1542v1469l29 32c27 31 35 33 108 38l78 5 3 83 3 82h378l3-82z" fill="#efc84a"/><path d="M0 3250V0h9000v6500H0V3250zm4761 2540c135-14 325-52 469-95 823-243 1472-892 1715-1715 73-248 105-468 105-730s-32-482-105-730c-243-823-892-1472-1715-1715-248-73-468-105-730-105s-482 32-730 105c-823 243-1472 892-1715 1715-73 248-105 468-105 730s32 482 105 730c218 740 770 1348 1485 1635 206 83 479 152 681 174 121 12 419 13 540 1z" fill="#1037b5"/></svg>