<!DOCTYPE svg PUBLIC "-//W3C//DTD SVG 20010904//EN" "http://www.w3.org/TR/2001/REC-SVG-20010904/DTD/svg10.dtd"><svg version="1" xmlns="http://www.w3.org/2000/svg" width="900" height="650" viewBox="0 0 9000 6500"><g fill="#31919a"><path d="M3365 3900c-4-6-10-8-15-5s-11 1-14-4c-4-5-2-12 3-15 5-4 12-2 16 4s10 8 15 5 11-1 14 4c4 5 2 12-3 15-5 4-12 2-16-4zM5152 3898c-7-7-12-9-12-5s-9 3-20-3-18-15-15-21c4-5 15-4 28 3 12 7 25 12 29 13 12 0 19 13 10 19-5 3-14 0-20-6zM5285 3900c-3-5-4-11-1-11 3-1 9-2 14-3 4-1 21-10 39-19 19-10 34-13 38-7 3 5-8 16-25 25-16 8-30 13-30 9s-6-1-14 5c-10 8-16 9-21 1zM4486 3852c-3-5 5-19 18-31 13-13 26-18 30-13 3 5-5 19-18 31-13 13-26 18-30 13zM4537 3794c-9-10 22-66 33-59 6 4 4 18-5 36-17 31-18 32-28 23zM5000 3770c-6-11-8-20-4-20 3 0 1-6-5-14-8-10-9-16-1-21 5-3 11-4 11-1 1 3 2 9 3 14 1 4 7 17 14 29 7 13 8 24 3 28-6 3-15-4-21-15zM3209 3776c-1-3-2-9-3-13-1-5-5-13-9-20-4-6-3-14 3-18 5-3 11-4 11-1 1 3 2 9 3 14 1 4 5 12 9 19 4 6 3 14-3 18-5 3-11 4-11 1zM4099 3756c-1-3-2-9-3-13-1-5-5-13-9-20-4-6-3-14 3-18 5-3 11-4 11-1 1 3 2 9 3 14 1 4 5 12 9 19 4 6 3 14-3 18-5 3-11 4-11 1zM5465 3700c-4-6-3-16 3-22s12-6 17 2c4 6 3 16-3 22s-12 6-17-2zM4974 3677c-7-20-2-47 11-50 14-3 19 43 6 56-7 7-12 6-17-6zM3675 3670c-4-6-3-16 3-22s12-6 17 2c4 6 3 16-3 22s-12 6-17-2zM5465 3640c-4-6-3-16 3-22s12-6 17 2c4 6 3 16-3 22s-12 6-17-2zM3669 3606c-1-3-2-9-3-13-1-5-5-13-9-20-4-6-3-14 3-18 5-3 11-4 11-1 1 3 2 9 3 14 1 4 5 12 9 19 4 6 3 14-3 18-5 3-11 4-11 1zM5440 3551c-6-12-6-22-1-26 6-3 15 3 21 14 6 12 6 22 1 26-6 3-15-3-21-14zM4107 3553c-4-6 0-18 7-28 8-11 16-14 19-8 4 6 0 18-7 28-8 11-16 14-19 8zM5036 3502c-3-5 5-19 18-31 13-13 26-18 30-13 3 5-5 19-18 31-13 13-26 18-30 13zM3601 3486c-7-8-8-17-3-20 6-3 15 1 21 8 7 8 8 17 3 20-6 3-15-1-21-8zM3545 3446c-11-8-14-16-8-19 6-4 18 0 28 7 11 8 14 16 8 19-6 4-18 0-28-7zM5095 3451c-3-6 3-15 14-21 12-6 22-6 26-1 3 6-3 15-14 21-12 6-22 6-26 1zM5335 3446c-11-8-14-16-8-19 6-4 18 0 28 7 11 8 14 16 8 19-6 4-18 0-28-7zM3637 1690c-15-21-16-68-1-60 5 3 8 9 6 14-1 4 4 19 13 32 18 28 2 42-18 14zM3707 1704c-4-4-3-12 2-18s11-22 13-36c4-30 22-33 26-4 3 23-29 70-41 58z"/></g><g fill="#5e8762"><path d="M3395 3910c-3-5 0-13 8-16 23-8 82 0 82 11 0 14-82 19-90 5zM4295 3910c-3-5 0-13 9-16 21-8 71-1 71 11 0 14-72 19-80 5zM5185 3910c-3-5 0-13 8-16 23-8 82 0 82 11 0 14-82 19-90 5zM3352 3898c-7-7-12-9-12-5s-9 3-20-3-18-15-15-21c4-5 15-4 28 3 12 7 25 12 29 13 12 0 19 13 10 19-5 3-14 0-20-6zM4217 3889c-21-11-35-24-32-29 6-10 86 23 86 36 1 15-15 13-54-7zM4395 3901c-4-8 57-43 88-49 22-5 5 16-29 35-44 25-50 27-59 14zM3246 3830c-20-23-34-46-30-51 3-6 9-7 13-2 3 4 21 24 39 44 19 20 29 39 24 43-5 3-26-12-46-34zM5376 3862c-3-5 8-21 23-36 16-15 31-23 35-18 3 5-8 21-23 36-16 15-31 23-35 18zM4115 3796c-9-14-18-31-19-38s-5-18-9-25c-4-6-3-14 2-17 5-4 12-2 16 4 3 5 4 10 0 10-3 0 6 18 20 40 13 21 20 42 15 45s-16-6-25-19zM5437 3793c-4-6 0-18 7-28 8-11 16-14 19-8 4 6 0 18-7 28-8 11-16 14-19 8zM3199 3756c-1-3-2-9-3-13-1-5-5-13-9-20-4-6-3-14 3-18 5-3 11-4 11-1 1 3 2 9 3 14 1 4 5 12 9 19 4 6 3 14-3 18-5 3-11 4-11 1zM4989 3746c-1-3-2-9-3-13-1-5-5-14-9-20-5-7-5-18-2-23 9-14 28-1 21 15-2 7 0 17 6 23s6 12-1 16c-6 4-12 5-12 2zM5465 3720c-4-6-3-16 3-22s12-6 17 2c4 6 3 16-3 22s-12 6-17-2zM3677 3703c-9-15-2-88 8-88 12 0 17 83 5 90-5 3-11 2-13-2zM4074 3677c-7-20-2-47 11-50 14-3 19 43 6 56-7 7-12 6-17-6zM4975 3630c-4-6-3-16 3-22s12-6 17 2c4 6 3 16-3 22s-12 6-17-2zM5465 3620c-4-6-4-14-1-17s1-12-5-19c-6-8-6-14 0-18 5-4 12-2 16 4 3 5 3 10-1 10-3 0-1 7 6 15 9 11 10 19 3 26-8 8-13 7-18-1zM3185 3610c-4-6-3-16 3-22s12-6 17 2c4 6 3 16-3 22s-12 6-17-2zM4560 3586c-5-15-15-36-20-46-6-12-7-21 0-25 14-9 54 75 41 88-7 7-13 2-21-17zM3660 3575c-6-15-13-31-15-36-3-4-1-10 4-14 15-9 45 55 32 68-7 7-13 2-21-18zM4987 3584c-6-6 16-57 35-81 24-30 24 1 1 42-27 48-26 48-36 39zM3621 3506c-7-8-8-17-3-20 6-3 15 1 21 8 7 8 8 17 3 20-6 3-15-1-21-8zM4126 3512c-3-5 8-21 23-36 16-15 31-23 35-18 3 5-8 21-23 36-16 15-31 23-35 18zM3581 3466c-7-8-8-17-3-20 6-3 15 1 21 8 7 8 8 17 3 20-6 3-15-1-21-8zM4195 3450c-3-5 8-16 25-25 16-8 30-13 30-9s6 1 14-5c10-8 16-9 21-1 3 5 4 11 1 11-3 1-9 2-13 3-5 1-22 10-40 19-19 10-34 13-38 7zM4430 3439c-19-12-36-21-37-20-2 0-3-1-3-4v-11c0-4 7-1 15 6s15 10 15 6 14 1 30 9c17 9 28 20 25 25-8 13-4 13-45-11zM3515 3430c-4-6-10-8-15-5s-11 1-14-4c-4-5-2-12 3-15 5-4 12-2 16 4s10 8 15 5 11-1 14 4c4 5 2 12-3 15-5 4-12 2-16-4zM3365 3421c-7-12 12-24 25-16 11 7 4 25-10 25-5 0-11-4-15-9zM5155 3421c-7-12 12-24 25-16 11 7 4 25-10 25-5 0-11-4-15-9zM5275 3421c-7-12 12-24 25-16 11 7 4 25-10 25-5 0-11-4-15-9z"/></g><g fill="#8d7c28"><path d="M3376 3913c-4-5-12-9-17-9-5-1-11-3-14-4s-9-3-15-4c-5 0-10-4-10-8v-14c0-4 6-2 13 4 6 6 15 11 20 11 4 1 10 2 15 2 4 1 12 2 17 3 13 1 19 20 8 23-5 2-13 0-17-4zM3475 3910c-3-5-4-11-1-11 14-3 23-6 50-18 16-6 32-14 37-16 4-3 10-1 14 4 6 11-53 46-63 37-3-3-11-1-18 5-8 7-14 7-19-1zM4275 3911c-7-12 12-24 25-16 11 7 4 25-10 25-5 0-11-4-15-9zM4365 3911c-7-12 12-24 25-16 11 7 4 25-10 25-5 0-11-4-15-9zM4217 3894c-38-20-24-38 14-19 16 9 27 20 24 25-7 12-4 13-38-6zM5115 3893c-41-21-106-84-98-96 3-5 22 7 42 26s51 42 69 51 30 21 27 26c-7 12-4 13-40-7zM4435 3891c-3-6 3-15 14-21 12-6 22-6 26-1 3 6-3 15-14 21-12 6-22 6-26 1zM3586 3862c-3-5 8-21 23-36 16-15 31-23 35-18 3 5-8 21-23 36-16 15-31 23-35 18zM4146 3841c-15-16-23-31-18-35 5-3 21 8 36 23 15 16 23 31 18 35-5 3-21-8-36-23zM4496 3852c-3-5 3-17 13-26 11-10 22-13 25-8s-3 17-13 26c-11 10-22 13-25 8zM3205 3780c-8-16-13-30-9-30s1-6-5-14c-8-10-9-16-1-21 5-3 11-4 11-1 1 3 2 9 3 14 1 4 10 21 19 39 10 19 13 34 7 38-5 3-16-8-25-25zM3647 3794c-9-10 22-66 33-59 6 4 4 18-5 36-17 31-18 32-28 23zM4100 3780c-6-11-8-20-4-20 3 0 1-6-5-14-8-10-9-16-1-21 5-3 11-4 11-1 1 3 2 9 3 14 1 4 7 17 14 29 7 13 8 24 3 28-6 3-15-4-21-15zM5447 3783c-3-5 1-23 9-41 17-42 37-34 22 8-11 32-24 45-31 33zM4989 3756c-1-3-2-9-3-13-1-5-5-13-9-20-4-6-3-14 3-18 5-3 11-4 11-1 1 3 2 9 3 14 1 4 5 12 9 19 4 6 3 14-3 18-5 3-11 4-11 1zM4565 3740c-4-6-3-16 3-22s12-6 17 2c4 6 3 16-3 22s-12 6-17-2zM4075 3700c-4-6-3-16 3-22s12-6 17 2c4 6 3 16-3 22s-12 6-17-2zM4575 3688c-9-22-2-68 10-71 14-3 19 63 6 76-7 7-12 5-16-5zM4075 3630c-4-6-3-16 3-22s12-6 17 2c4 6 3 16-3 22s-12 6-17-2zM3675 3620c-4-6-3-16 3-22s12-6 17 2c4 6 3 16-3 22s-12 6-17-2zM4975 3610c-4-6-1-17 5-25 7-8 10-15 6-15s1-14 9-30c9-17 20-28 25-25 6 4 3 19-7 38-9 18-16 37-15 44 3 16-15 26-23 13zM5469 3606c-1-3-2-9-3-13-1-5-5-13-9-20-4-6-3-14 3-18 5-3 11-4 11-1 1 3 2 9 3 14 1 4 5 12 9 19 4 6 3 14-3 18-5 3-11 4-11 1zM3186 3592c-19-30 91-159 154-181 49-16 45 7-4 30-52 24-99 73-121 124-14 36-20 41-29 27zM4537 3530c-26-40-22-64 5-32 24 27 39 60 30 66-5 3-21-12-35-34zM3646 3535c-16-24-6-45 11-22 19 24 23 36 14 41-5 3-16-5-25-19zM4107 3543c-4-6 0-18 7-28 8-11 16-14 19-8 4 6 0 18-7 28-8 11-16 14-19 8zM5026 3502c-3-5 5-19 18-31 13-13 26-18 30-13 3 5-5 19-18 31-13 13-26 18-30 13zM5387 3475c-22-19-34-36-28-39 6-4 27 8 47 27 48 44 31 55-19 12zM3611 3486c-7-8-8-17-3-20 6-3 15 1 21 8 7 8 8 17 3 20-6 3-15-1-21-8zM4481 3466c-7-8-8-17-3-20 6-3 15 1 21 8 7 8 8 17 3 20-6 3-15-1-21-8zM4175 3460c-6-9 34-40 57-44 7-1 18-5 25-9 6-4 14-3 17 2 4 5 2 12-4 16-5 3-10 4-10 0 0-3-18 6-40 20-21 13-42 20-45 15zM3540 3439c-19-12-36-21-37-20-2 0-3-1-3-4v-11c0-4 7-1 15 6s15 10 15 6 14 1 30 9c17 9 28 20 25 25-8 13-4 13-45-11zM4434 3436c-10-8-22-14-26-15-5 0-8-3-8-6 0-4 6-6 13-4 1 0 10 2 21 4 24 5 41 21 29 28-6 4-18 0-29-7zM3415 3410c-8-12 20-24 35-15 6 3 8 11 5 16-8 12-32 12-40-1zM4315 3410c-8-12 20-24 35-15 6 3 8 11 5 16-8 12-32 12-40-1zM5205 3410c-8-13 20-24 41-16 20 8 9 26-16 26-10 0-22-5-25-10z"/></g><g fill="#9acae2"><path d="M6699 3801c-40-41-41-98-1-142 62-70 175-23 175 72 0 90-110 134-174 70zM6532 3727c-12-13-22-35-22-48 0-33 42-73 70-66 21 5 28-7 10-18-36-22 21-115 70-115 42 0 81 38 82 78 1 43-38 85-79 84-27 0-29 2-25 29 3 22-2 37-19 55-28 30-59 31-87 1zM6447 3642c-32-35-15-82 28-82 22 0 55 28 55 47 0 12-43 53-57 53-5 0-17-8-26-18z"/></g><path d="M3862 2128c-6-8-12-88-14-190-4-205-4-206-92-215-63-6-77-16-46-33 23-12 27-52 6-69-8-7-27-11-43-9-23 2-29 8-31 35-2 24 2 34 18 43 17 9 19 15 10 23-9 9-17 5-36-16-31-36-30-61 2-94 25-25 29-25 117-21 56 3 104 11 123 21 43 22 91 80 103 124 16 55 14 386-1 401-16 16-103 15-116 0z" fill="#152730"/><g fill="#c6a036"><path d="M5185 4541c-7-12 12-24 25-16 11 7 4 25-10 25-5 0-11-4-15-9zM3185 4531c-7-12 12-24 25-16 11 7 4 25-10 25-5 0-11-4-15-9zM5345 4521c-7-12 12-24 25-16 11 7 4 25-10 25-5 0-11-4-15-9zM5445 4501c-6-11 13-26 22-17 3 3 12 1 19-5s18-8 24-4c14 9 1 28-16 21-7-3-16-1-19 4-8 13-22 13-30 1zM2995 4471c-7-12 12-24 25-16 11 7 4 25-10 25-5 0-11-4-15-9zM5555 4470c-3-5 0-12 7-15 77-28 98-33 103-24 4 5-9 16-27 23-57 23-76 27-83 16zM2931 4436c-7-8-8-17-3-20 6-3 15 1 21 8 7 8 8 17 3 20-6 3-15-1-21-8zM2881 4406c-7-8-8-17-3-20 6-3 15 1 21 8 7 8 8 17 3 20-6 3-15-1-21-8zM2796 4341c-10-11-13-22-8-25s17 3 26 13c10 11 13 22 8 25s-17-3-26-13zM5966 4272c-3-6 1-15 8-21 8-7 17-8 20-3 3 6-1 15-8 21-8 7-17 8-20 3zM2691 4236c-7-8-8-17-3-20 6-3 15 1 21 8 7 8 8 17 3 20-6 3-15-1-21-8zM6016 4232c-3-5 3-17 13-26 11-10 22-13 25-8s-3 17-13 26c-11 10-22 13-25 8zM2651 4186c-7-8-8-17-3-20 6-3 15 1 21 8 7 8 8 17 3 20-6 3-15-1-21-8zM2611 4126c-7-8-8-17-3-20 6-3 15 1 21 8 7 8 8 17 3 20-6 3-15-1-21-8zM6126 4122c-3-6 1-15 8-21 8-7 17-8 20-3 3 6-1 15-8 21-8 7-17 8-20 3zM6166 4072c-3-6 1-15 8-21 8-7 17-8 20-3 3 6-1 15-8 21-8 7-17 8-20 3zM6304 4037c-7-20-2-47 11-50 14-3 19 43 6 56-7 7-12 6-17-6zM3419 4020c-60-10-102-32-167-87-58-50-62-80-4-33 52 41 113 60 197 60 60 0 82-5 133-31 70-35 105-71 140-147 21-48 24-64 20-140-3-55-11-99-21-119-9-17-13-34-8-37 13-8 37 24 67 88 24 53 26 67 22 140-10 157-106 270-256 301-37 8-69 14-72 14-3-1-26-5-51-9zM4310 4016c-65-14-90-27-148-73-50-41-47-63 4-28 56 38 99 48 188 43 124-7 205-59 257-164 34-69 35-209 2-271-28-51-14-66 20-21 64 85 83 189 53 290-46 158-216 259-376 224zM5210 4016c-62-13-89-26-143-68-53-42-38-50 29-17 106 54 250 36 338-42 67-59 100-135 101-229 0-76-12-122-47-172-31-45-2-41 36 5 98 119 101 277 8 400-78 103-199 149-322 123zM6206 4012c-3-6 1-15 8-21 8-7 17-8 20-3 3 6-1 15-8 21-8 7-17 8-20 3zM2545 4000c-4-6-3-16 3-22s12-6 17 2c4 6 3 16-3 22s-12 6-17-2zM6304 3947c-7-20-2-47 11-50 14-3 19 43 6 56-7 7-12 6-17-6zM2515 3910c-4-6-4-14-1-17s1-12-5-19-8-18-4-24c9-14 28-1 21 15-2 7 1 18 7 24 8 8 8 14 0 22s-13 8-18-1zM4076 3861c-10-11-13-22-8-25s17 3 26 13c10 11 13 22 8 25s-17-3-26-13zM6315 3850c-4-6-3-16 3-22s12-6 17 2c4 6 3 16-3 22s-12 6-17-2zM2495 3820c-4-6-3-16 3-22s12-6 17 2c4 6 3 16-3 22s-12 6-17-2zM4929 3786c-1-3-2-9-3-13-1-5-5-13-9-20-4-6-3-14 3-18 5-3 11-4 11-1 1 3 2 9 3 14 1 4 5 12 9 19 4 6 3 14-3 18-5 3-11 4-11 1zM4029 3776c-1-3-2-9-3-13-1-5-5-14-9-20-5-7-5-18-2-23 9-14 28-1 21 15-2 7 0 17 6 23s6 12-1 16c-6 4-12 5-12 2zM3129 3766c-1-3-2-9-3-13-1-5-5-14-9-20-5-7-5-18-2-23 9-14 28-1 21 15-2 7 0 17 6 23s6 12-1 16c-6 4-12 5-12 2zM2485 3720c-4-6-3-16 3-22s12-6 17 2c4 6 3 16-3 22s-12 6-17-2zM4904 3706c-4-10-2-22 4-28 8-8 13-7 18 6 4 10 2 22-4 28-8 8-13 7-18-6zM6165 3680c-3-5 0-13 8-16 23-8 92 0 92 11 0 14-92 19-100 5zM4904 3636c-4-10-2-22 4-28 8-8 13-7 18 6 4 10 2 22-4 28-8 8-13 7-18-6zM5806 3632c-3-6 1-15 8-21 8-7 17-8 20-3 3 6-1 15-8 21-8 7-17 8-20 3zM6265 3626c-14-10-15-15-6-21 8-4 19-1 28 8 20 19 1 30-22 13zM3115 3610c-4-6-3-16 3-22s12-6 17 2c4 6 3 16-3 22s-12 6-17-2zM4015 3590c-4-6-3-16 3-22s12-6 17 2c4 6 3 16-3 22s-12 6-17-2zM6295 3560c-4-6-3-16 3-22s12-6 17 2c4 6 3 16-3 22s-12 6-17-2zM4037 3533c-4-6 0-18 7-28 8-11 16-14 19-8 4 6 0 18-7 28-8 11-16 14-19 8zM6285 3510c-4-6-3-16 3-22s12-6 17 2c4 6 3 16-3 22s-12 6-17-2zM4966 3472c-3-5 3-17 13-26 11-10 22-13 25-8s-3 17-13 26c-11 10-22 13-25 8zM3651 3436c-18-19-29-36-23-39 5-4 23 9 41 27 18 19 29 36 23 39-5 4-23-9-41-27zM6315 3460c-4-6-3-16 3-22s12-6 17 2c4 6 3 16-3 22s-12 6-17-2zM2516 3432c-3-6-1-23 4-39 6-15 13-34 16-42 3-9 8-11 14-5 7 7 6 22-1 45-14 41-25 54-33 41zM5421 3416c-7-8-8-17-3-20 6-3 15 1 21 8 7 8 8 17 3 20-6 3-15-1-21-8zM6250 3410c-11-21-5-44 9-35 13 7 20 44 11 50-5 3-14-4-20-15zM6304 3386c-8-21 3-49 16-41 5 3 10 15 10 25 0 25-18 36-26 16zM3565 3376c-11-8-14-16-8-19 6-4 18 0 28 7 11 8 14 16 8 19-6 4-18 0-28-7zM4226 3362c-3-6-2-13 4-17 5-3 10-3 10 1 0 3 7 1 15-6 8-6 19-9 25-5 14 9 1 28-15 21-7-2-17 0-23 6s-12 6-16 0zM4426 3361c-4-6-13-8-20-5-17 7-30-12-16-21 6-4 16-2 23 3 7 6 15 11 20 11 8 1 11 11 4 17-3 3-8 1-11-5zM3365 3351c-7-12 12-24 25-16 11 7 4 25-10 25-5 0-11-4-15-9zM3485 3351c-7-12 12-24 25-16 11 7 4 25-10 25-5 0-11-4-15-9zM5155 3351c-7-12 12-24 25-16 11 7 4 25-10 25-5 0-11-4-15-9zM5275 3351c-7-12 12-24 25-16 11 7 4 25-10 25-5 0-11-4-15-9zM2555 3320c-4-6-3-16 3-22s12-6 17 2c4 6 3 16-3 22s-12 6-17-2zM6304 3296c-8-21 3-49 16-41 5 3 10 15 10 25 0 25-18 36-26 16zM6315 3210c-4-6-3-16 3-22s12-6 17 2c4 6 3 16-3 22s-12 6-17-2zM2706 3082c-3-6 1-15 8-21 8-7 17-8 20-3 3 6-1 15-8 21-8 7-17 8-20 3zM2766 3022c-3-6 1-15 8-21 8-7 17-8 20-3 3 6-1 15-8 21-8 7-17 8-20 3zM5325 2811c-7-12 12-24 25-16 11 7 4 25-10 25-5 0-11-4-15-9zM3205 2801c-7-12 12-24 25-16 11 7 4 25-10 25-5 0-11-4-15-9zM5245 2800c-8-12 20-24 35-15 6 3 8 11 5 16-8 12-32 12-40-1zM3275 2790c-8-13 20-24 41-16 20 8 9 26-16 26-10 0-22-5-25-10zM5145 2791c-7-12 12-24 25-16 11 7 4 25-10 25-5 0-11-4-15-9zM3864 2506c-4-10-2-22 4-28 8-8 13-7 18 6 4 10 2 22-4 28-8 8-13 7-18-6zM4584 2506c-4-10-2-22 4-28 8-8 13-7 18 6 4 10 2 22-4 28-8 8-13 7-18-6z"/></g><g fill="#fcf3d9"><path d="M2710 3700c-23-23-24-44-9-142 15-97 52-199 101-283 49-83 171-206 251-254 117-69 272-115 370-109 41 2 54 8 70 31l21 27-21 28c-17 23-30 28-88 34-99 10-162 27-238 64-203 98-327 282-352 524-4 37-13 73-22 83-21 23-58 22-83-3zM3642 2678c-9-9-12-77-12-233 0-240 3-255 57-276 50-19 73 30 26 53l-28 13-3 217c-2 163-6 219-15 227-10 8-17 7-25-1z"/></g><g fill="#4d6e7b"><path d="M4325 5811c-7-13 17-24 40-19 9 1 16 8 16 13 0 14-48 19-56 6zM4615 5811c-7-13 17-24 40-19 9 1 16 8 16 13 0 14-48 19-56 6zM4205 5800c-8-12 20-24 35-15 6 3 8 11 5 16-8 12-32 12-40-1zM4755 5800c-8-12 20-24 35-15 6 3 8 11 5 16-8 12-32 12-40-1zM4125 5790c-8-12 20-24 35-15 6 3 8 11 5 16-8 12-32 12-40-1zM4835 5790c-8-12 20-24 35-15 6 3 8 11 5 16-8 12-32 12-40-1zM4065 5781c-7-12 12-24 25-16 11 7 4 25-10 25-5 0-11-4-15-9zM4905 5781c-7-12 12-24 25-16 11 7 4 25-10 25-5 0-11-4-15-9zM4005 5771c-7-12 12-24 25-16 11 7 4 25-10 25-5 0-11-4-15-9zM4965 5771c-7-12 12-24 25-16 11 7 4 25-10 25-5 0-11-4-15-9zM3955 5761c-7-12 12-24 25-16 11 7 4 25-10 25-5 0-11-4-15-9zM5015 5761c-7-12 12-24 25-16 11 7 4 25-10 25-5 0-11-4-15-9zM3865 5741c-7-12 12-24 25-16 11 7 4 25-10 25-5 0-11-4-15-9zM5105 5741c-7-12 12-24 25-16 11 7 4 25-10 25-5 0-11-4-15-9zM3755 5711c-7-12 12-24 25-16 11 7 4 25-10 25-5 0-11-4-15-9zM5215 5711c-7-12 12-24 25-16 11 7 4 25-10 25-5 0-11-4-15-9zM3337 5544c-38-20-24-38 14-19 16 9 27 20 24 25-7 12-4 13-38-6zM5625 5551c-3-6 3-15 14-21 12-6 22-6 26-1 3 6-3 15-14 21-12 6-22 6-26 1zM3011 5346c-7-8-8-17-3-20 6-3 15 1 21 8 7 8 8 17 3 20-6 3-15-1-21-8zM5966 5352c-3-6 1-15 8-21 8-7 17-8 20-3 3 6-1 15-8 21-8 7-17 8-20 3zM2706 5091c-10-11-13-22-8-25s17 3 26 13c10 11 13 22 8 25s-17-3-26-13zM6266 5102c-3-5 3-17 13-26 11-10 22-13 25-8s-3 17-13 26c-11 10-22 13-25 8zM2656 5041c-10-11-13-22-8-25s17 3 26 13c10 11 13 22 8 25s-17-3-26-13zM6316 5052c-3-5 3-17 13-26 11-10 22-13 25-8s-3 17-13 26c-11 10-22 13-25 8zM2401 4736c-7-8-8-17-3-20 6-3 15 1 21 8 7 8 8 17 3 20-6 3-15-1-21-8zM6576 4742c-3-6 1-15 8-21 8-7 17-8 20-3 3 6-1 15-8 21-8 7-17 8-20 3zM2205 4411c-9-18-11-32-5-36 5-3 16 8 25 24 9 18 11 32 5 36-5 3-16-8-25-24zM6767 4434c-9-10 22-66 33-59 6 4 4 18-5 36-17 31-18 32-28 23zM2035 3990c-4-6-3-16 3-22s12-6 17 2c4 6 3 16-3 22s-12 6-17-2zM6945 3990c-4-6-3-16 3-22s12-6 17 2c4 6 3 16-3 22s-12 6-17-2zM2005 3880c-4-6-3-16 3-22s12-6 17 2c4 6 3 16-3 22s-12 6-17-2zM6975 3880c-4-6-3-16 3-22s12-6 17 2c4 6 3 16-3 22s-12 6-17-2zM6746 3833c-4-5-12-8-17-8s-9-3-9-7c0-8 4-9 15-7 30 5 68 0 88-14 15-9 29-13 32-8 6 11-35 42-46 35-4-2-10 0-14 6-7 12-38 13-49 3zM1985 3790c-4-6-3-16 3-22s12-6 17 2c4 6 3 16-3 22s-12 6-17-2zM6995 3790c-4-6-3-16 3-22s12-6 17 2c4 6 3 16-3 22s-12 6-17-2zM6679 3786c-1-3-2-10-3-15 0-5-4-13-8-17-14-13-9-48 11-80 20-33 21-32-30-25-3 1-4 11-2 24 5 25-33 81-48 71-6-4-4-13 5-23 22-24 20-68-2-80-16-9-19-25-13-60 2-10 26 20 26 32 0 17 74 12 92-6 8-7 15-26 16-41 1-14 7-26 12-26 16 0 14 43-3 70-10 14-17 30-17 35-1 6-6 19-12 30-14 25-20 76-10 92 4 6 3 14-3 18-5 3-11 4-11 1zM6857 3763c-8-15-2-63 8-63 12 0 16 58 5 65-5 3-10 2-13-2zM1975 3740c-4-6-3-16 3-22s12-6 17 2c4 6 3 16-3 22s-12 6-17-2zM7005 3740c-4-6-3-16 3-22s12-6 17 2c4 6 3 16-3 22s-12 6-17-2zM6514 3715c-9-14-14-34-11-45 3-10 2-19-2-18-20 2-22-4-6-22 14-15 22-17 37-9s17 14 9 22c-14 14-14 60 0 74 7 7 7 13 0 17-5 4-18-5-27-19zM1965 3680c-4-6-3-16 3-22s12-6 17 2c4 6 3 16-3 22s-12 6-17-2zM7015 3680c-4-6-3-16 3-22s12-6 17 2c4 6 3 16-3 22s-12 6-17-2zM6831 3666c-7-8-8-17-3-20 6-3 15 1 21 8 7 8 8 17 3 20-6 3-15-1-21-8zM6430 3629c-12-22-6-54 9-45 12 8 20 55 10 62-4 2-13-5-19-17z"/><path d="M6735 3640c-7-12 5-17 40-16 17 1 29 5 28 11-3 12-61 16-68 5zM1954 3616c-4-10-2-22 4-28 8-8 13-7 18 6 4 10 2 22-4 28-8 8-13 7-18-6zM7024 3616c-4-10-2-22 4-28 8-8 13-7 18 6 4 10 2 22-4 28-8 8-13 7-18-6zM4086 3601c-4-5-2-12 4-16s8-10 5-15-1-11 4-14c5-4 12-2 15 3 4 5 2 12-4 16s-8 10-5 15 1 11-4 14c-5 4-12 2-15-3zM6482 3581c-25-7-31-24-10-29 17-3 54 23 42 30-5 3-19 2-32-1zM1944 3536c-4-10-2-22 4-28 8-8 13-7 18 6 4 10 2 22-4 28-8 8-13 7-18-6zM6586 3542c-3-5 2-20 12-33 24-29 36-11 13 20-11 14-21 19-25 13zM7034 3536c-4-10-2-22 4-28 8-8 13-7 18 6 4 10 2 22-4 28-8 8-13 7-18-6zM5305 3431c-7-12 12-24 25-16 11 7 4 25-10 25-5 0-11-4-15-9zM1934 3417c-7-20-2-47 11-50 14-3 19 43 6 56-7 7-12 6-17-6zM7044 3417c-7-20-2-47 11-50 14-3 19 43 6 56-7 7-12 6-17-6zM1934 3127c-7-20-2-47 11-50 14-3 19 43 6 56-7 7-12 6-17-6zM7044 3127c-7-20-2-47 11-50 14-3 19 43 6 56-7 7-12 6-17-6zM1944 2986c-4-10-2-22 4-28 8-8 13-7 18 6 4 10 2 22-4 28-8 8-13 7-18-6zM7034 2986c-4-10-2-22 4-28 8-8 13-7 18 6 4 10 2 22-4 28-8 8-13 7-18-6zM1954 2906c-4-10-2-22 4-28 8-8 13-7 18 6 4 10 2 22-4 28-8 8-13 7-18-6zM7024 2906c-4-10-2-22 4-28 8-8 13-7 18 6 4 10 2 22-4 28-8 8-13 7-18-6zM1965 2840c-4-6-3-16 3-22s12-6 17 2c4 6 3 16-3 22s-12 6-17-2zM7015 2840c-4-6-3-16 3-22s12-6 17 2c4 6 3 16-3 22s-12 6-17-2zM1975 2780c-4-6-3-16 3-22s12-6 17 2c4 6 3 16-3 22s-12 6-17-2zM7005 2780c-4-6-3-16 3-22s12-6 17 2c4 6 3 16-3 22s-12 6-17-2zM1985 2730c-4-6-3-16 3-22s12-6 17 2c4 6 3 16-3 22s-12 6-17-2zM6995 2730c-4-6-3-16 3-22s12-6 17 2c4 6 3 16-3 22s-12 6-17-2zM2005 2640c-4-6-3-16 3-22s12-6 17 2c4 6 3 16-3 22s-12 6-17-2zM6975 2640c-4-6-3-16 3-22s12-6 17 2c4 6 3 16-3 22s-12 6-17-2zM2035 2530c-4-6-3-16 3-22s12-6 17 2c4 6 3 16-3 22s-12 6-17-2zM6945 2530c-4-6-3-16 3-22s12-6 17 2c4 6 3 16-3 22s-12 6-17-2zM3185 2384c-71-37-111-108-100-175 8-45 52-102 96-125 103-53 231 32 231 153 0 112-131 197-227 147zM2187 2144c-9-10 32-86 43-79 6 4 1 23-10 46-22 41-23 43-33 33zM6780 2111c-6-12-6-22-1-26 6-3 15 3 21 14 6 12 6 22 1 26-6 3-15-3-21-14zM2977 2009c-121-28-204-121-214-239-8-83 17-149 77-210 171-170 458-45 454 197-1 67-30 126-87 180-69 65-150 91-230 72zM2396 1782c-3-6 1-15 8-21 8-7 17-8 20-3 3 6-1 15-8 21-8 7-17 8-20 3zM6581 1776c-7-8-8-17-3-20 6-3 15 1 21 8 7 8 8 17 3 20-6 3-15-1-21-8zM2646 1482c-3-5 3-17 13-26 11-10 22-13 25-8s-3 17-13 26c-11 10-22 13-25 8zM6326 1471c-10-11-13-22-8-25s17 3 26 13c10 11 13 22 8 25s-17-3-26-13zM6276 1421c-10-11-13-22-8-25s17 3 26 13c10 11 13 22 8 25s-17-3-26-13zM3006 1172c-3-6 1-15 8-21 8-7 17-8 20-3 3 6-1 15-8 21-8 7-17 8-20 3zM5971 1166c-7-8-8-17-3-20 6-3 15 1 21 8 7 8 8 17 3 20-6 3-15-1-21-8zM3315 980c-3-5 12-18 34-30 23-11 42-16 46-10 3 5-12 18-34 30-23 11-42 16-46 10zM5637 969c-21-11-35-24-32-29 4-6 23-1 46 10 22 12 37 25 34 30-7 12-2 13-48-11zM3755 801c-7-12 12-24 25-16 11 7 4 25-10 25-5 0-11-4-15-9zM5215 801c-7-12 12-24 25-16 11 7 4 25-10 25-5 0-11-4-15-9zM3865 771c-7-12 12-24 25-16 11 7 4 25-10 25-5 0-11-4-15-9zM5105 771c-7-12 12-24 25-16 11 7 4 25-10 25-5 0-11-4-15-9zM3955 751c-7-12 12-24 25-16 11 7 4 25-10 25-5 0-11-4-15-9zM5015 751c-7-12 12-24 25-16 11 7 4 25-10 25-5 0-11-4-15-9zM4005 741c-7-12 12-24 25-16 11 7 4 25-10 25-5 0-11-4-15-9zM4965 741c-7-12 12-24 25-16 11 7 4 25-10 25-5 0-11-4-15-9zM4065 731c-7-12 12-24 25-16 11 7 4 25-10 25-5 0-11-4-15-9zM4905 731c-7-12 12-24 25-16 11 7 4 25-10 25-5 0-11-4-15-9zM4125 720c-8-12 20-24 35-15 6 3 8 11 5 16-8 12-32 12-40-1zM4835 720c-8-12 20-24 35-15 6 3 8 11 5 16-8 12-32 12-40-1zM4205 710c-8-12 20-24 35-15 6 3 8 11 5 16-8 12-32 12-40-1zM4755 710c-8-12 20-24 35-15 6 3 8 11 5 16-8 12-32 12-40-1zM4325 701c-7-13 17-24 40-19 9 1 16 8 16 13 0 14-48 19-56 6zM4615 701c-7-13 17-24 40-19 9 1 16 8 16 13 0 14-48 19-56 6z"/></g><g fill="#9b7713"><path d="M3322 3963c-61-21-154-111-183-175-32-72-33-191-2-260 30-66 92-129 160-163 50-25 69-29 143-29 101 0 147 19 223 93 71 68 90 110 95 213 4 76 1 92-21 141-34 75-87 131-159 167-53 26-72 30-137 29-42 0-95-7-119-16zm245-99c64-40 103-105 110-182 14-153-88-265-241-264-146 0-236 91-236 238 0 85 23 138 78 185 56 47 96 59 175 55 53-3 77-10 114-32zM4203 3956c-64-30-139-105-167-166-16-35-21-65-21-135 0-78 4-97 27-140 32-62 103-129 166-158 66-30 188-30 254 0 63 29 134 96 166 158 23 43 27 62 27 140 0 106-22 163-91 232-67 66-114 86-219 90-80 4-96 1-142-21zm215-70c62-22 97-53 126-110 54-108 40-212-37-288-54-53-97-70-172-70-145 0-240 96-240 242 1 173 159 284 323 226zM5103 3956c-172-81-247-282-164-444 29-56 98-124 156-152 71-34 199-35 268-1 64 31 137 104 167 166 36 75 35 190-3 267-35 71-119 150-183 172-73 25-178 21-241-8zm244-86c82-42 123-113 123-211 0-99-43-174-123-215-113-58-258-21-322 81-42 67-47 163-14 232 36 72 79 111 148 134 42 14 142 2 188-21zM5812 3668c-17-17-15-32 6-51 16-15 47-17 229-17 194 0 213 2 234 19 20 16 22 23 13 38-10 16-31 18-240 21-170 2-233-1-242-10zM3882 2528c-7-7-12-21-12-33s5-26 12-33c17-17 689-17 706 0 15 15 15 51 0 66-17 17-689 17-706 0z"/></g><g fill="#1f96b2"><path d="M3350 3897c-57-18-135-103-154-166-20-68-20-84 0-150 22-76 92-144 169-167 102-29 190-2 262 80 114 130 69 324-92 397-45 21-130 23-185 6zM4233 3891c-90-42-153-140-153-240 0-147 156-273 299-243 168 35 257 212 182 360-26 51-103 119-150 132-56 15-132 11-178-9zM5135 3891c-98-44-155-130-155-234 0-71 20-120 68-170 96-99 214-112 328-34 68 46 106 118 107 200 0 72-17 118-64 172-69 78-194 107-284 66zM3641 1684c-27-34-26-40 4-69 28-29 42-31 73-9 43 30 18 104-36 104-11 0-30-12-41-26z"/></g><g fill="#e9c347"><path d="M3295 4549c-113-12-213-36-271-67-11-5-30-15-44-21-27-13-43-22-105-62-48-31-194-172-221-213-10-16-27-41-36-55-10-14-30-51-44-81-15-30-31-63-35-72-17-34-51-204-56-279-11-175 46-375 151-534 82-123 271-282 374-316 20-6 42-15 47-19 39-31 241-60 412-60h112l1-302c1-295 1-303 22-325l21-23h854l20 22c11 13 42 82 68 153 26 72 54 144 61 162 8 17 14 35 14 41 0 5 7 23 15 38 8 16 15 36 15 45 0 8 4 19 9 25 5 5 20 43 34 84l26 75 238 6c429 11 628 59 907 216 77 44 206 153 269 228 31 38 76 106 98 151 37 76 46 100 67 189 3 17 6 71 6 120 0 121-35 235-102 336-9 14-26 39-36 55-29 44-175 184-237 227-111 78-207 124-354 171-142 45-179 55-223 60-23 3-46 7-50 10-5 3-56 8-113 11-140 9-1838 12-1914 4zm247-553c145-31 226-127 236-282 4-73 2-87-21-138-38-82-106-157-174-192-51-25-69-29-143-29s-92 4-144 30c-111 56-171 162-164 290 5 89 33 148 104 220 61 62 116 94 183 105 25 4 48 8 51 9 3 0 35-6 72-13zm929-7c54-13 129-68 160-116 55-88 63-226 18-314-34-67-117-148-184-180-156-74-347-1-416 158-30 71-26 182 10 258 29 62 104 140 165 173 71 37 154 44 247 21zm946-20c142-68 202-251 133-406-30-68-133-165-203-191-213-80-422 63-422 288 0 97 33 168 112 240 67 61 101 80 173 96 74 16 133 8 207-27zm-2624-339c20-162 64-273 149-377 58-69 153-144 231-181 68-33 190-62 256-62 47 0 69-26 51-60-13-25-81-27-182-5-316 67-536 308-580 636-13 99-5 122 41 117 24-3 27-8 34-68zm3471 34c9-3 16-15 16-25 0-18-11-19-230-19-222 0-230 1-230 20s8 20 178 23c97 1 194 4 214 5s43-1 52-4zM3684 2214c11-8 23-14 28-14 4 0 8-5 8-11 0-14-42-1-57 19-10 12-12 73-11 241l2 226 6-223c5-206 6-225 24-238zm901 281c0-20-8-20-344-23-207-1-349 2-354 7s-7 17-4 25c6 15 45 16 354 14 340-3 348-3 348-23zM6350 4188c-31-51-42-102-42-207-1-126 16-204 52-244 20-23 32-29 40-21 7 7 10 89 8 255-3 221-5 244-20 247-11 2-25-9-38-30zM6351 3539c-17-23-31-49-31-58-1-9-5-47-10-86-10-78 4-224 25-265 19-37 54-65 65-54 16 16 8 496-7 501-7 3-26-15-42-38z"/></g><path d="M4308 5815c-1-2-31-6-65-9-33-3-72-8-85-10-12-3-41-8-63-10-74-9-209-39-355-79-51-14-133-44-185-66-11-5-44-19-73-30-133-54-328-166-492-282-183-129-436-382-569-569-114-160-227-359-282-492-11-29-25-62-30-73-22-52-52-134-66-185-40-146-70-281-79-355-2-22-7-51-10-63-25-115-25-569 0-684 3-12 8-41 10-63 9-74 39-209 79-355 14-50 42-129 66-185 5-11 17-40 27-65 56-138 171-339 285-500 130-185 384-439 569-569 161-114 362-229 500-285 25-10 54-22 65-27 56-24 135-52 185-66 146-40 281-70 355-79 22-2 50-7 63-9 116-27 568-27 684 0 13 2 41 7 63 9 74 9 209 39 355 79 50 14 129 42 185 66 11 5 40 17 65 27 138 56 339 171 500 285 183 129 440 386 569 569 118 166 226 356 281 490 12 30 26 64 31 75 22 52 52 134 66 185 40 146 70 281 79 355 2 22 7 51 10 63 25 115 25 569 0 684-3 12-8 41-10 63-9 74-39 209-79 355-14 51-44 133-66 185-5 11-19 44-30 73-55 133-168 332-282 492-133 187-386 440-569 569-166 118-356 226-490 281-30 12-64 26-75 31-52 22-134 52-185 66-134 37-273 68-345 78-16 2-50 7-75 11s-56 8-70 10c-35 5-457 13-462 9zm1003-1300c318-46 582-168 769-355 107-107 157-185 197-305 22-68 27-98 27-195 0-99-4-126-27-192-76-219-249-396-511-523-231-112-462-155-831-155-142 0-195-3-203-12-6-7-61-148-122-313-62-165-117-306-122-312-8-9-78-13-265-15l-255-3 2-182c0-101-4-200-10-222-12-47-42-87-81-106-33-18-152-33-147-19 2 5-1 9-7 9-5 0-9-3-7-7 1-5-8-8-21-8-30 0-72 43-61 62 5 7 9 17 9 22 0 6 20 11 44 12 90 5 128 15 152 40 23 25 24 33 29 211 3 101 3 187 1 189s-59 4-126 4c-89 0-126 4-133 13-8 9-12 119-14 323l-3 309-185 6c-202 7-279 22-402 78-234 105-411 315-480 568-30 113-30 335 1 448 97 357 395 611 756 644 39 3 486 5 994 4 781-2 941-4 1032-18zm1079-551c0-204-2-235-14-225-41 34-67 212-47 325 12 68 38 136 53 136 4 0 8-106 8-236zm417-154c66-23 70-130 6-159-73-33-145 21-128 97 6 30 27 55 55 65 23 8 35 8 67-3zm-185-105c8-19 8-31 0-50-21-45-102-25-102 25s81 70 102 25zm-114-91c2-11-4-26-12-33-31-26-71 14-45 45 17 21 53 14 57-12zm202-4c41-41 13-110-45-110-43 0-65 22-65 65 0 58 69 86 110 45zm-320-287c-1-237-1-238-20-215-11 13-25 43-31 65-14 49-17 212-6 277 7 42 39 110 52 110 3 0 5-107 5-237zm-3080-959c51-20 82-69 82-128 0-87-57-146-142-146-114 0-180 109-128 209 38 74 106 97 188 65zm-191-386c39-12 106-70 126-109 30-57 37-117 20-182-28-109-103-174-214-184-152-14-272 95-271 246 2 177 161 284 339 229z" fill="#334d5c"/><path d="M0 3250V0h9000v6500H0V3250zm4750 2540c323-34 620-121 905-264 497-252 892-652 1135-1151 177-364 260-721 260-1125 0-413-90-790-274-1155-247-487-634-874-1121-1121-492-248-1042-331-1590-239-417 71-839 261-1175 532-47 37-135 117-195 178-585 585-849 1418-710 2240 70 409 247 809 508 1144 97 125 279 309 397 404 383 308 860 505 1347 556 112 12 402 12 513 1z" fill="#ccb2a3"/></svg>