<!DOCTYPE svg PUBLIC "-//W3C//DTD SVG 20010904//EN" "http://www.w3.org/TR/2001/REC-SVG-20010904/DTD/svg10.dtd">
<svg version="1.0" xmlns="http://www.w3.org/2000/svg" width="900px" height="650px" viewBox="0 0 9000 6500" preserveAspectRatio="xMidYMid meet">
<g id="layer1" fill="#bf918d" stroke="none">
 <path d="M2801 4826 c-7 -8 -8 -17 -3 -20 6 -3 15 1 21 8 7 8 8 17 3 20 -6 3 -15 -1 -21 -8z"/>
 <path d="M2775 4780 c-4 -6 -3 -16 3 -22 6 -6 12 -6 17 2 4 6 3 16 -3 22 -6 6 -12 6 -17 -2z"/>
 <path d="M2774 4717 c-7 -20 -2 -47 11 -50 14 -3 19 43 6 56 -7 7 -12 6 -17 -6z"/>
 <path d="M6204 4707 c-7 -20 -2 -47 11 -50 14 -3 19 43 6 56 -7 7 -12 6 -17 -6z"/>
 <path d="M2784 4577 c-7 -20 -2 -47 11 -50 14 -3 19 43 6 56 -7 7 -12 6 -17 -6z"/>
 <path d="M6194 4567 c-7 -20 -2 -47 11 -50 14 -3 19 43 6 56 -7 7 -12 6 -17 -6z"/>
 <path d="M2794 4437 c-7 -20 -2 -47 11 -50 14 -3 19 43 6 56 -7 7 -12 6 -17 -6z"/>
 <path d="M6184 4417 c-7 -20 -2 -47 11 -50 14 -3 19 43 6 56 -7 7 -12 6 -17 -6z"/>
 <path d="M2804 4287 c-7 -20 -2 -47 11 -50 14 -3 19 43 6 56 -7 7 -12 6 -17 -6z"/>
 <path d="M6174 4277 c-7 -20 -2 -47 11 -50 14 -3 19 43 6 56 -7 7 -12 6 -17 -6z"/>
 <path d="M2934 3557 c-2 -7 -1 -37 3 -67 l8 -55 60 -6 c70 -7 115 -28 139 -64 26 -40 38 -21 33 55 -4 63 -7 70 -39 99 -19 17 -47 35 -62 41 -39 15 -136 13 -142 -3z"/>
 <path d="M3655 3558 c-55 -30 -115 -114 -115 -161 0 -17 -3 -16 -31 7 -28 24 -43 30 -52 24 -2 -2 -11 3 -20 11 -9 7 -24 11 -33 7 -19 -7 -8 -28 14 -24 20 2 73 -24 91 -46 7 -9 18 -13 24 -9 6 4 8 -2 5 -14 -6 -24 9 -56 23 -48 5 4 18 24 30 46 44 88 219 109 289 34 28 -30 40 -24 40 18 0 83 -11 108 -58 138 -40 25 -56 29 -116 29 -39 0 -80 -6 -91 -12z"/>
 <path d="M5138 3541 c-45 -29 -46 -31 -53 -94 -9 -83 -1 -97 34 -63 77 74 246 55 292 -33 28 -53 36 -57 53 -23 10 19 12 33 6 37 -6 3 -10 17 -10 30 0 27 -31 88 -63 124 -32 35 -79 51 -150 51 -53 0 -71 -5 -109 -29z"/>
 <path d="M5921 3559 c-13 -5 -40 -23 -59 -40 -32 -29 -35 -36 -39 -99 -5 -76 7 -95 33 -55 24 36 69 57 139 64 l60 6 9 52 c13 76 7 83 -61 82 -32 0 -69 -5 -82 -10z"/>
 <path d="M2864 3457 c-7 -20 -2 -47 11 -50 14 -3 19 43 6 56 -7 7 -12 6 -17 -6z"/>
 <path d="M6114 3446 c-8 -21 3 -49 16 -41 5 3 10 15 10 25 0 25 -18 36 -26 16z"/>
 <path d="M3302 3438 c-6 -6 -12 -9 -12 -5 0 4 -9 3 -20 -3 -11 -6 -18 -15 -15 -21 4 -5 15 -4 28 3 12 6 30 12 39 12 10 1 18 6 18 11 1 15 -24 17 -38 3z"/>
 <path d="M5562 3438 c-6 -6 -12 -9 -12 -5 0 4 -9 3 -20 -3 -11 -6 -18 -15 -15 -21 4 -5 15 -4 28 3 12 6 30 12 39 12 10 1 18 6 18 11 1 15 -24 17 -38 3z"/>
 <path d="M5655 3440 c-6 -10 15 -23 31 -18 5 1 19 -3 31 -10 13 -7 24 -8 28 -3 3 6 -4 15 -15 21 -11 6 -20 7 -20 3 0 -4 -5 -2 -12 5 -15 15 -35 16 -43 2z"/>
 <path d="M6156 3372 c-3 -6 1 -15 9 -22 8 -7 13 -16 10 -20 -3 -5 -1 -11 4 -14 5 -4 12 -2 15 3 4 5 2 12 -4 16 -6 4 -8 10 -5 15 3 4 -2 13 -9 19 -8 7 -17 8 -20 3z"/>
 <path d="M5787 3363 c-4 -6 0 -18 7 -28 8 -11 16 -14 19 -8 4 6 0 18 -7 28 -8 11 -16 14 -19 8z"/>
 <path d="M3174 3296 c-4 -10 -2 -22 4 -28 8 -8 13 -7 18 6 4 10 2 22 -4 28 -8 8 -13 7 -18 -6z"/>
 <path d="M4986 1071 c-10 -11 -13 -22 -8 -25 5 -3 17 3 26 13 10 11 13 22 8 25 -5 3 -17 -3 -26 -13z"/>
 </g>
<g id="layer2" fill="#6b1912" stroke="none">
 <path d="M3975 4371 c-6 -6 -8 -54 -4 -128 34 -640 43 -781 50 -800 7 -20 13 -21 81 -16 63 4 79 1 117 -19 27 -14 52 -36 62 -57 28 -54 37 -58 49 -25 26 67 86 104 170 104 84 0 144 -37 170 -104 12 -33 21 -29 49 25 10 21 35 43 62 57 38 20 54 23 116 19 50 -4 75 -2 80 6 4 7 19 217 34 467 20 343 23 458 15 468 -10 10 -59 10 -241 1 -211 -10 -521 -7 -720 7 -50 4 -84 2 -90 -5z"/>
 <path d="M4612 1128 c-16 -16 -15 -81 0 -96 14 -14 154 -17 163 -3 3 6 -20 27 -52 49 -86 58 -98 63 -111 50z"/>
 </g>
<g id="layer3" fill="#848484" stroke="none">
 <path d="M4285 5814 c-16 -2 -70 -9 -120 -15 -159 -19 -441 -86 -474 -113 -8 -6 -17 -11 -20 -11 -3 0 -5 -3 -4 -6 1 -4 -173 -177 -387 -385 -214 -208 -386 -382 -384 -386 3 -4 22 0 42 9 83 37 265 93 397 122 349 76 581 96 1160 96 585 0 823 -20 1170 -96 233 -51 396 -110 481 -175 17 -12 41 -44 53 -69 l21 -45 104 77 c57 43 112 83 122 89 16 9 2 26 -117 145 -150 151 -252 236 -414 344 -307 205 -653 338 -1042 401 -93 15 -516 28 -588 18z"/>
 <path d="M3575 5651 c-7 -12 12 -24 25 -16 11 7 4 25 -10 25 -5 0 -11 -4 -15 -9z"/>
 <path d="M3525 5631 c-7 -12 12 -24 25 -16 11 7 4 25 -10 25 -5 0 -11 -4 -15 -9z"/>
 <path d="M3347 5549 c-21 -11 -35 -24 -32 -29 4 -6 23 -1 46 10 22 12 37 25 34 30 -7 12 -2 13 -48 -11z"/>
 <path d="M2886 5251 c-10 -11 -13 -22 -8 -25 5 -3 17 3 26 13 10 11 13 22 8 25 -5 3 -17 -3 -26 -13z"/>
 <path d="M2826 5201 c-10 -11 -13 -22 -8 -25 5 -3 17 3 26 13 10 11 13 22 8 25 -5 3 -17 -3 -26 -13z"/>
 <path d="M2731 5116 c-18 -19 -29 -36 -23 -39 5 -4 23 9 41 27 18 19 29 36 23 39 -5 4 -23 -9 -41 -27z"/>
 <path d="M2631 5016 c-18 -19 -29 -36 -23 -39 5 -4 23 9 41 27 18 19 29 36 23 39 -5 4 -23 -9 -41 -27z"/>
 <path d="M2546 4921 c-10 -11 -13 -22 -8 -25 5 -3 17 3 26 13 10 11 13 22 8 25 -5 3 -17 -3 -26 -13z"/>
 <path d="M2496 4861 c-10 -11 -13 -22 -8 -25 5 -3 17 3 26 13 10 11 13 22 8 25 -5 3 -17 -3 -26 -13z"/>
 <path d="M6476 4872 c-3 -5 3 -17 13 -26 11 -10 22 -13 25 -8 3 5 -3 17 -13 26 -11 10 -22 13 -25 8z"/>
 <path d="M2200 4401 c-11 -23 -16 -42 -10 -46 5 -3 18 12 30 34 11 23 16 42 10 46 -5 3 -18 -12 -30 -34z"/>
 <path d="M6767 4434 c-9 -10 32 -86 43 -79 6 4 1 23 -10 46 -22 41 -23 43 -33 33z"/>
 <path d="M2079 4116 c-1 -3 -2 -9 -3 -13 -1 -5 -8 -19 -15 -31 -7 -13 -10 -26 -7 -29 3 -4 1 -12 -5 -19 -7 -8 -7 -14 1 -19 5 -3 11 -4 11 -1 3 13 6 22 13 38 4 9 8 22 10 30 1 7 5 18 9 25 4 6 3 14 -3 18 -5 3 -11 4 -11 1z"/>
 <path d="M6907 4114 c-4 -4 -3 -12 0 -18 4 -6 8 -17 9 -24 2 -8 6 -21 10 -30 4 -9 8 -20 8 -24 1 -5 4 -8 9 -8 4 0 10 0 13 0 4 0 1 6 -5 13 -6 8 -8 16 -5 20 3 3 0 16 -7 29 -7 12 -13 26 -14 30 0 11 -11 18 -18 12z"/>
 <path d="M1985 3800 c-4 -6 -3 -16 3 -22 6 -6 12 -6 17 2 4 6 3 16 -3 22 -6 6 -12 6 -17 -2z"/>
 <path d="M6995 3800 c-4 -6 -3 -16 3 -22 6 -6 12 -6 17 2 4 6 3 16 -3 22 -6 6 -12 6 -17 -2z"/>
 <path d="M1975 3750 c-4 -6 -3 -16 3 -22 6 -6 12 -6 17 2 4 6 3 16 -3 22 -6 6 -12 6 -17 -2z"/>
 <path d="M7005 3750 c-4 -6 -3 -16 3 -22 6 -6 12 -6 17 2 4 6 3 16 -3 22 -6 6 -12 6 -17 -2z"/>
 <path d="M1965 3690 c-4 -6 -3 -16 3 -22 6 -6 12 -6 17 2 4 6 3 16 -3 22 -6 6 -12 6 -17 -2z"/>
 <path d="M7015 3690 c-4 -6 -3 -16 3 -22 6 -6 12 -6 17 2 4 6 3 16 -3 22 -6 6 -12 6 -17 -2z"/>
 <path d="M1955 3630 c-4 -6 -3 -16 3 -22 6 -6 12 -6 17 2 4 6 3 16 -3 22 -6 6 -12 6 -17 -2z"/>
 <path d="M7025 3630 c-4 -6 -3 -16 3 -22 6 -6 12 -6 17 2 4 6 3 16 -3 22 -6 6 -12 6 -17 -2z"/>
 <path d="M1944 3556 c-4 -10 -2 -22 4 -28 8 -8 13 -7 18 6 4 10 2 22 -4 28 -8 8 -13 7 -18 -6z"/>
 <path d="M7034 3556 c-4 -10 -2 -22 4 -28 8 -8 13 -7 18 6 4 10 2 22 -4 28 -8 8 -13 7 -18 -6z"/>
 <path d="M1934 3446 c-8 -21 3 -49 16 -41 5 3 10 15 10 25 0 25 -18 36 -26 16z"/>
 <path d="M7044 3446 c-8 -21 3 -49 16 -41 5 3 10 15 10 25 0 25 -18 36 -26 16z"/>
 <path d="M1934 3086 c-8 -21 3 -49 16 -41 5 3 10 15 10 25 0 25 -18 36 -26 16z"/>
 <path d="M7044 3086 c-8 -21 3 -49 16 -41 5 3 10 15 10 25 0 25 -18 36 -26 16z"/>
 <path d="M1944 2966 c-4 -10 -2 -22 4 -28 8 -8 13 -7 18 6 4 10 2 22 -4 28 -8 8 -13 7 -18 -6z"/>
 <path d="M7034 2966 c-4 -10 -2 -22 4 -28 8 -8 13 -7 18 6 4 10 2 22 -4 28 -8 8 -13 7 -18 -6z"/>
 <path d="M1955 2890 c-4 -6 -3 -16 3 -22 6 -6 12 -6 17 2 4 6 3 16 -3 22 -6 6 -12 6 -17 -2z"/>
 <path d="M7025 2890 c-4 -6 -3 -16 3 -22 6 -6 12 -6 17 2 4 6 3 16 -3 22 -6 6 -12 6 -17 -2z"/>
 <path d="M1965 2830 c-4 -6 -3 -16 3 -22 6 -6 12 -6 17 2 4 6 3 16 -3 22 -6 6 -12 6 -17 -2z"/>
 <path d="M7015 2830 c-4 -6 -3 -16 3 -22 6 -6 12 -6 17 2 4 6 3 16 -3 22 -6 6 -12 6 -17 -2z"/>
 <path d="M1975 2770 c-4 -6 -3 -16 3 -22 6 -6 12 -6 17 2 4 6 3 16 -3 22 -6 6 -12 6 -17 -2z"/>
 <path d="M7005 2770 c-4 -6 -3 -16 3 -22 6 -6 12 -6 17 2 4 6 3 16 -3 22 -6 6 -12 6 -17 -2z"/>
 <path d="M1985 2720 c-4 -6 -3 -16 3 -22 6 -6 12 -6 17 2 4 6 3 16 -3 22 -6 6 -12 6 -17 -2z"/>
 <path d="M6995 2720 c-4 -6 -3 -16 3 -22 6 -6 12 -6 17 2 4 6 3 16 -3 22 -6 6 -12 6 -17 -2z"/>
 <path d="M2046 2491 c-4 -5 -2 -12 3 -16 6 -3 8 -12 5 -19 -7 -17 12 -30 21 -16 4 6 2 17 -4 24 -6 7 -8 15 -5 18 3 3 1 9 -5 12 -5 4 -12 2 -15 -3z"/>
 <path d="M6939 2496 c-3 -13 -6 -22 -13 -38 -4 -9 -8 -22 -10 -30 -1 -7 -5 -18 -9 -25 -4 -6 -3 -14 3 -18 5 -3 11 -4 11 -1 1 3 2 9 3 14 1 4 8 18 15 30 7 13 10 26 7 29 -3 4 -1 12 5 19 7 8 7 14 -1 19 -5 3 -11 4 -11 1z"/>
 <path d="M2476 1672 c-3 -5 3 -17 13 -26 11 -10 22 -13 25 -8 3 5 -3 17 -13 26 -11 10 -22 13 -25 8z"/>
 <path d="M6496 1661 c-10 -11 -13 -22 -8 -25 5 -3 17 3 26 13 10 11 13 22 8 25 -5 3 -17 -3 -26 -13z"/>
 <path d="M6451 1606 c-7 -8 -8 -17 -3 -20 6 -3 15 1 21 8 7 8 8 17 3 20 -6 3 -15 -1 -21 -8z"/>
 <path d="M4476 1373 c-8 -8 -8 -598 1 -606 3 -4 11 -3 17 2 6 5 16 10 21 10 6 1 10 11 10 24 0 12 -5 21 -12 19 -10 -1 -13 24 -13 103 0 79 3 104 13 102 9 -1 12 37 12 168 0 107 -4 170 -10 170 -5 0 -15 3 -21 7 -6 4 -14 5 -18 1z"/>
 <path d="M6146 1301 c-10 -11 -13 -22 -8 -25 5 -3 17 3 26 13 10 11 13 22 8 25 -5 3 -17 -3 -26 -13z"/>
 <path d="M2886 1262 c-3 -5 3 -17 13 -26 11 -10 22 -13 25 -8 3 5 -3 17 -13 26 -11 10 -22 13 -25 8z"/>
 <path d="M6086 1251 c-10 -11 -13 -22 -8 -25 5 -3 17 3 26 13 10 11 13 22 8 25 -5 3 -17 -3 -26 -13z"/>
 <path d="M3685 821 c-7 -12 12 -24 24 -16 5 3 12 1 16 -5 4 -6 11 -8 16 -4 5 3 7 10 3 15 -3 5 -9 7 -14 4 -5 -3 -11 -1 -15 5 -8 13 -22 13 -30 1z"/>
 <path d="M5286 823 c-4 -5 -12 -8 -17 -8 -5 0 -9 -3 -9 -7 0 -8 3 -9 18 -7 4 1 12 2 17 3 13 1 19 20 8 23 -5 2 -13 0 -17 -4z"/>
 <path d="M3945 751 c-7 -12 12 -24 25 -16 11 7 4 25 -10 25 -5 0 -11 -4 -15 -9z"/>
 <path d="M5025 751 c-7 -12 12 -24 25 -16 11 7 4 25 -10 25 -5 0 -11 -4 -15 -9z"/>
 <path d="M3995 741 c-7 -12 12 -24 25 -16 11 7 4 25 -10 25 -5 0 -11 -4 -15 -9z"/>
 <path d="M4975 741 c-7 -12 12 -24 25 -16 11 7 4 25 -10 25 -5 0 -11 -4 -15 -9z"/>
 <path d="M4055 731 c-7 -12 12 -24 25 -16 11 7 4 25 -10 25 -5 0 -11 -4 -15 -9z"/>
 <path d="M4915 731 c-7 -12 12 -24 25 -16 11 7 4 25 -10 25 -5 0 -11 -4 -15 -9z"/>
 <path d="M4115 721 c-7 -12 12 -24 25 -16 11 7 4 25 -10 25 -5 0 -11 -4 -15 -9z"/>
 <path d="M4855 721 c-7 -12 12 -24 25 -16 11 7 4 25 -10 25 -5 0 -11 -4 -15 -9z"/>
 <path d="M4185 710 c-8 -12 20 -24 35 -15 6 3 8 11 5 16 -8 12 -32 12 -40 -1z"/>
 <path d="M4775 710 c-8 -12 20 -24 35 -15 6 3 8 11 5 16 -8 12 -32 12 -40 -1z"/>
 <path d="M4295 700 c-8 -13 20 -24 41 -16 20 8 9 26 -16 26 -10 0 -22 -5 -25 -10z"/>
 <path d="M4655 700 c-8 -13 20 -24 41 -16 20 8 9 26 -16 26 -10 0 -22 -5 -25 -10z"/>
 </g>
<g id="layer4" fill="#babbbb" stroke="none">
 <path d="M3670 5683 c-16 -5 -96 -35 -162 -62 -47 -19 -255 -122 -293 -146 -22 -13 -56 -33 -75 -44 -93 -50 -332 -242 -453 -362 -118 -117 -348 -407 -380 -479 -4 -8 -18 -33 -32 -55 -23 -38 -104 -198 -138 -275 -28 -63 -28 -63 38 -61 33 2 193 4 355 4 l295 2 -1 55 c-1 30 -5 96 -9 145 -3 50 -8 115 -10 145 -2 30 -6 92 -10 137 -7 103 5 130 80 179 30 19 54 38 52 43 -1 4 126 133 283 286 430 419 493 482 484 487 -5 3 -16 3 -24 1z"/>
 <path d="M3725 5110 c-8 -12 20 -24 35 -15 6 3 8 11 5 16 -8 12 -32 12 -40 -1z"/>
 <path d="M5235 5110 c-8 -12 20 -24 35 -15 6 3 8 11 5 16 -8 12 -32 12 -40 -1z"/>
 <path d="M3635 5100 c-8 -13 20 -24 41 -16 20 8 9 26 -16 26 -10 0 -22 -5 -25 -10z"/>
 <path d="M5325 5100 c-8 -12 20 -24 35 -15 6 3 8 11 5 16 -8 12 -32 12 -40 -1z"/>
 <path d="M3565 5090 c-8 -12 20 -24 35 -15 6 3 8 11 5 16 -8 12 -32 12 -40 -1z"/>
 <path d="M5395 5090 c-8 -12 20 -24 35 -15 6 3 8 11 5 16 -8 12 -32 12 -40 -1z"/>
 <path d="M3505 5081 c-7 -12 12 -24 25 -16 11 7 4 25 -10 25 -5 0 -11 -4 -15 -9z"/>
 <path d="M5465 5081 c-7 -12 12 -24 25 -16 11 7 4 25 -10 25 -5 0 -11 -4 -15 -9z"/>
 <path d="M3445 5071 c-7 -12 12 -24 25 -16 11 7 4 25 -10 25 -5 0 -11 -4 -15 -9z"/>
 <path d="M5525 5071 c-7 -12 12 -24 25 -16 11 7 4 25 -10 25 -5 0 -11 -4 -15 -9z"/>
 <path d="M6327 4840 c-58 -43 -108 -84 -112 -90 -4 -6 -9 -39 -11 -73 -1 -34 -6 -96 -9 -137 -11 -154 -17 -236 -18 -285 l-2 -50 285 -2 c157 -1 317 -2 355 -4 77 -2 77 -2 48 61 -34 77 -115 237 -138 275 -14 22 -28 47 -32 55 -13 30 -123 187 -168 239 -25 29 -50 62 -56 72 -5 10 -16 19 -23 19 -7 0 -60 -36 -119 -80z"/>
 <path d="M2085 4140 c-4 -6 -4 -14 -1 -17 3 -3 1 -12 -5 -19 -6 -8 -6 -14 0 -18 5 -4 12 -2 16 4 3 5 3 10 -1 10 -3 0 -1 7 6 15 9 11 10 19 3 26 -8 8 -13 7 -18 -1z"/>
 <path d="M6895 4140 c-4 -6 -1 -18 7 -27 7 -9 12 -18 11 -20 -2 -1 -1 -3 2 -3 3 0 8 0 12 0 4 0 2 5 -4 11 -6 6 -9 17 -7 24 7 16 -12 29 -21 15z"/>
 <path d="M2035 3990 c-4 -6 -3 -16 3 -22 6 -6 12 -6 17 2 4 6 3 16 -3 22 -6 6 -12 6 -17 -2z"/>
 <path d="M6945 3990 c-4 -6 -3 -16 3 -22 6 -6 12 -6 17 2 4 6 3 16 -3 22 -6 6 -12 6 -17 -2z"/>
 <path d="M1995 3830 c-4 -6 -3 -16 3 -22 6 -6 12 -6 17 2 4 6 3 16 -3 22 -6 6 -12 6 -17 -2z"/>
 <path d="M6985 3830 c-4 -6 -3 -16 3 -22 6 -6 12 -6 17 2 4 6 3 16 -3 22 -6 6 -12 6 -17 -2z"/>
 <path d="M1955 3610 c-4 -6 -3 -16 3 -22 6 -6 12 -6 17 2 4 6 3 16 -3 22 -6 6 -12 6 -17 -2z"/>
 <path d="M7025 3610 c-4 -6 -3 -16 3 -22 6 -6 12 -6 17 2 4 6 3 16 -3 22 -6 6 -12 6 -17 -2z"/>
 <path d="M1944 3526 c-4 -10 -2 -22 4 -28 8 -8 13 -7 18 6 4 10 2 22 -4 28 -8 8 -13 7 -18 -6z"/>
 <path d="M7034 3526 c-4 -10 -2 -22 4 -28 8 -8 13 -7 18 6 4 10 2 22 -4 28 -8 8 -13 7 -18 -6z"/>
 <path d="M3315 3441 c-45 -11 -69 -27 -103 -65 -39 -45 -44 -99 -40 -424 l3 -244 189 2 c104 0 193 3 198 6 4 3 8 135 8 293 0 227 -3 296 -14 322 -15 35 -56 79 -92 97 -29 15 -113 22 -149 13z"/>
 <path d="M4034 3431 c-49 -22 -88 -70 -103 -126 -7 -24 -11 -145 -11 -306 0 -215 3 -269 14 -278 9 -8 70 -11 197 -9 l184 3 0 311 0 311 -29 37 c-36 48 -96 76 -161 76 -27 0 -69 -9 -91 -19z"/>
 <path d="M4784 3431 c-23 -10 -54 -36 -70 -57 l-29 -37 0 -311 0 -311 184 -3 c127 -2 188 1 197 9 11 9 14 63 14 278 0 161 -4 282 -11 306 -24 89 -99 145 -194 145 -27 0 -69 -9 -91 -19z"/>
 <path d="M5575 3441 c-62 -16 -95 -41 -120 -91 l-25 -50 2 -292 3 -293 195 0 195 0 3 280 c2 179 -1 293 -8 317 -13 44 -52 93 -90 113 -34 18 -116 26 -155 16z"/>
 <path d="M1934 3407 c-7 -20 -2 -47 11 -50 14 -3 19 43 6 56 -7 7 -12 6 -17 -6z"/>
 <path d="M7044 3407 c-7 -20 -2 -47 11 -50 14 -3 19 43 6 56 -7 7 -12 6 -17 -6z"/>
 <path d="M1934 3137 c-7 -20 -2 -47 11 -50 14 -3 19 43 6 56 -7 7 -12 6 -17 -6z"/>
 <path d="M7044 3137 c-7 -20 -2 -47 11 -50 14 -3 19 43 6 56 -7 7 -12 6 -17 -6z"/>
 <path d="M1944 2996 c-4 -10 -2 -22 4 -28 8 -8 13 -7 18 6 4 10 2 22 -4 28 -8 8 -13 7 -18 -6z"/>
 <path d="M7034 2996 c-4 -10 -2 -22 4 -28 8 -8 13 -7 18 6 4 10 2 22 -4 28 -8 8 -13 7 -18 -6z"/>
 <path d="M1955 2910 c-4 -6 -3 -16 3 -22 6 -6 12 -6 17 2 4 6 3 16 -3 22 -6 6 -12 6 -17 -2z"/>
 <path d="M7025 2910 c-4 -6 -3 -16 3 -22 6 -6 12 -6 17 2 4 6 3 16 -3 22 -6 6 -12 6 -17 -2z"/>
 <path d="M2035 2530 c-4 -6 -3 -16 3 -22 6 -6 12 -6 17 2 4 6 3 16 -3 22 -6 6 -12 6 -17 -2z"/>
 <path d="M6945 2530 c-4 -6 -3 -16 3 -22 6 -6 12 -6 17 2 4 6 3 16 -3 22 -6 6 -12 6 -17 -2z"/>
 <path d="M6895 2380 c-4 -6 -3 -16 3 -22 6 -6 12 -6 17 2 4 6 3 16 -3 22 -6 6 -12 6 -17 -2z"/>
 <path d="M2115 2300 c-4 -6 -3 -16 3 -22 6 -6 12 -6 17 2 4 6 3 16 -3 22 -6 6 -12 6 -17 -2z"/>
 <path d="M6865 2300 c-4 -6 -3 -16 3 -22 6 -6 12 -6 17 2 4 6 3 16 -3 22 -6 6 -12 6 -17 -2z"/>
 <path d="M2187 2144 c-9 -10 32 -86 43 -79 6 4 1 23 -10 46 -22 41 -23 43 -33 33z"/>
 <path d="M6780 2111 c-11 -23 -16 -42 -10 -46 5 -3 18 12 30 34 11 23 16 42 10 46 -5 3 -18 -12 -30 -34z"/>
 <path d="M2306 1922 c-3 -5 2 -20 12 -33 24 -29 36 -11 13 20 -11 14 -21 19 -25 13z"/>
 <path d="M6666 1905 c-16 -24 -6 -45 11 -22 19 24 23 36 14 41 -5 3 -16 -5 -25 -19z"/>
 <path d="M2426 1742 c-3 -6 1 -15 8 -21 8 -7 17 -8 20 -3 3 6 -1 15 -8 21 -8 7 -17 8 -20 3z"/>
 <path d="M6551 1736 c-7 -8 -8 -17 -3 -20 6 -3 15 1 21 8 7 8 8 17 3 20 -6 3 -15 -1 -21 -8z"/>
 <path d="M2456 1702 c-3 -6 1 -15 8 -21 8 -7 17 -8 20 -3 3 6 -1 15 -8 21 -8 7 -17 8 -20 3z"/>
 <path d="M6521 1696 c-7 -8 -8 -17 -3 -20 6 -3 15 1 21 8 7 8 8 17 3 20 -6 3 -15 -1 -21 -8z"/>
 <path d="M2546 1592 c-3 -6 1 -15 8 -21 8 -7 17 -8 20 -3 3 6 -1 15 -8 21 -8 7 -17 8 -20 3z"/>
 <path d="M6431 1586 c-7 -8 -8 -17 -3 -20 6 -3 15 1 21 8 7 8 8 17 3 20 -6 3 -15 -1 -21 -8z"/>
 <path d="M2647 1483 c-4 -6 13 -29 37 -52 24 -24 46 -39 49 -34 4 6 -13 29 -37 52 -24 24 -46 39 -49 34z"/>
 <path d="M6301 1446 c-24 -24 -39 -46 -34 -49 6 -4 29 13 52 37 24 24 39 46 34 49 -6 4 -29 -13 -52 -37z"/>
 <path d="M2816 1322 c-3 -6 1 -15 8 -21 8 -7 17 -8 20 -3 3 6 -1 15 -8 21 -8 7 -17 8 -20 3z"/>
 <path d="M2926 1232 c-3 -6 1 -15 8 -21 8 -7 17 -8 20 -3 3 6 -1 15 -8 21 -8 7 -17 8 -20 3z"/>
 <path d="M6051 1226 c-7 -8 -8 -17 -3 -20 6 -3 15 1 21 8 7 8 8 17 3 20 -6 3 -15 -1 -21 -8z"/>
 <path d="M2966 1202 c-3 -6 1 -15 8 -21 8 -7 17 -8 20 -3 3 6 -1 15 -8 21 -8 7 -17 8 -20 3z"/>
 <path d="M6011 1196 c-7 -8 -8 -17 -3 -20 6 -3 15 1 21 8 7 8 8 17 3 20 -6 3 -15 -1 -21 -8z"/>
 <path d="M3126 1091 c-6 -8 5 -20 31 -35 23 -13 22 12 -2 28 -13 9 -26 12 -29 7z"/>
 <path d="M5841 1081 c-14 -11 -19 -21 -13 -25 5 -3 20 2 33 12 29 24 11 36 -20 13z"/>
 <path d="M3315 980 c-3 -5 12 -18 34 -30 23 -11 42 -16 46 -10 3 5 -12 18 -34 30 -23 11 -42 16 -46 10z"/>
 <path d="M5637 969 c-21 -11 -35 -24 -32 -29 4 -6 23 -1 46 10 22 12 37 25 34 30 -7 12 -2 13 -48 -11z"/>
 <path d="M3525 881 c-7 -12 12 -24 25 -16 11 7 4 25 -10 25 -5 0 -11 -4 -15 -9z"/>
 <path d="M5445 881 c-7 -12 12 -24 25 -16 11 7 4 25 -10 25 -5 0 -11 -4 -15 -9z"/>
 <path d="M3755 801 c-7 -12 12 -24 25 -16 11 7 4 25 -10 25 -5 0 -11 -4 -15 -9z"/>
 <path d="M5215 801 c-7 -12 12 -24 25 -16 11 7 4 25 -10 25 -5 0 -11 -4 -15 -9z"/>
 <path d="M4495 776 c-14 -10 -15 -15 -6 -21 8 -4 19 -1 28 8 20 19 1 30 -22 13z"/>
 <path d="M4135 721 c-7 -12 12 -24 25 -16 11 7 4 25 -10 25 -5 0 -11 -4 -15 -9z"/>
 <path d="M4835 721 c-7 -12 12 -24 25 -16 11 7 4 25 -10 25 -5 0 -11 -4 -15 -9z"/>
 <path d="M4215 710 c-8 -12 20 -24 35 -15 6 3 8 11 5 16 -8 12 -32 12 -40 -1z"/>
 <path d="M4745 710 c-8 -12 20 -24 35 -15 6 3 8 11 5 16 -8 12 -32 12 -40 -1z"/>
 <path d="M4335 701 c-7 -13 17 -24 40 -19 9 1 16 8 16 13 0 14 -48 19 -56 6z"/>
 <path d="M4605 701 c-7 -13 17 -24 40 -19 9 1 16 8 16 13 0 14 -48 19 -56 6z"/>
 </g>
<g id="layer5" fill="#aa3121" stroke="none">
 <path d="M4042 5140 c-56 -3 -107 -11 -112 -16 -7 -7 -4 -126 10 -363 12 -194 22 -382 23 -417 2 -68 22 -87 22 -21 l0 37 130 -7 c163 -10 561 -10 765 -1 153 6 155 7 157 30 13 120 41 734 34 741 -23 23 -742 36 -1029 17z"/>
 <path d="M5014 4326 c-8 -21 3 -49 16 -41 5 3 10 15 10 25 0 25 -18 36 -26 16z"/>
 <path d="M3975 4157 c-9 -22 -2 -62 10 -60 6 1 11 14 13 29 4 32 -14 56 -23 31z"/>
 <path d="M5004 4157 c-7 -20 -2 -47 11 -50 14 -3 19 43 6 56 -7 7 -12 6 -17 -6z"/>
 <path d="M3985 3998 c-9 -22 -2 -68 10 -71 14 -3 19 63 6 76 -7 7 -12 5 -16 -5z"/>
 <path d="M4994 3977 c-7 -20 -2 -47 11 -50 14 -3 19 43 6 56 -7 7 -12 6 -17 -6z"/>
 <path d="M3995 3818 c-9 -22 -2 -68 10 -71 14 -3 19 63 6 76 -7 7 -12 5 -16 -5z"/>
 <path d="M4984 3796 c-8 -21 3 -49 16 -41 5 3 10 15 10 25 0 25 -18 36 -26 16z"/>
 <path d="M4005 3627 c-9 -22 -2 -62 10 -60 6 1 11 14 13 29 4 32 -14 56 -23 31z"/>
 <path d="M4974 3627 c-7 -20 -2 -47 11 -50 14 -3 19 43 6 56 -7 7 -12 6 -17 -6z"/>
 <path d="M2891 3549 c-33 -20 -34 -21 -27 -75 6 -51 4 -57 -26 -95 l-33 -41 0 -312 0 -311 190 0 190 0 5 307 c5 290 6 308 26 334 37 51 70 68 138 72 80 5 147 -21 171 -67 23 -46 35 -29 35 48 0 64 -1 68 -37 103 -53 50 -73 58 -148 58 -78 0 -124 -18 -160 -64 -14 -17 -32 -38 -40 -47 -8 -9 -15 -31 -15 -49 l0 -33 -23 21 c-31 30 -89 52 -135 52 l-39 0 -9 57 c-5 31 -13 58 -19 60 -5 1 -25 -6 -44 -18z"/>
 <path d="M5540 3559 c-63 -25 -100 -85 -100 -161 l0 -53 -27 34 c-64 81 -218 96 -291 29 l-24 -23 4 49 c3 54 -15 75 -31 34 -7 -16 -10 -18 -10 -6 -1 22 -69 91 -82 83 -5 -4 -9 -24 -9 -46 0 -22 -4 -49 -10 -59 -8 -15 -4 -22 25 -38 67 -40 69 -53 75 -387 l5 -300 190 0 190 0 0 312 c0 171 3 309 7 307 4 -2 15 9 25 26 28 48 91 73 168 68 69 -4 101 -21 139 -72 20 -26 21 -44 26 -334 l5 -307 190 0 190 0 0 311 0 312 -32 40 c-30 37 -31 43 -26 95 6 55 5 56 -28 76 -52 32 -53 32 -64 -51 l-6 -48 -40 0 c-46 0 -104 -22 -136 -52 l-23 -21 0 33 c0 18 -7 40 -15 49 -8 9 -26 30 -40 47 -14 18 -40 39 -59 48 -38 18 -146 21 -186 5z"/>
 <path d="M3993 3532 c-12 -9 -30 -32 -41 -50 -18 -31 -20 -32 -25 -11 -3 12 -11 19 -19 17 -9 -3 -12 -20 -9 -54 l3 -49 -24 23 c-63 58 -204 55 -271 -6 -11 -9 -28 -34 -38 -54 -18 -35 -19 -59 -17 -335 l3 -298 190 0 190 0 5 300 c6 334 8 347 75 386 30 18 33 23 24 45 -5 14 -9 40 -9 59 0 42 -9 48 -37 27z"/>
 <path d="M4415 3436 c-38 -17 -90 -72 -104 -109 -16 -42 -15 -589 1 -605 8 -8 64 -12 188 -12 124 0 180 4 188 12 16 16 17 563 1 605 -14 38 -67 92 -106 109 -41 18 -129 17 -168 0z"/>
 <path d="M4605 1139 c-8 -12 0 -22 21 -25 16 -3 114 -63 114 -71 0 -2 -30 -3 -67 -2 -53 2 -68 -1 -68 -12 0 -11 20 -15 92 -17 l92 -3 3 -37 3 -37 139 -3 c77 -1 143 1 148 6 5 5 -14 28 -46 53 -30 24 -55 47 -56 50 0 3 24 26 54 49 30 24 53 47 50 52 -8 13 -472 10 -479 -3z"/>
 </g>
<g id="layer6" fill="#e45136" stroke="none">
 <path d="M3825 5123 c-16 -3 -34 -8 -38 -13 -5 -4 17 -369 48 -811 50 -712 59 -809 77 -846 11 -24 22 -43 24 -43 2 0 11 17 19 38 9 20 29 51 44 67 l28 30 -23 415 c-13 228 -32 581 -44 784 -11 202 -23 372 -26 377 -5 9 -53 10 -109 2z"/>
 <path d="M5066 5122 c-3 -6 -15 -174 -26 -374 -11 -199 -31 -552 -44 -783 l-24 -420 33 -33 c19 -18 37 -46 40 -62 10 -45 21 -44 43 2 19 38 27 131 77 847 31 442 53 807 48 812 -13 13 -139 23 -147 11z"/>
 <path d="M3310 5044 c-132 -30 -249 -65 -256 -75 -2 -4 18 -329 46 -721 28 -392 51 -734 51 -761 1 -35 6 -50 19 -57 15 -8 22 -2 42 37 31 62 71 83 161 83 76 0 114 -15 145 -57 19 -26 21 -26 28 -9 9 23 -94 1532 -107 1564 -10 26 1 26 -129 -4z"/>
 <path d="M5562 5047 c-12 -33 -116 -1543 -107 -1564 6 -16 9 -15 27 11 29 39 75 56 150 56 84 0 126 -22 156 -83 20 -40 27 -45 42 -37 13 7 19 21 19 48 0 20 22 358 50 749 28 392 51 720 51 728 0 20 -27 30 -185 70 -195 49 -194 49 -203 22z"/>
 <path d="M2809 4829 c-28 -36 -33 -49 -32 -93 1 -48 37 -593 47 -716 3 -30 10 -145 17 -255 7 -110 16 -210 20 -223 l9 -23 40 21 c22 11 40 26 40 33 0 81 -92 1283 -99 1290 -5 5 -23 -10 -42 -34z"/>
 <path d="M6145 4859 c-3 -10 -95 -1253 -95 -1294 0 -2 18 -14 40 -25 l40 -21 9 23 c8 20 18 142 47 613 3 44 13 199 24 345 20 290 19 299 -35 350 -19 18 -26 20 -30 9z"/>
 <path d="M3747 2730 c-103 -3 -188 -7 -190 -10 -1 -3 190 -282 424 -620 438 -633 443 -640 436 -640 -4 0 -1072 1099 -1188 1222 l-45 48 -187 -2 c-118 -2 -186 -7 -185 -13 1 -5 366 -303 811 -662 784 -632 809 -652 831 -637 21 13 25 13 37 -2 11 -13 15 -13 23 -2 6 7 17 13 25 13 17 0 911 1286 902 1297 -3 4 -91 8 -195 8 l-188 2 -42 -104 c-188 -459 -490 -1188 -492 -1185 -1 1 37 290 86 642 49 352 87 641 85 643 -1 2 -90 3 -196 3 l-194 0 3 -33 c1 -18 41 -305 88 -637 46 -333 83 -608 82 -612 -2 -5 -341 803 -499 1193 -20 48 -38 89 -40 91 -2 1 -88 0 -192 -3z"/>
 <path d="M5183 2074 c-348 -361 -630 -660 -627 -665 3 -5 13 -4 23 3 83 59 1618 1304 1615 1310 -3 5 -89 8 -192 8 l-187 0 -632 -656z"/>
 <path d="M4504 1027 c-2 -7 -3 -58 -2 -113 l3 -99 139 -3 c93 -2 143 1 152 9 19 15 20 198 2 203 -7 3 -75 7 -151 10 -110 5 -138 4 -143 -7z"/>
 </g>
<g id="layer7" fill="#eff3f3" stroke="none">
 <path d="M3630 5099 c-74 -10 -151 -22 -170 -27 -33 -8 -35 -10 -32 -47 24 -384 104 -1513 109 -1550 5 -27 12 -49 18 -49 5 1 19 19 30 40 32 61 75 84 158 84 57 0 78 -5 113 -25 25 -15 45 -21 49 -15 6 9 -102 1574 -110 1598 -5 14 5 15 -165 -9z"/>
 <path d="M5205 5107 c-8 -23 -115 -1589 -109 -1598 3 -5 25 3 50 17 39 23 53 26 119 22 83 -4 116 -21 146 -77 25 -46 35 -55 45 -40 10 17 124 1622 115 1631 -4 4 -65 16 -136 27 -210 31 -225 32 -230 18z"/>
 <path d="M2955 4930 c-130 -66 -122 22 -70 -715 25 -352 47 -646 50 -652 3 -8 24 -13 59 -13 65 0 102 -12 138 -47 24 -23 28 -24 34 -10 7 18 -92 1453 -101 1468 -10 15 -27 10 -110 -31z"/>
 <path d="M5936 4962 c-8 -14 -108 -1453 -101 -1470 5 -12 10 -11 33 11 36 35 73 47 137 47 30 0 56 4 59 9 3 5 26 298 51 651 53 741 61 657 -71 721 -83 40 -99 45 -108 31z"/>
 <path d="M2187 4222 c-70 -4 -71 -5 -127 -171 -99 -296 -145 -670 -121 -976 37 -463 160 -837 396 -1205 249 -389 594 -700 1015 -917 384 -198 873 -296 1310 -264 307 22 538 73 790 174 404 162 772 434 1044 773 212 263 341 498 446 814 170 508 168 1104 -4 1611 -24 72 -51 138 -59 146 -11 11 -76 14 -352 14 -186 0 -341 -3 -345 -8 -10 -10 -14 -50 -41 -465 l-23 -338 29 -31 30 -30 0 -317 0 -316 -760 -613 c-418 -338 -768 -618 -779 -624 -10 -6 252 269 582 611 331 343 599 627 596 631 -3 5 -87 9 -188 9 -177 0 -183 -1 -203 -23 -11 -12 -206 -292 -433 -622 -227 -330 -417 -604 -422 -610 -12 -13 -7 1 266 663 130 315 234 578 231 583 -4 5 -88 9 -190 9 -166 0 -185 -2 -193 -17 -5 -10 -47 -294 -93 -631 -46 -337 -87 -605 -91 -595 -3 10 -43 284 -88 608 -44 325 -85 600 -90 613 -9 22 -12 22 -194 22 -104 0 -187 -4 -191 -9 -4 -7 484 -1203 512 -1256 22 -40 -64 83 -432 615 -230 333 -427 615 -438 628 -20 21 -26 22 -203 22 -103 0 -185 -4 -189 -9 -4 -8 684 -728 1104 -1153 58 -60 103 -108 100 -108 -3 0 -357 283 -785 628 l-779 628 -3 295 c-1 162 0 304 3 316 3 12 17 36 32 54 l27 32 -18 276 c-25 397 -26 411 -32 469 -3 29 -11 55 -18 58 -14 5 -542 10 -629 6z m2325 -3034 l3 -163 50 0 50 0 3 53 3 52 217 0 217 -1 -49 -45 -50 -45 45 -39 c24 -22 49 -40 54 -42 6 -1 -51 -5 -125 -8 l-135 -5 -3 -57 -3 -57 -137 -3 -137 -3 -3 -27 c-2 -16 -8 -28 -13 -28 -5 0 -9 117 -9 290 0 182 4 290 10 290 6 0 11 -65 12 -162z"/>
 </g>
<g id="layer8" fill="#130f0f" stroke="none">
 <path d="M0 3250 l0 -3250 4500 0 4500 0 0 3250 0 3250 -4500 0 -4500 0 0 -3250z m4873 2526 c565 -91 1043 -332 1432 -721 380 -380 622 -853 718 -1405 18 -108 21 -163 21 -400 0 -238 -3 -292 -22 -402 -45 -262 -110 -471 -216 -693 -254 -535 -676 -957 -1209 -1210 -229 -108 -456 -178 -722 -222 -157 -26 -593 -26 -750 0 -513 84 -945 287 -1322 619 -443 391 -729 920 -830 1533 -28 169 -25 603 4 775 96 551 338 1026 718 1405 412 412 946 667 1542 735 118 13 521 4 636 -14z"/>
 <path d="M4485 1358 c-3 -7 -4 -144 -3 -303 3 -250 5 -290 18 -290 13 0 15 40 15 299 0 231 -3 300 -12 303 -7 3 -15 -1 -18 -9z"/>
 </g>

</svg>