<!DOCTYPE svg PUBLIC "-//W3C//DTD SVG 20010904//EN" "http://www.w3.org/TR/2001/REC-SVG-20010904/DTD/svg10.dtd">
<svg version="1.0" xmlns="http://www.w3.org/2000/svg" width="900px" height="650px" viewBox="0 0 9000 6500" preserveAspectRatio="xMidYMid meet">
<g id="layer1" fill="#2c77a5" stroke="none">
 <path d="M5893 1112 c-29 -19 -50 -39 -47 -43 6 -10 47 11 91 47 45 36 11 33 -44 -4z"/>
 <path d="M5805 1056 c-11 -8 -14 -16 -8 -19 6 -4 18 0 28 7 11 8 14 16 8 19 -6 4 -18 0 -28 -7z"/>
 <path d="M5747 1024 c-38 -20 -24 -38 14 -19 16 9 27 20 24 25 -7 12 -4 13 -38 -6z"/>
 <path d="M5637 964 c-38 -20 -24 -38 14 -19 16 9 27 20 24 25 -7 12 -4 13 -38 -6z"/>
 </g>
<g id="layer2" fill="#b38e77" stroke="none">
 <path d="M6025 3530 c-4 -6 -3 -16 3 -22 6 -6 12 -6 17 2 4 6 3 16 -3 22 -6 6 -12 6 -17 -2z"/>
 <path d="M5785 3470 c-4 -6 -3 -16 3 -22 6 -6 12 -6 17 2 4 6 3 16 -3 22 -6 6 -12 6 -17 -2z"/>
 <path d="M5925 3371 c-7 -12 12 -24 25 -16 11 7 4 25 -10 25 -5 0 -11 -4 -15 -9z"/>
 <path d="M3025 2770 c-4 -7 1 -20 13 -32 26 -26 36 -9 13 21 -13 17 -20 20 -26 11z"/>
 <path d="M5981 2736 c-7 -8 -8 -17 -3 -20 6 -3 15 1 21 8 7 8 8 17 3 20 -6 3 -15 -1 -21 -8z"/>
 <path d="M5882 2679 c-40 -21 -75 -38 -77 -38 -3 -1 -6 -1 -7 -2 -2 0 -16 -2 -32 -4 -16 -2 -36 -7 -45 -11 -9 -4 -23 -6 -33 -5 -9 1 -19 -3 -23 -9 -9 -14 24 -25 37 -12 6 6 16 8 22 6 7 -3 26 1 42 7 16 7 32 13 37 14 4 2 8 3 10 4 1 2 12 4 25 7 46 8 143 67 126 76 -5 3 -42 -12 -82 -33z"/>
 <path d="M3105 2700 c-7 -12 129 -79 171 -85 16 -2 31 -5 34 -6 3 -1 10 -3 15 -4 6 -1 18 -5 28 -10 21 -9 50 1 42 16 -4 5 -17 9 -28 7 -12 -1 -28 1 -35 6 -7 4 -16 5 -19 2 -3 -3 -11 -2 -17 3 -6 5 -29 14 -51 21 -22 7 -61 23 -87 36 -29 15 -49 20 -53 14z"/>
 <path d="M3826 2621 c-10 -11 -13 -22 -8 -25 5 -3 17 3 26 13 10 11 13 22 8 25 -5 3 -17 -3 -26 -13z"/>
 </g>
<g id="layer3" fill="#757373" stroke="none">
 <path d="M4295 5810 c-8 -13 20 -24 41 -16 20 8 9 26 -16 26 -10 0 -22 -5 -25 -10z"/>
 <path d="M4655 5810 c-8 -13 20 -24 41 -16 20 8 9 26 -16 26 -10 0 -22 -5 -25 -10z"/>
 <path d="M4185 5800 c-8 -12 20 -24 35 -15 6 3 8 11 5 16 -8 12 -32 12 -40 -1z"/>
 <path d="M4775 5800 c-8 -12 20 -24 35 -15 6 3 8 11 5 16 -8 12 -32 12 -40 -1z"/>
 <path d="M4115 5791 c-7 -12 12 -24 25 -16 11 7 4 25 -10 25 -5 0 -11 -4 -15 -9z"/>
 <path d="M4855 5791 c-7 -12 12 -24 25 -16 11 7 4 25 -10 25 -5 0 -11 -4 -15 -9z"/>
 <path d="M4055 5781 c-7 -12 12 -24 25 -16 11 7 4 25 -10 25 -5 0 -11 -4 -15 -9z"/>
 <path d="M4915 5781 c-7 -12 12 -24 25 -16 11 7 4 25 -10 25 -5 0 -11 -4 -15 -9z"/>
 <path d="M2891 5256 c-7 -8 -8 -17 -3 -20 6 -3 15 1 21 8 7 8 8 17 3 20 -6 3 -15 -1 -21 -8z"/>
 <path d="M6086 5262 c-3 -6 1 -15 8 -21 8 -7 17 -8 20 -3 3 6 -1 15 -8 21 -8 7 -17 8 -20 3z"/>
 <path d="M2491 4856 c-7 -8 -8 -17 -3 -20 6 -3 15 1 21 8 7 8 8 17 3 20 -6 3 -15 -1 -21 -8z"/>
 <path d="M6486 4862 c-3 -6 1 -15 8 -21 8 -7 17 -8 20 -3 3 6 -1 15 -8 21 -8 7 -17 8 -20 3z"/>
 <path d="M3382 3797 c-9 -10 -8 -18 1 -31 10 -14 15 -15 30 -3 18 12 18 13 -1 30 -16 15 -21 15 -30 4z"/>
 <path d="M3586 3791 c-21 -23 -5 -37 24 -21 17 9 19 14 9 26 -14 17 -13 18 -33 -5z"/>
 <path d="M4205 3710 c-4 -6 -3 -16 3 -22 6 -6 12 -6 17 2 4 6 3 16 -3 22 -6 6 -12 6 -17 -2z"/>
 <path d="M4245 3710 c-5 -7 21 -40 64 -84 72 -72 85 -99 54 -110 -20 -8 -150 116 -155 148 -4 27 -33 28 -32 1 0 -27 147 -168 178 -171 15 -1 33 7 47 22 l23 24 -84 88 c-47 48 -85 88 -86 90 -1 2 -5 -2 -9 -8z"/>
 <path d="M4605 3710 c-4 -6 -3 -16 3 -22 6 -6 12 -6 17 2 4 6 3 16 -3 22 -6 6 -12 6 -17 -2z"/>
 <path d="M4549 3702 c-11 -62 -5 -77 59 -144 47 -48 70 -65 85 -62 11 2 26 -1 33 -7 8 -7 14 -7 19 1 10 16 -5 31 -24 25 -11 -3 -39 18 -91 70 -73 73 -73 75 -55 95 10 11 16 20 14 21 -2 0 -12 2 -21 4 -10 2 -19 0 -19 -3z"/>
 <path d="M1965 3690 c-4 -6 -3 -16 3 -22 6 -6 12 -6 17 2 4 6 3 16 -3 22 -6 6 -12 6 -17 -2z"/>
 <path d="M7015 3690 c-4 -6 -3 -16 3 -22 6 -6 12 -6 17 2 4 6 3 16 -3 22 -6 6 -12 6 -17 -2z"/>
 <path d="M1955 3630 c-4 -6 -3 -16 3 -22 6 -6 12 -6 17 2 4 6 3 16 -3 22 -6 6 -12 6 -17 -2z"/>
 <path d="M3348 3635 c-1 -2 -32 -5 -68 -7 -69 -4 -94 -13 -84 -29 3 -5 8 -7 12 -5 4 2 7 -46 7 -107 l0 -112 70 -3 c38 -2 75 -8 81 -13 8 -6 14 -6 18 -1 11 18 -27 37 -83 42 l-56 5 -3 97 -3 97 76 3 c73 3 96 15 57 29 -11 4 -22 6 -24 4z"/>
 <path d="M7025 3630 c-4 -6 -3 -16 3 -22 6 -6 12 -6 17 2 4 6 3 16 -3 22 -6 6 -12 6 -17 -2z"/>
 <path d="M3608 3624 c-17 -16 8 -24 78 -24 l74 0 0 -95 c0 -105 3 -101 -80 -107 -62 -5 -32 -23 38 -23 48 0 66 3 65 12 -2 7 0 12 5 10 4 -1 7 3 7 8 0 6 -2 9 -5 8 -3 -1 -5 41 -5 92 0 51 3 91 7 89 13 -8 18 14 5 23 -15 11 -179 18 -189 7z"/>
 <path d="M1944 3556 c-4 -10 -2 -22 4 -28 8 -8 13 -7 18 6 4 10 2 22 -4 28 -8 8 -13 7 -18 -6z"/>
 <path d="M7034 3556 c-4 -10 -2 -22 4 -28 8 -8 13 -7 18 6 4 10 2 22 -4 28 -8 8 -13 7 -18 -6z"/>
 <path d="M1934 3446 c-8 -21 3 -49 16 -41 5 3 10 15 10 25 0 25 -18 36 -26 16z"/>
 <path d="M7044 3446 c-8 -21 3 -49 16 -41 5 3 10 15 10 25 0 25 -18 36 -26 16z"/>
 <path d="M3387 3253 c-4 -3 -2 -12 3 -19 6 -6 9 -18 8 -25 -2 -11 19 -14 102 -14 79 0 104 3 103 13 -2 6 0 11 5 11 19 -3 22 3 12 22 -9 16 -14 18 -26 9 -7 -7 -11 -16 -8 -21 3 -5 -36 -9 -86 -9 -50 0 -89 4 -86 9 7 11 -18 33 -27 24z"/>
 <path d="M1934 3086 c-8 -21 3 -49 16 -41 5 3 10 15 10 25 0 25 -18 36 -26 16z"/>
 <path d="M7044 3086 c-8 -21 3 -49 16 -41 5 3 10 15 10 25 0 25 -18 36 -26 16z"/>
 <path d="M4089 2996 c-1 -3 -2 -10 -3 -15 0 -5 -4 -13 -8 -16 -4 -4 -3 -16 3 -27 6 -11 13 -17 17 -14 9 10 10 66 0 72 -4 3 -9 3 -9 0z"/>
 <path d="M1944 2966 c-4 -10 -2 -22 4 -28 8 -8 13 -7 18 6 4 10 2 22 -4 28 -8 8 -13 7 -18 -6z"/>
 <path d="M7034 2966 c-4 -10 -2 -22 4 -28 8 -8 13 -7 18 6 4 10 2 22 -4 28 -8 8 -13 7 -18 -6z"/>
 <path d="M3979 2946 c-12 -51 19 -70 91 -56 3 0 -3 7 -14 15 -12 9 -25 11 -41 5 -20 -8 -23 -6 -20 10 3 17 -13 41 -16 26z"/>
 <path d="M4287 2944 c-3 -3 -2 -16 3 -29 5 -14 5 -26 -2 -33 -6 -6 -6 -12 1 -16 6 -4 12 -5 12 -2 1 3 2 9 3 14 1 4 5 13 9 19 4 7 3 22 -3 33 -12 22 -14 23 -23 14z"/>
 <path d="M4485 2940 c-3 -5 -2 -10 2 -12 13 -7 33 -3 36 6 3 12 -31 17 -38 6z"/>
 <path d="M4545 2924 c-17 -13 -26 -24 -21 -24 5 0 3 -6 -3 -14 -8 -10 -9 -16 -1 -21 10 -6 11 -5 14 15 1 12 16 14 17 3 0 -5 8 -17 17 -28 16 -18 16 -19 0 -7 -20 16 -34 -1 -14 -17 10 -8 17 -6 31 9 16 18 16 21 -6 56 -12 21 -18 34 -12 31 7 -4 14 -3 17 2 13 21 -11 18 -39 -5z"/>
 <path d="M4629 2946 c-1 -3 -2 -9 -3 -13 -1 -5 -5 -14 -10 -21 -5 -8 -2 -20 8 -31 9 -10 16 -24 14 -32 -2 -7 6 -13 20 -13 12 0 21 4 20 9 -4 16 -31 44 -38 40 -9 -5 -6 27 3 42 4 6 3 14 -3 18 -5 3 -11 4 -11 1z"/>
 <path d="M4674 2938 c-14 -23 -11 -49 8 -59 10 -5 18 -7 18 -3 0 3 6 1 14 -5 11 -10 17 -7 30 10 18 26 11 43 -13 34 -45 -18 -64 -12 -40 12 7 7 7 13 1 17 -6 3 -14 1 -18 -6z"/>
 <path d="M4861 2933 c-6 -10 -11 -14 -11 -9 0 5 -7 3 -15 -4 -8 -6 -19 -9 -24 -6 -6 4 -15 -3 -21 -14 -6 -11 -16 -19 -23 -17 -7 1 -12 -9 -12 -25 0 -33 18 -38 25 -8 3 12 10 21 15 21 6 0 12 -9 15 -21 3 -12 10 -20 15 -18 11 3 11 24 0 51 -6 13 -4 16 9 11 10 -4 15 -13 12 -20 -6 -15 8 -27 18 -16 4 4 12 7 17 7 5 0 8 5 7 10 -2 6 -6 9 -10 8 -11 -4 -10 5 3 29 15 27 -4 48 -20 21z"/>
 <path d="M4205 2931 c-7 -12 12 -24 25 -16 11 7 4 25 -10 25 -5 0 -11 -4 -15 -9z"/>
 <path d="M4355 2920 c-10 -11 -15 -20 -10 -20 4 0 2 -6 -4 -14 -8 -9 -8 -16 -2 -20 5 -4 12 -2 16 4 3 5 3 10 -1 10 -4 0 3 11 15 24 12 13 18 27 13 30 -5 3 -17 -3 -27 -14z"/>
 <path d="M4453 2921 c-4 -16 -12 -21 -32 -19 -19 2 -26 -1 -25 -14 1 -10 -2 -16 -6 -13 -13 8 -43 -21 -36 -34 5 -8 12 -9 19 -2 8 6 19 5 31 -5 27 -19 41 -6 19 19 -10 11 -13 17 -7 14 12 -7 64 35 64 52 0 21 -22 22 -27 2z"/>
 <path d="M4241 2911 c-7 -12 -8 -21 -4 -21 4 0 -2 -6 -13 -14 -13 -11 -16 -18 -8 -26 7 -7 16 -5 29 10 10 11 15 20 10 20 -4 0 -2 7 5 15 9 11 10 19 3 26 -8 8 -14 5 -22 -10z"/>
 <path d="M4122 2909 c-13 -5 -20 -13 -17 -19 8 -13 18 -13 40 3 23 17 8 28 -23 16z"/>
 <path d="M1955 2890 c-4 -6 -3 -16 3 -22 6 -6 12 -6 17 2 4 6 3 16 -3 22 -6 6 -12 6 -17 -2z"/>
 <path d="M7025 2890 c-4 -6 -3 -16 3 -22 6 -6 12 -6 17 2 4 6 3 16 -3 22 -6 6 -12 6 -17 -2z"/>
 <path d="M4914 2874 c-4 -10 -9 -22 -11 -26 -2 -4 1 -9 6 -13 15 -9 35 35 22 48 -7 7 -12 5 -17 -9z"/>
 <path d="M4469 2876 c-1 -3 -2 -9 -3 -13 -1 -5 -5 -13 -9 -20 -4 -6 -3 -14 3 -18 5 -3 11 -4 11 -1 1 3 2 9 3 14 1 4 5 12 9 19 4 6 3 14 -3 18 -5 3 -11 4 -11 1z"/>
 <path d="M4245 2851 c-6 -11 29 -33 39 -24 7 7 -12 33 -25 33 -4 0 -10 -4 -14 -9z"/>
 <path d="M1965 2830 c-4 -6 -3 -16 3 -22 6 -6 12 -6 17 2 4 6 3 16 -3 22 -6 6 -12 6 -17 -2z"/>
 <path d="M7015 2830 c-4 -6 -3 -16 3 -22 6 -6 12 -6 17 2 4 6 3 16 -3 22 -6 6 -12 6 -17 -2z"/>
 <path d="M4546 2662 c-3 -5 3 -17 13 -26 11 -10 22 -13 25 -8 3 5 -3 17 -13 26 -11 10 -22 13 -25 8z"/>
 <path d="M2486 1662 c-3 -6 1 -15 8 -21 8 -7 17 -8 20 -3 3 6 -1 15 -8 21 -8 7 -17 8 -20 3z"/>
 <path d="M6491 1656 c-7 -8 -8 -17 -3 -20 6 -3 15 1 21 8 7 8 8 17 3 20 -6 3 -15 -1 -21 -8z"/>
 <path d="M2886 1262 c-3 -6 1 -15 8 -21 8 -7 17 -8 20 -3 3 6 -1 15 -8 21 -8 7 -17 8 -20 3z"/>
 <path d="M6091 1256 c-7 -8 -8 -17 -3 -20 6 -3 15 1 21 8 7 8 8 17 3 20 -6 3 -15 -1 -21 -8z"/>
 <path d="M4055 731 c-7 -12 12 -24 25 -16 11 7 4 25 -10 25 -5 0 -11 -4 -15 -9z"/>
 <path d="M4915 731 c-7 -12 12 -24 25 -16 11 7 4 25 -10 25 -5 0 -11 -4 -15 -9z"/>
 <path d="M4115 721 c-7 -12 12 -24 25 -16 11 7 4 25 -10 25 -5 0 -11 -4 -15 -9z"/>
 <path d="M4855 721 c-7 -12 12 -24 25 -16 11 7 4 25 -10 25 -5 0 -11 -4 -15 -9z"/>
 <path d="M4185 710 c-8 -12 20 -24 35 -15 6 3 8 11 5 16 -8 12 -32 12 -40 -1z"/>
 <path d="M4775 710 c-8 -12 20 -24 35 -15 6 3 8 11 5 16 -8 12 -32 12 -40 -1z"/>
 <path d="M4295 700 c-8 -13 20 -24 41 -16 20 8 9 26 -16 26 -10 0 -22 -5 -25 -10z"/>
 <path d="M4655 700 c-8 -13 20 -24 41 -16 20 8 9 26 -16 26 -10 0 -22 -5 -25 -10z"/>
 </g>
<g id="layer4" fill="#bd3e25" stroke="none">
 <path d="M5870 3613 c-53 -20 -94 -89 -85 -144 23 -136 190 -156 255 -30 14 28 6 93 -15 124 -33 47 -102 69 -155 50z"/>
 </g>
<g id="layer5" fill="#efc84a" stroke="none">
 <path d="M5470 3844 c-25 -23 -42 -48 -46 -69 -19 -106 90 -194 183 -149 135 67 93 254 -56 254 -33 0 -49 -7 -81 -36z"/>
 </g>
<g id="layer6" fill="#45b39c" stroke="none">
 <path d="M5195 3623 c-39 -10 -84 -53 -96 -92 -15 -51 1 -100 47 -141 108 -94 269 44 194 167 -31 51 -92 79 -145 66z"/>
 </g>
<g id="layer7" fill="#2888b4" stroke="none">
 <path d="M4165 5801 c-7 -12 12 -24 25 -16 11 7 4 25 -10 25 -5 0 -11 -4 -15 -9z"/>
 <path d="M4805 5801 c-7 -12 12 -24 25 -16 11 7 4 25 -10 25 -5 0 -11 -4 -15 -9z"/>
 <path d="M4095 5791 c-7 -12 12 -24 25 -16 11 7 4 25 -10 25 -5 0 -11 -4 -15 -9z"/>
 <path d="M4875 5791 c-7 -12 12 -24 25 -16 11 7 4 25 -10 25 -5 0 -11 -4 -15 -9z"/>
 <path d="M4035 5781 c-7 -12 12 -24 25 -16 11 7 4 25 -10 25 -5 0 -11 -4 -15 -9z"/>
 <path d="M4935 5781 c-7 -12 12 -24 25 -16 11 7 4 25 -10 25 -5 0 -11 -4 -15 -9z"/>
 <path d="M3935 5761 c-7 -12 12 -24 25 -16 11 7 4 25 -10 25 -5 0 -11 -4 -15 -9z"/>
 <path d="M5035 5761 c-7 -12 12 -24 25 -16 11 7 4 25 -10 25 -5 0 -11 -4 -15 -9z"/>
 <path d="M3761 5719 c-16 -6 -21 -13 -14 -20 13 -13 67 7 58 21 -7 12 -12 12 -44 -1z"/>
 <path d="M5195 5720 c-9 -14 45 -34 58 -21 7 7 1 14 -17 21 -33 12 -33 12 -41 0z"/>
 <path d="M3595 5661 c-7 -12 12 -24 25 -16 11 7 4 25 -10 25 -5 0 -11 -4 -15 -9z"/>
 <path d="M5375 5661 c-7 -12 12 -24 25 -16 11 7 4 25 -10 25 -5 0 -11 -4 -15 -9z"/>
 <path d="M3407 5584 c-38 -20 -24 -38 14 -19 16 9 27 20 24 25 -7 12 -4 13 -38 -6z"/>
 <path d="M5555 5590 c-3 -5 8 -16 24 -25 18 -9 32 -11 36 -5 3 5 -8 16 -24 25 -18 9 -32 11 -36 5z"/>
 <path d="M3295 5528 c-48 -26 -65 -39 -60 -48 3 -5 25 3 50 17 25 13 43 29 39 34 -6 11 -4 11 -29 -3z"/>
 <path d="M5676 5531 c-4 -5 14 -21 39 -34 41 -23 72 -23 42 1 -27 21 -76 41 -81 33z"/>
 <path d="M3141 5436 c-7 -8 -8 -17 -3 -20 6 -3 15 1 21 8 7 8 8 17 3 20 -6 3 -15 -1 -21 -8z"/>
 <path d="M5836 5442 c-3 -6 1 -15 8 -21 8 -7 17 -8 20 -3 3 6 -1 15 -8 21 -8 7 -17 8 -20 3z"/>
 <path d="M3062 5389 c-23 -17 -40 -35 -37 -40 4 -5 26 5 51 22 24 16 42 34 39 40 -8 11 -3 13 -53 -22z"/>
 <path d="M5885 5411 c-3 -6 15 -24 39 -40 25 -17 47 -27 51 -22 3 6 -15 24 -39 40 -25 17 -47 27 -51 22z"/>
 <path d="M2975 5326 c-15 -13 -24 -25 -19 -29 6 -3 23 4 39 17 15 13 24 25 19 29 -6 3 -23 -4 -39 -17z"/>
 <path d="M5986 5341 c-4 -5 7 -19 23 -30 16 -12 32 -17 35 -12 4 5 -7 19 -23 30 -16 12 -32 17 -35 12z"/>
 <path d="M2911 5276 c-7 -8 -8 -17 -3 -20 6 -3 15 1 21 8 7 8 8 17 3 20 -6 3 -15 -1 -21 -8z"/>
 <path d="M6066 5282 c-3 -6 1 -15 8 -21 8 -7 17 -8 20 -3 3 6 -1 15 -8 21 -8 7 -17 8 -20 3z"/>
 <path d="M2866 5241 c-10 -11 -13 -22 -8 -25 5 -3 17 3 26 13 10 11 13 22 8 25 -5 3 -17 -3 -26 -13z"/>
 <path d="M6106 5252 c-3 -5 3 -17 13 -26 11 -10 22 -13 25 -8 3 5 -3 17 -13 26 -11 10 -22 13 -25 8z"/>
 <path d="M2806 5191 c-10 -11 -13 -22 -8 -25 5 -3 17 3 26 13 10 11 13 22 8 25 -5 3 -17 -3 -26 -13z"/>
 <path d="M6166 5202 c-3 -5 3 -17 13 -26 11 -10 22 -13 25 -8 3 5 -3 17 -13 26 -11 10 -22 13 -25 8z"/>
 <path d="M2676 5071 c-15 -16 -23 -31 -18 -35 5 -3 21 8 36 23 15 16 23 31 18 35 -5 3 -21 -8 -36 -23z"/>
 <path d="M6286 5092 c-3 -5 8 -21 23 -36 16 -15 31 -23 35 -18 3 5 -8 21 -23 36 -16 15 -31 23 -35 18z"/>
 <path d="M2556 4941 c-10 -11 -13 -22 -8 -25 5 -3 17 3 26 13 10 11 13 22 8 25 -5 3 -17 -3 -26 -13z"/>
 <path d="M6416 4952 c-3 -5 3 -17 13 -26 11 -10 22 -13 25 -8 3 5 -3 17 -13 26 -11 10 -22 13 -25 8z"/>
 <path d="M2506 4881 c-10 -11 -13 -22 -8 -25 5 -3 17 3 26 13 10 11 13 22 8 25 -5 3 -17 -3 -26 -13z"/>
 <path d="M6466 4892 c-3 -5 3 -17 13 -26 11 -10 22 -13 25 -8 3 5 -3 17 -13 26 -11 10 -22 13 -25 8z"/>
 <path d="M2471 4836 c-7 -8 -8 -17 -3 -20 6 -3 15 1 21 8 7 8 8 17 3 20 -6 3 -15 -1 -21 -8z"/>
 <path d="M6506 4842 c-3 -6 1 -15 8 -21 8 -7 17 -8 20 -3 3 6 -1 15 -8 21 -8 7 -17 8 -20 3z"/>
 <path d="M2421 4771 c-12 -16 -17 -32 -12 -35 5 -4 19 7 30 23 12 16 17 32 12 35 -5 4 -19 -7 -30 -23z"/>
 <path d="M6547 4794 c-3 -6 4 -23 17 -39 13 -15 25 -24 29 -19 3 6 -4 23 -17 39 -13 15 -25 24 -29 19z"/>
 <path d="M2361 4686 c-17 -25 -27 -47 -22 -51 6 -3 24 15 40 39 17 25 27 47 22 51 -6 3 -24 -15 -40 -39z"/>
 <path d="M6597 4724 c-9 -10 53 -95 64 -89 5 4 -5 26 -21 51 -33 47 -33 47 -43 38z"/>
 <path d="M2311 4606 c-7 -8 -8 -17 -3 -20 6 -3 15 1 21 8 7 8 8 17 3 20 -6 3 -15 -1 -21 -8z"/>
 <path d="M6666 4612 c-3 -6 1 -15 8 -21 8 -7 17 -8 20 -3 3 6 -1 15 -8 21 -8 7 -17 8 -20 3z"/>
 <path d="M2252 4507 c-5 -6 -17 -26 -26 -44 -25 -50 -1 -48 27 2 23 41 23 72 -1 42z"/>
 <path d="M6727 4514 c-8 -8 44 -95 54 -89 5 4 0 24 -11 45 -20 40 -33 53 -43 44z"/>
 <path d="M2165 4341 c-9 -18 -11 -32 -5 -36 5 -3 16 8 25 24 9 18 11 32 5 36 -5 3 -16 -8 -25 -24z"/>
 <path d="M6807 4364 c-9 -10 22 -66 33 -59 6 4 4 18 -5 36 -17 31 -18 32 -28 23z"/>
 <path d="M2085 4150 c-4 -6 -3 -16 3 -22 6 -6 12 -6 17 2 4 6 3 16 -3 22 -6 6 -12 6 -17 -2z"/>
 <path d="M6895 4150 c-4 -6 -3 -16 3 -22 6 -6 12 -6 17 2 4 6 3 16 -3 22 -6 6 -12 6 -17 -2z"/>
 <path d="M2030 3985 c-7 -19 -7 -32 -1 -38 7 -7 14 -1 21 18 7 19 7 32 1 38 -7 7 -14 1 -21 -18z"/>
 <path d="M6946 4001 c-10 -16 13 -66 25 -54 6 6 6 19 0 36 -11 29 -16 32 -25 18z"/>
 <path d="M1985 3810 c-4 -6 -3 -16 3 -22 6 -6 12 -6 17 2 4 6 3 16 -3 22 -6 6 -12 6 -17 -2z"/>
 <path d="M6995 3810 c-4 -6 -3 -16 3 -22 6 -6 12 -6 17 2 4 6 3 16 -3 22 -6 6 -12 6 -17 -2z"/>
 <path d="M1965 3710 c-4 -6 -3 -16 3 -22 6 -6 12 -6 17 2 4 6 3 16 -3 22 -6 6 -12 6 -17 -2z"/>
 <path d="M7015 3710 c-4 -6 -3 -16 3 -22 6 -6 12 -6 17 2 4 6 3 16 -3 22 -6 6 -12 6 -17 -2z"/>
 <path d="M1955 3650 c-4 -6 -3 -16 3 -22 6 -6 12 -6 17 2 4 6 3 16 -3 22 -6 6 -12 6 -17 -2z"/>
 <path d="M7025 3650 c-4 -6 -3 -16 3 -22 6 -6 12 -6 17 2 4 6 3 16 -3 22 -6 6 -12 6 -17 -2z"/>
 <path d="M1945 3580 c-4 -6 -3 -16 3 -22 6 -6 12 -6 17 2 4 6 3 16 -3 22 -6 6 -12 6 -17 -2z"/>
 <path d="M7035 3580 c-4 -6 -3 -16 3 -22 6 -6 12 -6 17 2 4 6 3 16 -3 22 -6 6 -12 6 -17 -2z"/>
 <path d="M5559 3360 c-61 -18 -109 -75 -109 -130 0 -67 70 -133 140 -133 68 0 130 64 130 133 0 82 -87 152 -161 130z"/>
 <path d="M1945 2940 c-4 -6 -3 -16 3 -22 6 -6 12 -6 17 2 4 6 3 16 -3 22 -6 6 -12 6 -17 -2z"/>
 <path d="M7035 2940 c-4 -6 -3 -16 3 -22 6 -6 12 -6 17 2 4 6 3 16 -3 22 -6 6 -12 6 -17 -2z"/>
 <path d="M1955 2870 c-4 -6 -3 -16 3 -22 6 -6 12 -6 17 2 4 6 3 16 -3 22 -6 6 -12 6 -17 -2z"/>
 <path d="M7025 2870 c-4 -6 -3 -16 3 -22 6 -6 12 -6 17 2 4 6 3 16 -3 22 -6 6 -12 6 -17 -2z"/>
 <path d="M1965 2810 c-4 -6 -3 -16 3 -22 6 -6 12 -6 17 2 4 6 3 16 -3 22 -6 6 -12 6 -17 -2z"/>
 <path d="M7015 2810 c-4 -6 -3 -16 3 -22 6 -6 12 -6 17 2 4 6 3 16 -3 22 -6 6 -12 6 -17 -2z"/>
 <path d="M1985 2710 c-4 -6 -3 -16 3 -22 6 -6 12 -6 17 2 4 6 3 16 -3 22 -6 6 -12 6 -17 -2z"/>
 <path d="M6995 2710 c-4 -6 -3 -16 3 -22 6 -6 12 -6 17 2 4 6 3 16 -3 22 -6 6 -12 6 -17 -2z"/>
 <path d="M2026 2551 c-10 -16 13 -66 25 -54 6 6 6 19 0 36 -11 29 -16 32 -25 18z"/>
 <path d="M6950 2535 c-7 -19 -7 -32 -1 -38 7 -7 14 -1 21 18 7 19 7 32 1 38 -7 7 -14 1 -21 -18z"/>
 <path d="M2085 2370 c-4 -6 -3 -16 3 -22 6 -6 12 -6 17 2 4 6 3 16 -3 22 -6 6 -12 6 -17 -2z"/>
 <path d="M6895 2370 c-4 -6 -3 -16 3 -22 6 -6 12 -6 17 2 4 6 3 16 -3 22 -6 6 -12 6 -17 -2z"/>
 <path d="M2157 2194 c-9 -10 22 -66 33 -59 6 4 4 18 -5 36 -17 31 -18 32 -28 23z"/>
 <path d="M6815 2171 c-9 -18 -11 -32 -5 -36 5 -3 16 8 25 24 9 18 11 32 5 36 -5 3 -16 -8 -25 -24z"/>
 <path d="M2217 2074 c-6 -6 16 -57 35 -81 24 -30 24 1 1 42 -27 48 -26 48 -36 39z"/>
 <path d="M6747 2035 c-14 -25 -22 -47 -17 -50 9 -6 22 9 44 52 25 50 1 48 -27 -2z"/>
 <path d="M2306 1912 c-3 -6 1 -15 8 -21 8 -7 17 -8 20 -3 3 6 -1 15 -8 21 -8 7 -17 8 -20 3z"/>
 <path d="M6671 1906 c-7 -8 -8 -17 -3 -20 6 -3 15 1 21 8 7 8 8 17 3 20 -6 3 -15 -1 -21 -8z"/>
 <path d="M2337 1864 c-9 -10 53 -95 64 -89 5 4 -5 26 -21 51 -33 47 -33 47 -43 38z"/>
 <path d="M6621 1826 c-17 -25 -27 -47 -22 -51 6 -3 24 15 40 39 17 25 27 47 22 51 -6 3 -24 -15 -40 -39z"/>
 <path d="M2407 1764 c-3 -6 4 -23 17 -39 13 -15 25 -24 29 -19 3 6 -4 23 -17 39 -13 15 -25 24 -29 19z"/>
 <path d="M6561 1741 c-12 -16 -17 -32 -12 -35 5 -4 19 7 30 23 12 16 17 32 12 35 -5 4 -19 -7 -30 -23z"/>
 <path d="M2466 1682 c-3 -6 1 -15 8 -21 8 -7 17 -8 20 -3 3 6 -1 15 -8 21 -8 7 -17 8 -20 3z"/>
 <path d="M6511 1676 c-7 -8 -8 -17 -3 -20 6 -3 15 1 21 8 7 8 8 17 3 20 -6 3 -15 -1 -21 -8z"/>
 <path d="M2496 1642 c-3 -5 3 -17 13 -26 11 -10 22 -13 25 -8 3 5 -3 17 -13 26 -11 10 -22 13 -25 8z"/>
 <path d="M6476 1631 c-10 -11 -13 -22 -8 -25 5 -3 17 3 26 13 10 11 13 22 8 25 -5 3 -17 -3 -26 -13z"/>
 <path d="M2546 1582 c-3 -5 3 -17 13 -26 11 -10 22 -13 25 -8 3 5 -3 17 -13 26 -11 10 -22 13 -25 8z"/>
 <path d="M6426 1571 c-10 -11 -13 -22 -8 -25 5 -3 17 3 26 13 10 11 13 22 8 25 -5 3 -17 -3 -26 -13z"/>
 <path d="M2656 1462 c-3 -5 8 -21 23 -36 16 -15 31 -23 35 -18 3 5 -8 21 -23 36 -16 15 -31 23 -35 18z"/>
 <path d="M6306 1441 c-15 -16 -23 -31 -18 -35 5 -3 21 8 36 23 15 16 23 31 18 35 -5 3 -21 -8 -36 -23z"/>
 <path d="M2796 1332 c-3 -5 3 -17 13 -26 11 -10 22 -13 25 -8 3 5 -3 17 -13 26 -11 10 -22 13 -25 8z"/>
 <path d="M6176 1321 c-10 -11 -13 -22 -8 -25 5 -3 17 3 26 13 10 11 13 22 8 25 -5 3 -17 -3 -26 -13z"/>
 <path d="M2856 1282 c-3 -5 3 -17 13 -26 11 -10 22 -13 25 -8 3 5 -3 17 -13 26 -11 10 -22 13 -25 8z"/>
 <path d="M6116 1271 c-10 -11 -13 -22 -8 -25 5 -3 17 3 26 13 10 11 13 22 8 25 -5 3 -17 -3 -26 -13z"/>
 <path d="M2906 1242 c-3 -6 1 -15 8 -21 8 -7 17 -8 20 -3 3 6 -1 15 -8 21 -8 7 -17 8 -20 3z"/>
 <path d="M6071 1236 c-7 -8 -8 -17 -3 -20 6 -3 15 1 21 8 7 8 8 17 3 20 -6 3 -15 -1 -21 -8z"/>
 <path d="M2956 1201 c-4 -5 7 -19 23 -30 16 -12 32 -17 35 -12 4 5 -7 19 -23 30 -16 12 -32 17 -35 12z"/>
 <path d="M6005 1186 c-15 -13 -24 -25 -19 -29 6 -3 23 4 39 17 15 13 24 25 19 29 -6 3 -23 -4 -39 -17z"/>
 <path d="M3025 1151 c-3 -6 15 -24 39 -40 25 -17 47 -27 51 -22 3 6 -15 24 -39 40 -25 17 -47 27 -51 22z"/>
 <path d="M5951 1146 c-7 -8 -8 -17 -3 -20 6 -3 15 1 21 8 7 8 8 17 3 20 -6 3 -15 -1 -21 -8z"/>
 <path d="M3136 1082 c-3 -6 1 -15 8 -21 8 -7 17 -8 20 -3 3 6 -1 15 -8 21 -8 7 -17 8 -20 3z"/>
 <path d="M3235 1020 c-6 -9 9 -22 52 -44 50 -25 48 -1 -2 27 -25 14 -47 22 -50 17z"/>
 <path d="M5685 986 c-11 -8 -14 -16 -8 -19 6 -4 18 0 28 7 11 8 14 16 8 19 -6 4 -18 0 -28 -7z"/>
 <path d="M3385 940 c-3 -5 8 -16 24 -25 18 -9 32 -11 36 -5 3 5 -8 16 -24 25 -18 9 -32 11 -36 5z"/>
 <path d="M5577 934 c-38 -20 -24 -38 14 -19 16 9 27 20 24 25 -7 12 -4 13 -38 -6z"/>
 <path d="M3595 851 c-7 -12 12 -24 25 -16 11 7 4 25 -10 25 -5 0 -11 -4 -15 -9z"/>
 <path d="M5375 851 c-7 -12 12 -24 25 -16 11 7 4 25 -10 25 -5 0 -11 -4 -15 -9z"/>
 <path d="M3745 800 c-9 -14 45 -34 58 -21 7 7 1 14 -17 21 -33 12 -33 12 -41 0z"/>
 <path d="M5211 799 c-16 -6 -21 -13 -14 -20 13 -13 67 7 58 21 -7 12 -12 12 -44 -1z"/>
 <path d="M3935 751 c-7 -12 12 -24 25 -16 11 7 4 25 -10 25 -5 0 -11 -4 -15 -9z"/>
 <path d="M5035 751 c-7 -12 12 -24 25 -16 11 7 4 25 -10 25 -5 0 -11 -4 -15 -9z"/>
 <path d="M4035 731 c-7 -12 12 -24 25 -16 11 7 4 25 -10 25 -5 0 -11 -4 -15 -9z"/>
 <path d="M4935 731 c-7 -12 12 -24 25 -16 11 7 4 25 -10 25 -5 0 -11 -4 -15 -9z"/>
 <path d="M4095 721 c-7 -12 12 -24 25 -16 11 7 4 25 -10 25 -5 0 -11 -4 -15 -9z"/>
 <path d="M4875 721 c-7 -12 12 -24 25 -16 11 7 4 25 -10 25 -5 0 -11 -4 -15 -9z"/>
 <path d="M4165 711 c-7 -12 12 -24 25 -16 11 7 4 25 -10 25 -5 0 -11 -4 -15 -9z"/>
 <path d="M4805 711 c-7 -12 12 -24 25 -16 11 7 4 25 -10 25 -5 0 -11 -4 -15 -9z"/>
 </g>
<g id="layer8" fill="#d1d0ce" stroke="none">
 <path d="M3685 4201 c-7 -12 12 -24 25 -16 11 7 4 25 -10 25 -5 0 -11 -4 -15 -9z"/>
 <path d="M5745 4201 c-7 -12 12 -24 25 -16 11 7 4 25 -10 25 -5 0 -11 -4 -15 -9z"/>
 <path d="M3245 4191 c-7 -12 12 -24 25 -16 11 7 4 25 -10 25 -5 0 -11 -4 -15 -9z"/>
 <path d="M5305 4191 c-7 -12 12 -24 25 -16 11 7 4 25 -10 25 -5 0 -11 -4 -15 -9z"/>
 <path d="M5455 4140 c-8 -12 20 -24 35 -15 6 3 8 11 5 16 -8 12 -32 12 -40 -1z"/>
 <path d="M5655 4141 c-7 -12 12 -24 25 -16 11 7 4 25 -10 25 -5 0 -11 -4 -15 -9z"/>
 <path d="M5406 4133 c-4 -5 -12 -8 -17 -8 -5 0 -9 -3 -9 -7 0 -8 3 -9 18 -7 4 1 12 2 17 3 13 1 19 20 8 23 -5 2 -13 0 -17 -4z"/>
 <path d="M5705 4131 c-6 -11 13 -26 22 -17 3 3 12 1 19 -5 7 -6 18 -8 24 -4 14 9 1 28 -16 21 -7 -3 -16 -1 -19 4 -8 13 -22 13 -30 1z"/>
 <path d="M5996 4082 c-3 -6 1 -15 8 -21 8 -7 17 -8 20 -3 3 6 -1 15 -8 21 -8 7 -17 8 -20 3z"/>
 <path d="M3946 4072 c-3 -6 1 -15 8 -21 8 -7 17 -8 20 -3 3 6 -1 15 -8 21 -8 7 -17 8 -20 3z"/>
 <path d="M3011 4056 c-7 -8 -8 -17 -3 -20 6 -3 15 1 21 8 7 8 8 17 3 20 -6 3 -15 -1 -21 -8z"/>
 <path d="M5207 4044 c-21 -14 -35 -29 -32 -34 3 -5 24 2 45 16 22 15 37 30 34 35 -7 12 -4 13 -47 -17z"/>
 <path d="M5966 4012 c-3 -5 3 -17 13 -26 11 -10 22 -13 25 -8 3 5 -3 17 -13 26 -11 10 -22 13 -25 8z"/>
 <path d="M5101 3956 c-29 -30 -49 -56 -44 -59 5 -3 33 18 62 47 29 30 49 56 44 59 -5 3 -33 -18 -62 -47z"/>
 <path d="M2916 3961 c-10 -11 -13 -22 -8 -25 5 -3 17 3 26 13 10 11 13 22 8 25 -5 3 -17 -3 -26 -13z"/>
 <path d="M6136 3942 c-3 -6 1 -15 8 -21 8 -7 17 -8 20 -3 3 6 -1 15 -8 21 -8 7 -17 8 -20 3z"/>
 <path d="M2881 3916 c-7 -8 -8 -17 -3 -20 6 -3 15 1 21 8 7 8 8 17 3 20 -6 3 -15 -1 -21 -8z"/>
 <path d="M5525 3920 c-3 -5 -11 -8 -16 -4 -13 8 -61 -24 -54 -36 3 -4 20 -1 37 8 18 8 46 16 63 16 16 1 32 6 35 11 7 14 -56 19 -65 5z"/>
 <path d="M6056 3922 c-3 -5 3 -17 13 -26 11 -10 22 -13 25 -8 3 5 -3 17 -13 26 -11 10 -22 13 -25 8z"/>
 <path d="M5616 3912 c-3 -6 1 -15 8 -21 8 -7 17 -8 20 -3 3 6 -1 15 -8 21 -8 7 -17 8 -20 3z"/>
 <path d="M5022 3863 c-30 -44 -33 -51 -23 -57 5 -3 20 12 35 34 29 44 18 66 -12 23z"/>
 <path d="M5656 3882 c-3 -6 1 -15 8 -21 8 -7 17 -8 20 -3 3 6 -1 15 -8 21 -8 7 -17 8 -20 3z"/>
 <path d="M3407 3869 c-110 -26 -218 -116 -269 -225 -144 -309 153 -647 480 -546 111 35 195 112 249 228 25 52 28 71 28 154 0 85 -3 102 -31 160 -83 175 -275 272 -457 229z m201 -149 c2 -41 8 -80 13 -87 7 -7 41 -13 87 -15 l77 -3 0 -110 0 -110 -71 -3 c-92 -4 -102 -14 -106 -107 l-3 -70 -105 0 -105 0 -3 70 c-4 93 -14 103 -106 107 l-71 3 0 110 0 110 70 3 c90 3 105 18 105 106 0 35 3 66 7 70 4 4 52 5 107 4 l101 -3 3 -75z"/>
 <path d="M6096 3872 c-3 -6 1 -15 8 -21 8 -7 17 -8 20 -3 3 6 -1 15 -8 21 -8 7 -17 8 -20 3z"/>
 <path d="M5696 3851 c-4 -5 7 -19 23 -30 16 -12 32 -17 35 -12 4 5 -7 19 -23 30 -16 12 -32 17 -35 12z"/>
 <path d="M5395 3819 c-12 -22 -14 -34 -6 -42 7 -7 13 -2 21 18 6 15 13 31 15 36 3 4 1 10 -4 14 -6 3 -17 -9 -26 -26z"/>
 <path d="M6137 3814 c-9 -10 22 -66 33 -59 6 4 4 18 -5 36 -17 31 -18 32 -28 23z"/>
 <path d="M5766 3802 c-3 -6 1 -15 8 -21 8 -7 17 -8 20 -3 3 6 -1 15 -8 21 -8 7 -17 8 -20 3z"/>
 <path d="M5806 3771 c-4 -5 7 -19 23 -30 16 -12 32 -17 35 -12 4 5 -7 19 -23 30 -16 12 -32 17 -35 12z"/>
 <path d="M2785 3740 c-4 -6 -3 -16 3 -22 6 -6 12 -6 17 2 4 6 3 16 -3 22 -6 6 -12 6 -17 -2z"/>
 <path d="M4215 3721 c-7 -12 11 -24 24 -17 4 3 16 -3 26 -14 10 -11 22 -17 27 -14 5 3 2 14 -8 25 -9 10 -20 16 -25 14 -4 -3 -10 -1 -14 5 -8 13 -22 13 -30 1z"/>
 <path d="M4575 3721 c-6 -11 11 -24 23 -17 5 3 42 -28 82 -69 40 -41 78 -71 83 -68 5 3 -24 38 -64 79 -40 40 -76 71 -80 68 -4 -2 -10 0 -14 6 -8 13 -22 13 -30 1z"/>
 <path d="M5876 3722 c-3 -6 1 -15 8 -21 8 -7 17 -8 20 -3 3 6 -1 15 -8 21 -8 7 -17 8 -20 3z"/>
 <path d="M6176 3721 c-4 -5 -2 -12 4 -16 6 -4 8 -10 5 -15 -3 -5 -1 -11 4 -15 6 -3 8 -12 5 -19 -7 -17 12 -30 21 -16 4 6 1 17 -5 25 -7 8 -9 15 -5 15 4 0 1 7 -6 17 -8 9 -12 18 -11 20 2 3 1 7 -1 9 -3 3 -8 1 -11 -5z"/>
 <path d="M5386 3711 c-9 -14 22 -73 34 -66 5 3 5 17 -2 33 -16 37 -25 46 -32 33z"/>
 <path d="M5916 3691 c-4 -5 7 -19 23 -30 16 -12 32 -17 35 -12 4 5 -7 19 -23 30 -16 12 -32 17 -35 12z"/>
 <path d="M4939 3686 c-1 -3 -2 -9 -3 -13 -1 -5 -5 -14 -9 -20 -5 -7 -5 -18 -2 -23 9 -14 28 -1 21 15 -2 7 0 17 6 23 6 6 6 12 -1 16 -6 4 -12 5 -12 2z"/>
 <path d="M2765 3670 c-4 -6 -3 -16 3 -22 6 -6 12 -6 17 2 4 6 3 16 -3 22 -6 6 -12 6 -17 -2z"/>
 <path d="M5182 3658 c-7 -7 -12 -9 -12 -5 0 4 -9 3 -20 -3 -11 -6 -18 -15 -15 -21 4 -5 15 -4 28 3 12 7 27 12 32 13 13 0 19 19 8 22 -5 2 -14 -2 -21 -9z"/>
 <path d="M5255 3660 c-7 -11 35 -31 49 -22 5 3 1 11 -9 19 -22 16 -32 16 -40 3z"/>
 <path d="M5986 3642 c-3 -6 1 -15 8 -21 8 -7 17 -8 20 -3 3 6 -1 15 -8 21 -8 7 -17 8 -20 3z"/>
 <path d="M5316 3631 c-4 -5 7 -19 23 -30 16 -12 32 -17 35 -12 4 5 -7 19 -23 30 -16 12 -32 17 -35 12z"/>
 <path d="M5436 3631 c-4 -5 7 -19 23 -30 16 -12 32 -17 35 -12 4 5 -7 19 -23 30 -16 12 -32 17 -35 12z"/>
 <path d="M5098 3612 c-29 -33 -50 -84 -40 -94 7 -7 16 2 27 28 9 21 23 46 31 55 9 10 11 20 6 23 -5 3 -16 -2 -24 -12z"/>
 <path d="M5185 3621 c-7 -12 12 -24 25 -16 11 7 4 25 -10 25 -5 0 -11 -4 -15 -9z"/>
 <path d="M5235 3621 c-7 -12 12 -24 24 -16 5 3 12 1 16 -5 4 -6 11 -8 16 -4 5 3 7 10 3 15 -3 5 -9 7 -14 4 -5 -3 -11 -1 -15 5 -8 13 -22 13 -30 1z"/>
 <path d="M5895 3621 c-7 -12 12 -24 25 -16 11 7 4 25 -10 25 -5 0 -11 -4 -15 -9z"/>
 <path d="M6026 3612 c-3 -5 3 -17 13 -26 11 -10 22 -13 25 -8 3 5 -3 17 -13 26 -11 10 -22 13 -25 8z"/>
 <path d="M6205 3610 c-4 -6 -3 -16 3 -22 6 -6 12 -6 17 2 4 6 3 16 -3 22 -6 6 -12 6 -17 -2z"/>
 <path d="M4914 3596 c-4 -10 -2 -22 4 -28 8 -8 13 -7 18 6 4 10 2 22 -4 28 -8 8 -13 7 -18 -6z"/>
 <path d="M5978 3604 c-3 -5 9 -26 27 -47 19 -22 36 -34 39 -28 4 6 -8 27 -27 47 -19 21 -36 33 -39 28z"/>
 <path d="M4386 3582 c-3 -6 1 -15 8 -21 8 -7 17 -8 20 -3 3 6 -1 15 -8 21 -8 7 -17 8 -20 3z"/>
 <path d="M5386 3582 c-3 -6 1 -15 8 -21 8 -7 17 -8 20 -3 3 6 -1 15 -8 21 -8 7 -17 8 -20 3z"/>
 <path d="M5506 3582 c-3 -6 1 -15 8 -21 8 -7 17 -8 20 -3 3 6 -1 15 -8 21 -8 7 -17 8 -20 3z"/>
 <path d="M6285 3580 c-4 -6 -3 -16 3 -22 6 -6 12 -6 17 2 4 6 3 16 -3 22 -6 6 -12 6 -17 -2z"/>
 <path d="M5426 3551 c-4 -5 7 -19 23 -30 16 -12 32 -17 35 -12 4 5 -7 19 -23 30 -16 12 -32 17 -35 12z"/>
 <path d="M5546 3551 c-4 -5 7 -19 23 -30 16 -12 32 -17 35 -12 4 5 -7 19 -23 30 -16 12 -32 17 -35 12z"/>
 <path d="M6215 3538 c-9 -24 -1 -103 10 -103 14 0 19 95 6 108 -7 7 -12 5 -16 -5z"/>
 <path d="M2745 3520 c-4 -6 -3 -16 3 -22 6 -6 12 -6 17 2 4 6 3 16 -3 22 -6 6 -12 6 -17 -2z"/>
 <path d="M4391 3516 c-7 -8 -8 -17 -3 -20 6 -3 15 1 21 8 7 8 8 17 3 20 -6 3 -15 -1 -21 -8z"/>
 <path d="M5345 3500 c-4 -6 -3 -16 3 -22 6 -6 12 -6 17 2 4 6 3 16 -3 22 -6 6 -12 6 -17 -2z"/>
 <path d="M5496 3502 c-3 -6 1 -15 8 -21 8 -7 17 -8 20 -3 3 6 -1 15 -8 21 -8 7 -17 8 -20 3z"/>
 <path d="M5616 3502 c-3 -6 1 -15 8 -21 8 -7 17 -8 20 -3 3 6 -1 15 -8 21 -8 7 -17 8 -20 3z"/>
 <path d="M4325 3491 c-7 -12 12 -24 25 -16 11 7 4 25 -10 25 -5 0 -11 -4 -15 -9z"/>
 <path d="M4685 3491 c-7 -12 12 -24 25 -16 11 7 4 25 -10 25 -5 0 -11 -4 -15 -9z"/>
 <path d="M5095 3470 c-4 -6 -3 -16 3 -22 6 -6 12 -6 17 2 4 6 3 16 -3 22 -6 6 -12 6 -17 -2z"/>
 <path d="M5536 3471 c-4 -5 7 -19 23 -30 16 -12 32 -17 35 -12 4 5 -7 19 -23 30 -16 12 -32 17 -35 12z"/>
 <path d="M5656 3471 c-4 -5 7 -19 23 -30 16 -12 32 -17 35 -12 4 5 -7 19 -23 30 -16 12 -32 17 -35 12z"/>
 <path d="M5055 3460 c-4 -6 -3 -16 3 -22 6 -6 12 -6 17 2 4 6 3 16 -3 22 -6 6 -12 6 -17 -2z"/>
 <path d="M5326 3435 c-16 -24 -6 -45 11 -22 19 24 23 36 14 41 -5 3 -16 -5 -25 -19z"/>
 <path d="M6069 3453 c-1 -4 -1 -11 -1 -14 1 -4 -17 -27 -39 -52 -21 -25 -36 -48 -31 -51 11 -6 72 56 75 75 2 8 6 19 10 26 4 6 3 14 -3 18 -5 3 -11 3 -11 -2z"/>
 <path d="M2744 3416 c-4 -10 -2 -22 4 -28 8 -8 13 -7 18 6 4 10 2 22 -4 28 -8 8 -13 7 -18 -6z"/>
 <path d="M5116 3421 c-6 -9 35 -51 55 -55 8 -2 22 -6 31 -10 22 -10 50 -4 46 9 -2 6 -16 10 -31 11 -16 0 -44 12 -62 27 -19 15 -36 23 -39 18z"/>
 <path d="M5606 3422 c-3 -6 1 -15 8 -21 8 -7 17 -8 20 -3 3 6 -1 15 -8 21 -8 7 -17 8 -20 3z"/>
 <path d="M5726 3422 c-3 -6 1 -15 8 -21 8 -7 17 -8 20 -3 3 6 -1 15 -8 21 -8 7 -17 8 -20 3z"/>
 <path d="M5996 3401 c-10 -11 -13 -22 -8 -25 5 -3 17 3 26 13 10 11 13 22 8 25 -5 3 -17 -3 -26 -13z"/>
 <path d="M4915 3400 c-4 -6 -3 -16 3 -22 6 -6 12 -6 17 2 4 6 3 16 -3 22 -6 6 -12 6 -17 -2z"/>
 <path d="M5076 3402 c-3 -5 3 -17 13 -26 11 -10 22 -13 25 -8 3 5 -3 17 -13 26 -11 10 -22 13 -25 8z"/>
 <path d="M5646 3391 c-4 -5 7 -19 23 -30 16 -12 32 -17 35 -12 4 5 -7 19 -23 30 -16 12 -32 17 -35 12z"/>
 <path d="M5766 3391 c-4 -5 7 -19 23 -30 16 -12 32 -17 35 -12 4 5 -7 19 -23 30 -16 12 -32 17 -35 12z"/>
 <path d="M6204 3386 c-4 -9 -4 -20 0 -23 3 -3 1 -12 -5 -19 -6 -7 -8 -18 -4 -24 8 -13 26 -3 24 13 -1 7 1 20 6 30 4 11 3 23 -3 29 -8 8 -13 7 -18 -6z"/>
 <path d="M5865 3371 c-7 -12 12 -24 25 -16 11 7 4 25 -10 25 -5 0 -11 -4 -15 -9z"/>
 <path d="M5126 3362 c-3 -6 1 -15 8 -21 8 -7 17 -8 20 -3 3 6 -1 15 -8 21 -8 7 -17 8 -20 3z"/>
 <path d="M5545 3360 c-8 -13 6 -18 45 -16 19 2 42 -4 52 -11 9 -9 18 -10 22 -5 5 9 -23 40 -31 35 -1 -2 -4 -3 -5 -2 -16 6 -79 6 -83 -1z"/>
 <path d="M4925 3349 c-4 -6 -3 -15 3 -21 6 -6 8 -16 6 -23 -3 -7 -1 -16 5 -19 14 -9 25 14 13 26 -6 6 -8 16 -6 23 7 17 -12 29 -21 14z"/>
 <path d="M5486 3321 c-15 -16 -23 -31 -18 -35 5 -3 21 8 36 23 15 16 23 31 18 35 -5 3 -21 -8 -36 -23z"/>
 <path d="M5836 3341 c-9 -15 23 -36 35 -24 8 8 5 14 -9 22 -12 6 -23 7 -26 2z"/>
 <path d="M5166 3331 c-4 -5 7 -19 23 -30 16 -12 32 -17 35 -12 4 5 -7 19 -23 30 -16 12 -32 17 -35 12z"/>
 <path d="M5945 3331 c-7 -12 12 -24 25 -16 11 7 4 25 -10 25 -5 0 -11 -4 -15 -9z"/>
 <path d="M5236 3282 c-3 -6 1 -15 8 -21 8 -7 17 -8 20 -3 3 6 -1 15 -8 21 -8 7 -17 8 -20 3z"/>
 <path d="M6155 3224 c-14 -31 -41 -78 -60 -105 -19 -27 -30 -51 -25 -54 15 -10 91 104 120 180 6 15 6 27 0 30 -6 3 -21 -20 -35 -51z"/>
 <path d="M5276 3251 c-4 -5 7 -19 23 -30 16 -12 32 -17 35 -12 4 5 -7 19 -23 30 -16 12 -32 17 -35 12z"/>
 <path d="M5705 3240 c-4 -6 -3 -16 3 -22 6 -6 12 -6 17 2 4 6 3 16 -3 22 -6 6 -12 6 -17 -2z"/>
 <path d="M5346 3202 c-3 -6 1 -15 8 -21 8 -7 17 -8 20 -3 3 6 -1 15 -8 21 -8 7 -17 8 -20 3z"/>
 <path d="M5386 3171 c-4 -5 7 -19 23 -30 16 -12 32 -17 35 -12 4 5 -7 19 -23 30 -16 12 -32 17 -35 12z"/>
 <path d="M5466 3172 c-3 -5 8 -21 23 -36 16 -15 31 -23 35 -18 3 5 -8 21 -23 36 -16 15 -31 23 -35 18z"/>
 <path d="M5641 3127 c-6 -6 -29 -12 -49 -12 -20 0 -39 -4 -42 -10 -6 -12 68 -16 76 -3 3 4 9 6 14 3 4 -3 13 2 19 9 15 18 -2 29 -18 13z"/>
 <path d="M5699 3124 c-16 -20 -71 -49 -86 -46 -16 3 -26 -15 -13 -23 6 -4 17 -1 25 5 8 7 15 10 15 6 0 -11 53 20 73 42 10 11 14 23 9 26 -5 3 -16 -1 -23 -10z"/>
 <path d="M5027 3123 c-3 -5 6 -25 22 -43 15 -19 30 -29 33 -24 4 5 -6 25 -21 43 -16 19 -31 30 -34 24z"/>
 <path d="M5456 3122 c-3 -6 1 -15 8 -21 8 -7 17 -8 20 -3 3 6 -1 15 -8 21 -8 7 -17 8 -20 3z"/>
 <path d="M5496 3091 c-9 -14 40 -45 60 -37 19 7 9 26 -15 26 -9 0 -22 5 -28 11 -7 7 -13 7 -17 0z"/>
 <path d="M4195 3040 c-4 -6 -3 -16 3 -22 6 -6 12 -6 17 2 4 6 3 16 -3 22 -6 6 -12 6 -17 -2z"/>
 <path d="M4031 3006 c-7 -8 -8 -17 -3 -20 6 -3 15 1 21 8 7 8 8 17 3 20 -6 3 -15 -1 -21 -8z"/>
 <path d="M5136 3002 c-3 -5 3 -17 13 -26 11 -10 22 -13 25 -8 3 5 -3 17 -13 26 -11 10 -22 13 -25 8z"/>
 <path d="M5945 2967 c-22 -16 -68 -43 -103 -59 -66 -30 -79 -59 -14 -32 49 20 140 75 158 96 27 29 0 26 -41 -5z"/>
 <path d="M3981 2956 c-7 -8 -8 -17 -3 -20 6 -3 15 1 21 8 7 8 8 17 3 20 -6 3 -15 -1 -21 -8z"/>
 <path d="M4085 2960 c-11 -17 5 -32 21 -19 7 6 11 15 8 20 -7 12 -21 11 -29 -1z"/>
 <path d="M5186 2962 c-3 -6 1 -15 8 -21 8 -7 17 -8 20 -3 3 6 -1 15 -8 21 -8 7 -17 8 -20 3z"/>
 <path d="M4041 2946 c-7 -8 -8 -17 -3 -20 6 -3 15 1 21 8 7 8 8 17 3 20 -6 3 -15 -1 -21 -8z"/>
 <path d="M4245 2951 c-3 -5 -1 -12 5 -16 16 -10 12 -41 -7 -56 -16 -12 -17 -12 -6 2 16 20 5 33 -14 17 -11 -9 -11 -14 3 -29 16 -17 17 -17 45 3 16 12 29 29 29 39 0 19 -46 53 -55 40z"/>
 <path d="M4439 2956 c0 0 -2 -11 -5 -23 -5 -28 16 -42 23 -14 3 11 12 19 22 18 9 -1 17 2 19 8 2 7 -55 18 -59 11z"/>
 <path d="M4689 2958 c-7 -23 -6 -45 3 -55 11 -14 32 -7 22 8 -3 5 -2 9 3 8 19 -3 23 2 13 21 -9 16 -37 28 -41 18z"/>
 <path d="M4754 2949 c-4 -7 26 -36 33 -31 1 1 4 2 6 1 14 -7 69 -5 73 3 3 5 11 4 19 -2 10 -8 15 -7 22 4 4 8 15 14 23 13 8 -1 17 3 20 8 6 11 -189 15 -196 4z"/>
 <path d="M4145 2940 c-4 -6 -3 -16 3 -22 6 -6 12 -6 17 2 4 6 3 16 -3 22 -6 6 -12 6 -17 -2z"/>
 <path d="M5245 2920 c-3 -5 8 -16 24 -25 18 -9 32 -11 36 -5 3 5 -8 16 -24 25 -18 9 -32 11 -36 5z"/>
 <path d="M4501 2902 c-13 -25 2 -38 19 -16 9 10 10 18 3 25 -8 8 -14 5 -22 -9z"/>
 <path d="M4029 2908 c-1 -2 -2 -16 -3 -31 -2 -31 26 -63 45 -52 8 6 5 13 -12 25 -18 15 -21 21 -11 32 6 8 9 18 5 21 -6 7 -22 9 -24 5z"/>
 <path d="M4360 2895 c-9 -11 -10 -19 -3 -26 7 -7 14 -5 23 6 9 11 10 19 3 26 -7 7 -14 5 -23 -6z"/>
 <path d="M4941 2891 c-7 -13 -8 -22 -1 -26 14 -9 29 2 26 20 -4 25 -14 28 -25 6z"/>
 <path d="M4826 2892 c-3 -6 1 -15 8 -21 8 -7 17 -8 20 -3 3 6 -1 15 -8 21 -8 7 -17 8 -20 3z"/>
 <path d="M4890 2870 c-8 -15 -9 -25 -2 -32 7 -7 14 -3 22 12 8 15 9 25 2 32 -7 7 -14 3 -22 -12z"/>
 <path d="M5336 2881 c-4 -5 -2 -12 4 -16 5 -3 10 -3 10 1 0 3 7 1 15 -6 8 -7 15 -9 15 -5 0 4 7 2 15 -5 8 -6 19 -9 25 -5 14 9 1 28 -15 21 -7 -2 -18 1 -24 7 -6 6 -11 7 -11 3 0 -5 -6 -3 -14 3 -9 8 -16 8 -20 2z"/>
 <path d="M4555 2870 c-4 -6 -3 -16 3 -22 6 -6 12 -6 17 2 4 6 3 16 -3 22 -6 6 -12 6 -17 -2z"/>
 <path d="M4266 2862 c-3 -5 0 -17 7 -26 12 -16 14 -16 26 -3 10 13 9 17 -8 26 -11 6 -22 7 -25 3z"/>
 <path d="M4675 2861 c-6 -11 29 -33 39 -24 7 7 -12 33 -25 33 -4 0 -10 -4 -14 -9z"/>
 <path d="M5716 2861 c-3 -5 -15 -7 -25 -4 -10 3 -22 0 -26 -6 -8 -14 20 -25 37 -15 7 5 18 9 23 9 14 0 19 19 7 23 -6 2 -13 -1 -16 -7z"/>
 <path d="M4505 2850 c-11 -17 5 -32 21 -19 7 6 11 15 8 20 -7 12 -21 11 -29 -1z"/>
 <path d="M5445 2851 c-7 -12 12 -24 25 -16 11 7 4 25 -10 25 -5 0 -11 -4 -15 -9z"/>
 <path d="M5515 2840 c-3 -5 0 -13 8 -16 23 -8 102 0 102 11 0 14 -102 19 -110 5z"/>
 <path d="M3047 2799 c-22 -13 -13 -29 18 -29 13 0 50 -15 82 -34 102 -61 274 -107 266 -71 -1 5 -30 15 -65 22 -34 7 -110 36 -168 65 -57 29 -107 54 -110 55 -3 1 -13 -2 -23 -8z"/>
 <path d="M5916 2773 c-64 -40 -205 -93 -248 -93 -32 0 -46 -17 -22 -27 31 -12 127 16 230 67 55 27 107 50 116 50 22 0 29 11 17 27 -17 19 -28 16 -93 -24z"/>
 <path d="M4515 2671 c-7 -12 12 -24 25 -16 11 7 4 25 -10 25 -5 0 -11 -4 -15 -9z"/>
 <path d="M3805 2661 c-3 -6 3 -15 14 -21 21 -11 37 2 26 20 -8 13 -32 13 -40 1z"/>
 <path d="M5204 2655 c-10 -26 6 -38 27 -19 10 9 16 21 13 25 -8 14 -34 10 -40 -6z"/>
 </g>
<g id="layer9" fill="#585756" stroke="none">
 <path d="M3387 3792 c-12 -13 -17 -37 -17 -83 0 -36 -5 -70 -11 -76 -14 -14 5 -27 26 -19 11 4 15 24 15 81 l0 76 98 -3 97 -3 3 -70 c3 -75 11 -91 38 -81 13 5 15 9 6 18 -7 7 -12 41 -12 78 0 93 -9 100 -132 100 -79 0 -98 -3 -111 -18z"/>
 <path d="M4195 3695 c-14 -13 -25 -29 -25 -36 0 -22 162 -179 186 -179 28 0 48 25 50 61 1 22 -13 42 -76 103 -43 42 -85 76 -94 76 -9 0 -28 -11 -41 -25z m128 -74 c72 -74 70 -71 61 -95 -12 -32 -48 -16 -116 51 -79 78 -89 113 -33 113 14 0 46 -25 88 -69z"/>
 <path d="M4552 3697 c-12 -13 -22 -30 -22 -38 0 -19 161 -179 180 -179 29 0 60 30 60 59 0 21 -18 45 -79 104 -43 42 -87 77 -98 77 -11 0 -29 -10 -41 -23z m122 -76 c69 -70 82 -102 42 -109 -22 -5 -156 123 -156 149 0 50 38 37 114 -40z"/>
 <path d="M3207 3612 c-23 -25 -25 -203 -2 -222 19 -16 54 -5 37 12 -18 18 -16 182 3 198 8 7 12 16 9 21 -9 15 -30 10 -47 -9z"/>
 <path d="M3746 3621 c-3 -5 1 -14 9 -21 18 -15 21 -160 5 -191 -9 -15 -7 -21 6 -26 31 -12 44 24 44 122 0 76 -3 95 -18 108 -21 19 -38 22 -46 8z"/>
 <path d="M3345 3391 c-3 -6 1 -14 9 -17 13 -5 16 -22 16 -78 0 -43 5 -77 12 -84 8 -8 49 -12 120 -12 126 0 128 2 128 101 0 47 4 65 18 75 16 12 16 13 0 19 -39 15 -48 -1 -48 -80 l0 -75 -100 0 -99 0 -3 78 c-3 70 -5 77 -25 80 -11 2 -24 -2 -28 -7z"/>
 <path d="M4204 3025 c-4 -8 -4 -22 0 -30 5 -13 52 -15 368 -13 l363 3 0 25 0 25 -363 3 c-316 2 -363 0 -368 -13z"/>
 <path d="M4046 3007 c-21 -16 -18 -45 6 -61 14 -8 22 -6 38 9 18 19 19 22 4 43 -18 26 -24 27 -48 9z"/>
 <path d="M3981 2941 c-13 -24 8 -55 34 -50 28 6 42 34 26 53 -18 22 -48 20 -60 -3z"/>
 <path d="M4090 2940 c-9 -16 -8 -25 1 -36 26 -32 84 0 62 34 -16 26 -50 27 -63 2z"/>
 <path d="M4207 2944 c-10 -11 3 -24 24 -24 23 0 25 -15 4 -24 -20 -7 -19 -50 1 -67 12 -10 20 -10 34 -2 12 8 21 8 28 1 13 -13 33 -2 27 15 -10 34 -13 77 -6 77 5 0 13 -21 17 -47 9 -45 11 -47 44 -49 19 -1 43 2 53 8 12 6 23 6 31 -1 13 -11 94 -9 114 3 14 8 16 42 3 50 -4 3 -6 16 -4 30 6 31 -15 44 -25 15 l-9 -23 -6 23 c-7 29 -27 18 -27 -15 0 -22 -2 -23 -21 -14 -20 11 -20 12 -2 25 17 13 17 14 1 20 -32 13 -51 -2 -45 -34 6 -27 5 -28 -18 -17 -13 6 -26 20 -27 31 -4 30 -34 25 -31 -5 3 -25 3 -25 -7 -2 -12 29 -38 38 -63 23 -14 -9 -22 -10 -30 -2 -12 12 -50 15 -60 5z m83 -77 c0 -7 -9 -13 -20 -14 -23 -2 -26 7 -8 25 13 13 28 7 28 -11z m230 -1 c0 -9 -7 -12 -21 -9 -16 4 -17 8 -7 14 19 13 28 11 28 -5z"/>
 <path d="M4632 2938 c-7 -7 -12 -26 -12 -43 0 -40 43 -84 66 -70 18 12 19 30 1 30 -23 1 -37 16 -37 41 0 13 5 24 11 24 6 0 9 -9 6 -20 -7 -26 13 -38 28 -17 10 15 14 11 28 -24 17 -42 39 -49 45 -13 7 42 16 48 21 15 8 -44 28 -51 42 -14 11 27 11 27 19 7 12 -32 31 -40 45 -20 11 15 13 15 19 1 7 -19 47 -17 54 3 2 6 -6 16 -19 20 -21 8 -21 9 -3 16 19 7 19 8 -1 22 -19 14 -19 16 -2 25 9 6 15 14 12 20 -10 15 -55 10 -62 -7 -4 -12 -8 -13 -14 -3 -9 15 -127 20 -135 7 -3 -5 -11 -5 -17 -1 -20 13 -83 13 -95 1z"/>
 <path d="M4046 2897 c-21 -16 -18 -45 6 -61 14 -8 22 -6 40 11 21 22 21 23 3 43 -21 24 -25 24 -49 7z"/>
 <path d="M4493 2655 c-25 -18 -45 -76 -70 -200 -25 -126 -24 -394 1 -485 40 -147 126 -258 243 -313 66 -31 72 -32 203 -32 l135 0 79 38 c100 47 180 128 257 257 30 52 60 95 66 97 6 2 18 -12 27 -31 24 -51 20 -154 -15 -358 -26 -155 -30 -200 -27 -307 4 -100 9 -138 27 -184 24 -62 113 -167 163 -193 28 -14 32 -13 116 32 184 99 283 174 229 174 -7 0 -59 -22 -117 -50 -58 -27 -116 -50 -130 -50 -43 0 -96 45 -127 107 -27 56 -28 64 -27 198 0 111 6 168 27 275 49 243 46 343 -13 432 -41 62 -86 93 -137 93 -36 0 -48 -6 -83 -40 -22 -21 -64 -79 -93 -129 -101 -172 -176 -226 -324 -234 -101 -6 -162 9 -230 53 -41 27 -58 47 -86 103 -71 142 -72 350 -6 654 13 55 12 58 -11 83 -27 29 -47 31 -77 10z"/>
 </g>
<g id="layer10" fill="#999796" stroke="none">
 <path d="M5435 4135 c-136 -30 -239 -89 -340 -196 -117 -123 -172 -250 -182 -414 -10 -158 32 -297 129 -427 202 -273 573 -349 866 -176 72 42 188 158 230 230 112 190 122 435 27 626 -138 273 -440 421 -730 357z m396 -390 c118 -86 220 -167 227 -181 20 -38 12 -136 -14 -171 -31 -42 -73 -61 -131 -62 -53 -1 -54 0 -269 156 -128 93 -221 168 -230 184 -18 36 -18 112 0 147 33 64 91 94 163 87 35 -4 76 -30 254 -160z m-444 -173 c281 -203 325 -237 339 -263 38 -74 3 -187 -69 -220 -89 -40 -99 -36 -341 141 -233 169 -246 183 -246 262 0 89 73 158 167 158 36 0 56 -11 150 -78z"/>
 <path d="M3395 3810 c-3 -6 1 -13 10 -16 14 -6 13 -8 -5 -21 -15 -10 -20 -25 -20 -56 -1 -65 -16 -77 -93 -77 -61 0 -85 -8 -70 -23 3 -4 5 -50 4 -103 -3 -123 5 -134 96 -134 l63 0 0 -63 c0 -88 11 -97 122 -97 102 0 118 11 118 82 0 56 21 78 76 78 22 0 50 7 62 16 22 15 23 22 21 114 -1 54 1 102 4 108 4 5 4 12 0 16 -11 11 -139 6 -151 -6 -9 -9 -12 4 -12 59 0 61 -3 74 -20 86 -18 13 -19 15 -5 21 39 14 -3 26 -95 26 -56 0 -102 -4 -105 -10z"/>
 <path d="M4186 3701 c-12 -13 -13 -20 -4 -29 8 -8 8 -15 0 -25 -9 -10 6 -30 68 -92 44 -44 80 -76 80 -71 0 5 6 3 14 -3 10 -8 16 -9 21 -1 3 5 3 10 -2 10 -11 1 29 24 42 25 5 0 9 10 9 23 0 12 -4 22 -9 22 -6 0 -44 34 -85 74 -81 79 -110 94 -134 67z"/>
 <path d="M4549 3703 c-17 -20 -16 -79 1 -75 18 4 132 -109 126 -125 -8 -20 7 -22 44 -5 19 8 40 16 45 16 6 1 10 11 10 24 0 12 -4 22 -10 22 -5 0 -44 34 -85 74 -79 77 -111 94 -131 69z"/>
 <path d="M4205 3040 c-3 -6 0 -12 7 -15 26 -10 723 0 723 10 0 14 -721 19 -730 5z"/>
 <path d="M4076 3012 c-3 -6 1 -15 8 -21 8 -7 17 -8 20 -3 3 6 -1 15 -8 21 -8 7 -17 8 -20 3z"/>
 <path d="M4011 2974 c-24 -25 -24 -25 -3 -30 11 -3 23 -15 25 -26 3 -12 10 -17 17 -13 6 4 9 13 6 21 -3 8 0 11 8 8 8 -3 17 0 21 6 4 7 -2 14 -14 17 -12 3 -21 11 -21 19 0 24 -15 23 -39 -2z"/>
 <path d="M4105 2960 c-7 -11 35 -31 48 -23 11 6 -12 33 -29 33 -7 0 -16 -5 -19 -10z"/>
 <path d="M4216 2952 c-8 -13 19 -46 32 -38 15 9 8 40 -11 44 -8 2 -18 -1 -21 -6z"/>
 <path d="M4296 2951 c-3 -5 3 -19 13 -32 14 -18 28 -24 57 -24 27 1 39 5 39 15 0 8 -9 15 -20 15 -11 0 -28 8 -37 18 -19 18 -43 22 -52 8z"/>
 <path d="M4639 2953 c-1 -5 -1 -11 0 -15 0 -5 -4 -7 -11 -5 -7 1 -12 -12 -14 -31 -2 -35 30 -87 47 -76 6 4 3 14 -7 25 -15 17 -13 24 9 20 4 -1 10 6 13 14 3 8 10 13 14 10 4 -3 13 2 20 9 9 12 7 19 -9 35 -20 20 -60 29 -62 14z"/>
 <path d="M4435 2940 c-6 -10 -5 -11 17 -14 20 -2 19 -21 -2 -34 -11 -7 -19 -9 -18 -5 2 5 -1 8 -7 8 -5 0 -10 -11 -10 -25 0 -17 5 -25 17 -25 23 0 80 44 73 56 -8 12 18 7 27 -6 12 -15 9 -25 -4 -22 -7 1 -13 -5 -13 -13 0 -8 9 -15 20 -15 16 0 20 7 20 35 0 21 5 36 13 36 26 3 26 5 8 19 -11 8 -25 11 -35 7 -19 -10 -72 -9 -88 1 -6 4 -14 3 -18 -3z"/>
 <path d="M4775 2930 c-8 -13 4 -32 15 -25 4 3 10 -3 12 -13 4 -15 16 -17 84 -16 43 1 81 3 83 3 2 1 -2 7 -8 15 -6 8 -10 20 -9 27 2 8 -5 14 -17 14 -12 0 -19 -6 -18 -15 2 -12 -6 -16 -36 -15 -21 0 -44 5 -52 11 -23 18 -48 24 -54 14z"/>
 <path d="M4081 2906 c-8 -10 -9 -16 -1 -21 6 -4 9 -12 8 -18 -2 -7 2 -12 7 -12 5 0 10 7 10 15 0 8 8 15 17 15 10 0 17 5 17 10 -1 6 -6 9 -11 7 -6 -1 -16 2 -23 8 -9 7 -16 6 -24 -4z"/>
 <path d="M4018 2904 c-9 -14 11 -56 22 -49 13 8 13 18 -3 40 -8 10 -16 14 -19 9z"/>
 <path d="M4216 2882 c-3 -5 3 -17 13 -26 11 -10 22 -13 25 -8 3 5 -3 17 -13 26 -11 10 -22 13 -25 8z"/>
 <path d="M4579 2883 c-1 -4 -1 -12 0 -17 1 -4 -3 -14 -9 -21 -7 -9 -7 -15 -1 -19 11 -7 24 11 26 37 2 17 -14 36 -16 20z"/>
 <path d="M4284 2868 c-10 -16 6 -25 43 -22 21 1 43 -2 50 -7 15 -13 29 9 15 23 -13 13 -101 18 -108 6z"/>
 <path d="M4730 2861 c-6 -12 -6 -22 -1 -26 6 -3 15 3 21 14 6 12 6 22 1 26 -6 3 -15 -3 -21 -14z"/>
 <path d="M4785 2870 c-4 -6 -3 -16 3 -22 6 -6 12 -6 17 2 4 6 3 16 -3 22 -6 6 -12 6 -17 -2z"/>
 <path d="M4854 2839 c-6 -10 6 -15 36 -14 14 0 25 4 25 10 0 11 -54 14 -61 4z"/>
 <path d="M3033 2774 c-13 -35 104 -110 242 -155 63 -20 95 -23 305 -27 232 -4 236 -3 255 18 20 22 20 22 -4 41 -21 17 -42 19 -250 19 -222 0 -227 1 -307 29 -45 15 -105 42 -133 59 -56 35 -98 41 -108 16z"/>
 <path d="M5896 2750 c-132 -73 -167 -80 -425 -80 -219 0 -229 -1 -256 -22 l-27 -21 23 -18 c21 -17 47 -19 234 -19 177 0 223 3 295 20 93 23 205 74 260 119 29 25 32 31 21 45 -20 24 -49 19 -125 -24z"/>
 <path d="M4483 2657 c-19 -24 -23 -36 -14 -41 5 -3 16 5 25 19 16 24 6 45 -11 22z"/>
 </g>
<g id="layer11" fill="#e9e7e5" stroke="none">
 <path d="M3365 4223 c-77 -17 -190 -58 -238 -87 -156 -94 -292 -258 -341 -408 -37 -116 -41 -146 -40 -318 0 -163 2 -181 28 -260 38 -116 95 -211 184 -302 60 -62 78 -75 92 -68 13 7 45 -5 126 -46 147 -73 202 -84 449 -84 188 0 201 -1 212 -20 12 -18 28 -19 295 -23 156 -1 293 -7 305 -11 19 -7 26 -3 40 22 29 50 88 50 95 0 3 -20 8 -22 38 -19 19 2 159 5 310 7 255 4 276 6 291 23 14 17 35 19 245 23 219 4 233 5 309 32 44 15 111 46 149 68 56 33 73 39 87 30 36 -23 170 127 239 267 56 112 71 195 69 375 -1 99 -7 185 -17 225 -34 150 -140 318 -261 413 -161 127 -305 174 -511 165 -162 -6 -277 -46 -411 -143 l-47 -34 -540 0 -540 0 -44 36 c-45 39 -167 101 -228 116 -88 23 -122 27 -220 26 -58 0 -114 -2 -125 -5z m2347 -104 c29 -6 96 -31 148 -56 76 -37 109 -60 166 -117 72 -72 82 -87 129 -185 42 -88 59 -166 59 -276 0 -357 -282 -639 -639 -639 -110 0 -188 17 -276 59 -98 47 -113 57 -185 129 -57 57 -81 90 -117 166 -57 119 -71 189 -65 327 5 114 14 144 76 273 49 103 149 202 252 252 72 35 143 62 185 71 42 9 216 7 267 -4z m-2114 -273 c111 -30 195 -100 246 -206 28 -59 31 -74 31 -160 0 -83 -4 -103 -27 -153 -53 -114 -127 -179 -237 -211 -260 -76 -506 120 -489 389 16 241 242 403 476 341z m732 -219 c79 -81 87 -107 39 -127 -30 -13 -31 -12 -105 61 -78 77 -94 116 -56 138 27 16 48 4 122 -72z m363 3 c76 -77 83 -105 33 -129 -28 -13 -29 -12 -102 60 -78 77 -94 117 -56 138 28 17 54 3 125 -69z m227 -615 c0 -13 -45 -15 -349 -15 -301 0 -350 2 -355 15 -5 13 38 15 349 15 309 0 355 -2 355 -15z m-828 -37 c2 -14 12 -24 28 -28 23 -5 26 -11 22 -40 -1 -5 -11 -10 -21 -10 -14 0 -21 8 -23 28 -2 20 -8 26 -22 24 -19 -4 -36 13 -36 36 0 6 11 12 24 12 18 0 26 -6 28 -22z m-57 -58 c0 -20 6 -26 28 -28 30 -4 38 -36 11 -46 -21 -8 -34 1 -34 25 0 12 -10 23 -25 29 -33 13 -35 53 -2 48 16 -2 22 -10 22 -28z m233 8 c8 -8 15 -8 26 1 19 16 56 5 56 -17 0 -13 -2 -13 -13 3 -15 19 -37 13 -37 -10 0 -8 -6 -12 -13 -9 -7 2 -21 -4 -32 -15 -15 -18 -16 -23 -4 -38 13 -16 12 -17 -3 -4 -22 17 -23 47 -3 55 22 8 18 25 -7 36 -22 8 -22 9 -2 9 11 1 25 -4 32 -11z m450 -1 c17 -13 15 -30 -3 -24 -8 4 -17 2 -20 -3 -10 -16 -23 -11 -21 8 2 30 -28 19 -35 -13 l-7 -30 -1 31 c0 17 2 34 6 37 9 10 65 5 81 -6z m123 -15 c5 -13 14 -19 22 -16 10 3 16 -4 20 -23 7 -38 1 -41 -24 -9 -22 28 -39 27 -39 -5 0 -10 -4 -19 -10 -19 -5 0 -10 14 -10 31 0 17 -4 39 -10 49 -9 16 -7 18 17 16 16 -2 29 -11 34 -24z m-302 -25 c1 -5 -3 -5 -9 -2 -5 3 -10 16 -9 28 0 21 1 21 9 2 5 -11 9 -24 9 -28z m-139 1 c0 -5 -4 -8 -10 -8 -5 0 -10 10 -10 23 0 18 2 19 10 7 5 -8 10 -18 10 -22z m521 -15 c-9 -16 -10 -14 -11 12 0 21 3 26 11 18 8 -8 8 -16 0 -30z m-448 1 c-3 -8 -8 -12 -11 -9 -3 3 -12 -1 -21 -9 -14 -13 -16 -12 -16 9 0 17 3 21 12 13 9 -7 15 -6 19 6 3 9 10 14 15 11 4 -3 6 -12 2 -21z m107 -15 c0 -11 -4 -19 -10 -19 -5 0 -7 7 -4 15 4 8 0 23 -7 33 -13 15 -12 16 4 3 9 -7 17 -22 17 -32z m180 -1 c0 -10 -4 -18 -9 -18 -5 0 -11 8 -13 18 -3 11 0 19 8 19 8 0 14 -9 14 -19z"/>
 <path d="M5485 3904 c-45 -23 -66 -45 -86 -89 -23 -49 -24 -83 -3 -134 13 -34 44 -60 207 -179 106 -77 210 -151 231 -166 65 -44 141 -31 203 35 60 64 72 155 28 208 -14 16 -122 100 -240 185 -206 150 -215 156 -262 156 -26 0 -61 -7 -78 -16z m134 -58 c81 -42 62 -180 -28 -207 -85 -25 -158 37 -147 126 10 79 99 120 175 81z m344 -252 c58 -14 83 -86 56 -162 -13 -37 -57 -62 -110 -62 -31 0 -46 7 -75 36 -34 35 -36 40 -32 86 7 71 62 123 118 112 8 -2 27 -6 43 -10z"/>
 <path d="M5177 3655 c-51 -18 -85 -50 -109 -104 -24 -51 -18 -115 13 -154 28 -37 439 -333 472 -341 64 -16 165 42 193 111 8 18 14 48 14 68 0 76 -15 91 -244 258 -120 87 -229 162 -242 168 -33 12 -51 11 -97 -6z m120 -66 c9 -8 24 -32 34 -55 31 -70 4 -127 -73 -154 -124 -44 -206 137 -95 210 36 23 104 23 134 -1z m360 -260 c9 -8 25 -33 35 -56 19 -42 19 -44 0 -85 -23 -53 -40 -67 -86 -75 -38 -6 -93 14 -117 43 -18 22 -18 126 0 148 36 43 128 57 168 25z"/>
 </g>
<g id="layer12" fill="#e27c3e" stroke="none">
 <path d="M4262 5810 c-619 -65 -1147 -314 -1577 -745 -328 -328 -555 -720 -670 -1158 -61 -234 -79 -378 -79 -657 0 -279 18 -423 79 -657 233 -886 942 -1595 1828 -1828 234 -61 378 -79 657 -79 279 0 423 18 657 79 185 49 453 152 453 175 0 5 -13 16 -29 24 -46 24 -118 112 -142 174 -18 45 -24 83 -27 183 -3 107 1 152 28 313 38 225 39 322 2 373 -13 18 -29 33 -37 33 -7 0 -42 -48 -77 -107 -82 -139 -144 -203 -245 -251 l-78 -37 -135 0 c-131 0 -137 1 -202 32 -78 37 -133 90 -175 170 -55 103 -67 168 -67 358 0 158 11 248 46 384 2 8 -14 18 -42 27 -55 17 -585 20 -595 4 -4 -6 -94 -10 -238 -10 -203 0 -242 3 -306 20 -111 31 -257 111 -247 135 2 7 -25 41 -60 76 -84 83 -148 186 -187 302 -31 89 -31 97 -32 272 0 211 12 271 81 406 97 188 275 326 481 373 88 20 245 21 335 2 83 -18 206 -74 274 -126 l53 -40 535 0 536 0 67 46 c137 94 265 134 430 134 131 0 220 -20 328 -74 157 -78 255 -177 330 -331 60 -125 75 -201 75 -388 0 -120 -4 -171 -19 -230 -35 -136 -126 -288 -221 -368 -28 -24 -46 -47 -43 -55 7 -19 -102 -87 -195 -120 -75 -27 -85 -28 -321 -32 -168 -2 -251 0 -265 8 -26 13 -564 9 -616 -6 -40 -11 -50 -38 -75 -189 -52 -316 -11 -527 121 -628 68 -52 136 -70 244 -65 154 7 239 70 349 257 68 116 100 146 154 146 105 0 178 -134 163 -300 -3 -38 -18 -131 -33 -205 -21 -107 -27 -164 -27 -276 -1 -137 0 -142 29 -199 34 -67 101 -125 143 -125 15 0 74 23 132 50 58 28 113 50 123 50 38 0 234 156 382 305 328 328 555 720 670 1158 61 234 79 378 79 657 0 279 -18 423 -79 657 -233 886 -942 1595 -1828 1828 -204 53 -371 75 -607 80 -113 2 -242 0 -288 -5z"/>
 </g>
<g id="layer13" fill="#1d83c1" stroke="none">
 <path d="M0 3250 l0 -3250 4500 0 4500 0 0 3250 0 3250 -4500 0 -4500 0 0 -3250z m4900 2524 c213 -40 390 -87 510 -136 14 -6 36 -15 50 -21 58 -23 90 -38 190 -87 58 -28 119 -60 135 -70 17 -11 39 -24 50 -30 45 -23 181 -116 207 -142 10 -10 22 -18 26 -18 4 0 28 -18 52 -40 25 -23 71 -64 104 -93 74 -65 98 -89 163 -163 29 -33 70 -79 93 -104 22 -24 40 -48 40 -52 0 -4 8 -16 18 -26 26 -26 119 -162 142 -207 6 -11 19 -33 30 -50 10 -16 42 -77 70 -135 49 -100 64 -132 87 -190 6 -14 15 -36 21 -50 50 -122 96 -296 138 -520 26 -138 26 -642 0 -780 -42 -224 -88 -398 -138 -520 -6 -14 -15 -36 -21 -50 -23 -58 -38 -90 -87 -190 -28 -58 -60 -118 -70 -135 -11 -16 -24 -39 -30 -50 -23 -45 -116 -181 -142 -207 -10 -10 -18 -22 -18 -26 0 -4 -18 -28 -40 -52 -23 -25 -64 -71 -93 -104 -65 -74 -89 -98 -163 -163 -33 -29 -79 -70 -104 -93 -24 -22 -47 -40 -52 -40 -4 0 -19 -11 -34 -25 -67 -62 -410 -266 -474 -282 -14 -3 -36 -11 -50 -18 -23 -12 -47 -22 -102 -44 -131 -52 -296 -96 -518 -137 -138 -26 -642 -26 -780 0 -224 42 -398 88 -520 138 -14 6 -36 15 -50 21 -58 23 -90 38 -190 87 -58 28 -118 60 -135 70 -16 11 -39 24 -50 30 -45 23 -181 116 -207 142 -10 10 -22 18 -26 18 -4 0 -28 18 -52 40 -25 23 -71 64 -104 93 -74 65 -98 89 -163 163 -29 33 -70 79 -93 104 -22 24 -40 48 -40 52 0 4 -8 16 -18 26 -26 26 -119 162 -142 207 -6 11 -19 34 -30 50 -19 29 -110 211 -134 270 -44 103 -51 120 -84 220 -40 122 -62 212 -98 405 -26 138 -26 642 0 780 46 246 93 416 156 565 7 17 19 44 26 60 24 59 115 241 134 270 11 17 24 39 30 50 23 45 116 181 142 207 10 10 18 22 18 26 0 4 18 28 40 52 23 25 64 71 93 104 65 74 89 98 163 163 33 29 79 70 104 93 24 22 48 40 52 40 4 0 16 8 26 18 26 26 162 119 207 142 11 6 34 19 50 30 29 19 211 110 270 134 103 44 120 51 220 84 86 28 184 54 270 72 22 4 67 13 100 20 113 23 231 29 485 24 175 -2 282 -9 340 -20z"/>
 </g>

</svg>